<?xml version="1.0" encoding="UTF-8" standalone="no"?><!DOCTYPE svg PUBLIC "-//W3C//DTD SVG 1.1//EN" "http://www.w3.org/Graphics/SVG/1.1/DTD/svg11.dtd"><svg width="100%" height="100%" viewBox="0 0 129 155" version="1.1" xmlns="http://www.w3.org/2000/svg" xmlns:xlink="http://www.w3.org/1999/xlink" xml:space="preserve" xmlns:serif="http://www.serif.com/" style="fill-rule:evenodd;clip-rule:evenodd;stroke-linejoin:round;stroke-miterlimit:2;"><g><clipPath id="_clip1"><path d="M89.967,66.518c0.007,-0.504 -0.232,-0.981 -0.639,-1.278l-57.409,-41.945c-0.536,-0.392 -1.261,-0.401 -1.806,-0.024l-25.777,17.795c-0.421,0.291 -0.673,0.77 -0.673,1.281c0,0.512 0.252,0.991 0.673,1.282l59.083,40.788c0.267,0.184 0.577,0.276 0.886,0.276c0.31,0 0.62,-0.092 0.886,-0.276l24.102,-16.639c0.417,-0.286 0.667,-0.755 0.674,-1.26Z" clip-rule="nonzero"/></clipPath><g clip-path="url(#_clip1)"><rect x="-1.337" y="17.995" width="96.304" height="71.698" style="fill:#fff;"/></g><clipPath id="_clip2"><path d="M127.777,50.16c-0.513,-0.268 -1.134,-0.231 -1.611,0.098l-57.921,39.988c-0.421,0.29 -0.673,0.77 -0.673,1.282l0,61.346c0,0.578 0.321,1.111 0.835,1.379c0.227,0.12 0.476,0.178 0.723,0.178c0.312,0 0.622,-0.093 0.886,-0.276l57.921,-39.987c0.422,-0.29 0.673,-0.77 0.673,-1.281l0,-61.347c0.001,-0.579 -0.32,-1.11 -0.833,-1.38Z" clip-rule="nonzero"/></clipPath><g clip-path="url(#_clip2)"><rect x="62.572" y="44.982" width="71.039" height="114.449" style="fill:#fff;"/></g><clipPath id="_clip3"><path d="M60.367,90.246l-57.922,-39.987c-0.476,-0.329 -1.096,-0.367 -1.61,-0.098c-0.513,0.269 -0.835,0.8 -0.835,1.379l0,61.347c0,0.511 0.252,0.991 0.673,1.281l57.921,39.987c0.266,0.183 0.576,0.276 0.886,0.276c0.248,0 0.497,-0.058 0.725,-0.178c0.512,-0.268 0.834,-0.801 0.834,-1.379l0,-61.346c0.001,-0.512 -0.25,-0.992 -0.672,-1.282Z" clip-rule="nonzero"/></clipPath><g clip-path="url(#_clip3)"><rect x="-5" y="44.983" width="71.039" height="114.448" style="fill:#fff;"/></g><clipPath id="_clip4"><path d="M39.257,19.474l57.41,41.945c0.274,0.2 0.596,0.3 0.919,0.3c0.309,0 0.62,-0.092 0.886,-0.276l25.803,-17.814c0.422,-0.291 0.673,-0.77 0.673,-1.282c0,-0.512 -0.251,-0.991 -0.673,-1.282l-59.084,-40.789c-0.532,-0.368 -1.239,-0.368 -1.771,0l-24.129,16.659c-0.416,0.286 -0.666,0.756 -0.673,1.26c-0.007,0.505 0.232,0.982 0.639,1.279Z" clip-rule="nonzero"/></clipPath><g clip-path="url(#_clip4)"><rect x="33.618" y="-5" width="96.33" height="71.719" style="fill:#fff;"/></g></g></svg>