<?xml version="1.0" encoding="UTF-8" standalone="no"?>
<!DOCTYPE svg PUBLIC "-//W3C//DTD SVG 1.1//EN" "http://www.w3.org/Graphics/SVG/1.1/DTD/svg11.dtd">
<svg width="100%" height="100%" viewBox="0 0 253 85" version="1.1" xmlns="http://www.w3.org/2000/svg" xmlns:xlink="http://www.w3.org/1999/xlink" xml:space="preserve" xmlns:serif="http://www.serif.com/" style="fill-rule:evenodd;clip-rule:evenodd;">
    <g transform="matrix(1,0,0,1,-161.947,-83.7363)">
        <g transform="matrix(1.16548,0,0,1.10195,-124,-68.27)">
            <g id="Wordmark" transform="matrix(1.32271,0,0,2.60848,-899.259,-791.691)">
                <g id="y" transform="matrix(0.50291,0,0,0.281607,905.533,304.987)">
                    <path d="M192.152,286.875L202.629,268.64C187.804,270.106 183.397,265.779 180.143,263.391C176.888,261.004 174.362,257.99 172.563,254.347C170.765,250.705 169.866,246.691 169.866,242.305L169.866,208.107L183.21,208.107L183.21,242.213C183.21,245.188 183.896,247.822 185.268,250.116C186.64,252.41 188.465,254.197 190.743,255.475C193.022,256.754 195.501,257.393 198.182,257.393C200.894,257.393 203.393,256.75 205.68,255.463C207.966,254.177 209.799,252.391 211.178,250.105C212.558,247.818 213.248,245.188 213.248,242.213L213.248,208.107L226.545,208.107L226.545,242.305C226.545,246.707 225.378,258.46 218.079,268.64C215.735,271.909 207.835,286.875 207.835,286.875L192.152,286.875Z" style="fill:rgb(47,47,47);fill-rule:nonzero;"/>
                </g>
                <g id="add" transform="matrix(0.525075,0,0,0.281607,801.871,304.987)">
                    <g transform="matrix(116.242,0,0,116.242,161.846,267.39)">
                        <path d="M0.276,0.012C0.227,0.012 0.186,0 0.15,-0.024C0.115,-0.048 0.088,-0.08 0.069,-0.12C0.05,-0.161 0.04,-0.205 0.04,-0.254C0.04,-0.305 0.051,-0.35 0.072,-0.39C0.094,-0.431 0.125,-0.463 0.165,-0.487C0.205,-0.51 0.254,-0.522 0.31,-0.522C0.366,-0.522 0.413,-0.51 0.452,-0.486C0.491,-0.463 0.521,-0.431 0.542,-0.39C0.562,-0.35 0.573,-0.305 0.573,-0.256L0.573,-0L0.458,-0L0.458,-0.095L0.456,-0.095C0.446,-0.076 0.433,-0.058 0.417,-0.042C0.401,-0.026 0.381,-0.013 0.358,-0.003C0.335,0.007 0.307,0.012 0.276,0.012ZM0.307,-0.086C0.337,-0.086 0.363,-0.093 0.386,-0.108C0.408,-0.123 0.426,-0.144 0.438,-0.17C0.45,-0.195 0.456,-0.224 0.456,-0.256C0.456,-0.288 0.45,-0.317 0.438,-0.342C0.426,-0.367 0.409,-0.387 0.387,-0.402C0.365,-0.417 0.338,-0.424 0.308,-0.424C0.276,-0.424 0.249,-0.417 0.226,-0.402C0.204,-0.387 0.186,-0.366 0.174,-0.341C0.162,-0.315 0.156,-0.287 0.156,-0.255C0.156,-0.224 0.162,-0.195 0.174,-0.169C0.186,-0.144 0.203,-0.123 0.226,-0.108C0.248,-0.093 0.275,-0.086 0.307,-0.086Z" style="fill:rgb(47,47,47);fill-rule:nonzero;"/>
                    </g>
                    <g transform="matrix(116.242,0,0,116.242,226.592,267.39)">
                        <path d="M0.306,0.012C0.265,0.012 0.229,0.006 0.196,-0.008C0.163,-0.021 0.135,-0.039 0.112,-0.064C0.089,-0.088 0.071,-0.117 0.059,-0.151C0.046,-0.185 0.04,-0.222 0.04,-0.263C0.04,-0.315 0.051,-0.36 0.072,-0.399C0.093,-0.437 0.122,-0.468 0.159,-0.489C0.196,-0.511 0.239,-0.522 0.287,-0.522C0.311,-0.522 0.333,-0.518 0.355,-0.511C0.377,-0.504 0.396,-0.493 0.413,-0.48C0.431,-0.466 0.445,-0.451 0.455,-0.433L0.456,-0.433L0.456,-0.73L0.571,-0.73L0.571,-0.261C0.571,-0.205 0.56,-0.156 0.537,-0.115C0.515,-0.074 0.484,-0.043 0.444,-0.021C0.405,0.001 0.358,0.012 0.306,0.012ZM0.306,-0.086C0.335,-0.086 0.361,-0.093 0.384,-0.107C0.406,-0.122 0.423,-0.141 0.436,-0.167C0.448,-0.192 0.455,-0.221 0.455,-0.255C0.455,-0.288 0.448,-0.317 0.436,-0.343C0.423,-0.368 0.406,-0.388 0.383,-0.402C0.361,-0.417 0.335,-0.424 0.305,-0.424C0.276,-0.424 0.251,-0.417 0.228,-0.402C0.206,-0.387 0.188,-0.368 0.175,-0.342C0.163,-0.317 0.156,-0.288 0.156,-0.255C0.156,-0.222 0.163,-0.193 0.175,-0.167C0.188,-0.142 0.206,-0.122 0.229,-0.108C0.251,-0.093 0.277,-0.086 0.306,-0.086Z" style="fill:rgb(47,47,47);fill-rule:nonzero;"/>
                    </g>
                    <g transform="matrix(116.242,0,0,116.242,290.293,267.39)">
                        <path d="M0.306,0.012C0.265,0.012 0.229,0.006 0.196,-0.008C0.163,-0.021 0.135,-0.039 0.112,-0.064C0.089,-0.088 0.071,-0.117 0.059,-0.151C0.046,-0.185 0.04,-0.222 0.04,-0.263C0.04,-0.315 0.051,-0.36 0.072,-0.399C0.093,-0.437 0.122,-0.468 0.159,-0.489C0.196,-0.511 0.239,-0.522 0.287,-0.522C0.311,-0.522 0.333,-0.518 0.355,-0.511C0.377,-0.504 0.396,-0.493 0.413,-0.48C0.431,-0.466 0.445,-0.451 0.455,-0.433L0.456,-0.433L0.456,-0.73L0.571,-0.73L0.571,-0.261C0.571,-0.205 0.56,-0.156 0.537,-0.115C0.515,-0.074 0.484,-0.043 0.444,-0.021C0.405,0.001 0.358,0.012 0.306,0.012ZM0.306,-0.086C0.335,-0.086 0.361,-0.093 0.384,-0.107C0.406,-0.122 0.423,-0.141 0.436,-0.167C0.448,-0.192 0.455,-0.221 0.455,-0.255C0.455,-0.288 0.448,-0.317 0.436,-0.343C0.423,-0.368 0.406,-0.388 0.383,-0.402C0.361,-0.417 0.335,-0.424 0.305,-0.424C0.276,-0.424 0.251,-0.417 0.228,-0.402C0.206,-0.387 0.188,-0.368 0.175,-0.342C0.163,-0.317 0.156,-0.288 0.156,-0.255C0.156,-0.222 0.163,-0.193 0.175,-0.167C0.188,-0.142 0.206,-0.122 0.229,-0.108C0.251,-0.093 0.277,-0.086 0.306,-0.086Z" style="fill:rgb(47,47,47);fill-rule:nonzero;"/>
                    </g>
                </g>
                <g id="c" transform="matrix(-0.0716462,0.31304,-0.583685,-0.0384251,1489.76,-444.051)">
                    <path d="M2668.11,700.4C2666.79,703.699 2666.12,707.216 2666.12,710.766C2666.12,726.268 2678.71,738.854 2694.21,738.854C2709.71,738.854 2722.3,726.268 2722.3,710.766C2722.3,704.111 2719.93,697.672 2715.63,692.597L2707.63,699.378C2710.33,702.559 2711.57,706.602 2711.81,710.766C2712.2,717.38 2706.61,724.52 2697.27,726.637C2683.9,728.581 2676.61,720.482 2676.61,710.766C2676.61,708.541 2677.03,706.336 2677.85,704.269L2668.11,700.4Z" style="fill:rgb(46,46,46);"/>
                </g>
            </g>
            <g id="R" transform="matrix(0.426446,0,0,0.451034,-1192.44,-722.167)">
                <g transform="matrix(1,0,0,1,-0.10786,0.450801)">
                    <g transform="matrix(12.1247,0,0,12.1247,3862.61,1929.9)">
                        <path d="M0.073,-0L0.073,-0.7L0.383,-0.7C0.428,-0.7 0.469,-0.69 0.506,-0.67C0.543,-0.651 0.572,-0.623 0.594,-0.588C0.616,-0.553 0.627,-0.512 0.627,-0.465C0.627,-0.418 0.615,-0.377 0.592,-0.342C0.569,-0.306 0.539,-0.279 0.501,-0.259L0.57,-0.128C0.574,-0.12 0.579,-0.115 0.584,-0.111C0.59,-0.107 0.596,-0.106 0.605,-0.106L0.664,-0.106L0.664,-0L0.587,-0C0.56,-0 0.535,-0.007 0.514,-0.02C0.493,-0.034 0.476,-0.052 0.463,-0.075L0.381,-0.232C0.375,-0.231 0.368,-0.231 0.361,-0.231C0.354,-0.231 0.347,-0.231 0.34,-0.231L0.192,-0.231L0.192,-0L0.073,-0ZM0.192,-0.336L0.368,-0.336C0.394,-0.336 0.417,-0.341 0.438,-0.351C0.459,-0.361 0.476,-0.376 0.489,-0.396C0.501,-0.415 0.507,-0.438 0.507,-0.465C0.507,-0.492 0.501,-0.516 0.488,-0.535C0.475,-0.554 0.459,-0.569 0.438,-0.579C0.417,-0.59 0.394,-0.595 0.369,-0.595L0.192,-0.595L0.192,-0.336Z" style="fill:rgb(46,46,46);fill-rule:nonzero;"/>
                    </g>
                </g>
                <g transform="matrix(1,0,0,1,0.278569,0.101881)">
                    <circle cx="3866.43" cy="1926.14" r="8.923" style="fill:none;stroke:rgb(46,46,46);stroke-width:2px;"/>
                </g>
            </g>
        </g>
    </g>
</svg>
