<?xml version="1.0" encoding="UTF-8" standalone="no"?><!DOCTYPE svg PUBLIC "-//W3C//DTD SVG 1.1//EN" "http://www.w3.org/Graphics/SVG/1.1/DTD/svg11.dtd"><svg width="100%" height="100%" viewBox="0 0 105 145" version="1.1" xmlns="http://www.w3.org/2000/svg" xmlns:xlink="http://www.w3.org/1999/xlink" xml:space="preserve" xmlns:serif="http://www.serif.com/" style="fill-rule:evenodd;clip-rule:evenodd;stroke-linejoin:round;stroke-miterlimit:2;"><clipPath id="_clip1"><path d="M52.299,0c-23.32,0 -42.293,19.001 -42.293,42.358l0,24.191c0,0.275 -0.338,0.738 -0.604,0.827c-2.287,0.764 -4.145,1.426 -5.845,2.082c-2.028,0.783 -3.557,3.033 -3.557,5.235l0,55.585c0,2.187 1.519,4.439 3.534,5.239c15.589,6.187 31.996,9.323 48.764,9.323c16.769,0 33.176,-3.137 48.765,-9.324c2.014,-0.799 3.533,-3.051 3.533,-5.238l0,-55.585c0,-2.202 -1.529,-4.452 -3.558,-5.236c-1.701,-0.656 -3.558,-1.318 -5.843,-2.082c-0.265,-0.089 -0.604,-0.552 -0.604,-0.827l0,-24.191c-0.001,-23.356 -18.973,-42.357 -42.292,-42.357Zm-11.52,91.622c0,-6.376 5.158,-11.536 11.519,-11.536c6.361,0 11.518,5.16 11.518,11.536c0,4.225 -2.379,7.763 -5.759,9.768l0,19.073c0,3.189 -2.576,5.768 -5.759,5.768c-3.184,0 -5.76,-2.579 -5.76,-5.768l0,-19.073c-3.38,-2.005 -5.759,-5.543 -5.759,-9.768Zm39.27,-49.265l0,20.873c-9.101,-1.962 -18.437,-2.955 -27.747,-2.956c-9.305,0 -18.639,0.994 -27.754,2.953l0,-20.87c0,-15.325 12.449,-27.793 27.75,-27.793c15.301,0 27.751,12.468 27.751,27.793Z" clip-rule="nonzero"/></clipPath><g clip-path="url(#_clip1)"><rect x="-5" y="-5" width="114.596" height="154.84" style="fill:#fff;"/></g></svg>