<?xml version="1.0" encoding="UTF-8" standalone="no"?><!DOCTYPE svg PUBLIC "-//W3C//DTD SVG 1.1//EN" "http://www.w3.org/Graphics/SVG/1.1/DTD/svg11.dtd"><svg width="100%" height="100%" viewBox="0 0 45 16" version="1.1" xmlns="http://www.w3.org/2000/svg" xmlns:xlink="http://www.w3.org/1999/xlink" xml:space="preserve" xmlns:serif="http://www.serif.com/" style="fill-rule:evenodd;clip-rule:evenodd;stroke-linejoin:round;stroke-miterlimit:2;"><g><path d="M8.037,7.398l-0,5.128l-1.91,0l-0,-4.86c-0,-1.592 -0.718,-2.277 -1.941,-2.277c-1.359,0 -2.276,0.819 -2.276,2.612l-0,4.525l-1.91,0l-0,-8.906l1.818,0l0,1.113c0.627,-0.821 1.62,-1.171 2.811,-1.171c1.956,0 3.408,1.138 3.408,3.836" style="fill:#fff;fill-rule:nonzero;"/><rect x="8.559" y="3.62" width="1.879" height="8.906" style="fill:#fff;fill-rule:nonzero;"/><path d="M14.085,3.127l-0,0.535l2.234,0l0,1.673l-2.174,-0l0,7.191l-1.9,0l-0,-7.191l-1.338,-0l0,-1.673l1.338,0l-0,-0.568c-0,-1.873 1.019,-3.094 2.904,-3.094c0.416,0 0.826,0.061 1.179,0.192c-0,0.285 0.007,1.865 0.007,1.865c-0.289,-0.217 -0.654,-0.368 -1.05,-0.368c-0.79,0 -1.2,0.485 -1.2,1.438" style="fill:#fff;fill-rule:nonzero;"/><path d="M22.176,12.379c-0.386,0.174 -0.837,0.262 -1.289,0.262c-1.779,0 -2.797,-1.038 -2.797,-3.013l-0,-4.303l-1.338,0l-0,-1.674l1.338,0l-0,-2.042l1.9,-0l0,2.042l1.511,0l0.663,1.674l-2.174,0l0,4.253c0,0.87 0.395,1.339 1.125,1.339c0.395,-0 0.775,-0.117 1.064,-0.369c0,0 -0.003,1.526 -0.003,1.831" style="fill:#fff;fill-rule:nonzero;"/><path d="M8.559,3.16c-0,-1.174 0.839,-2.126 1.875,-2.126c0,0.998 0.003,2.122 0.003,2.122c0,-0 -0.888,0.004 -1.878,0.004" style="fill:#fff;fill-rule:nonzero;"/><path d="M42.137,8.159c0,-1.694 -1.026,-2.773 -2.398,-2.773c-1.357,-0 -2.383,1.079 -2.383,2.773c-0,1.694 1.026,2.773 2.383,2.773c1.372,0 2.398,-1.079 2.398,-2.773Zm-6.682,-0c0,-2.657 1.81,-4.534 4.284,-4.534c2.504,0 4.299,1.877 4.299,4.534c-0,2.657 -1.795,4.55 -4.299,4.55c-2.474,0 -4.284,-1.893 -4.284,-4.55Z" style="fill:#fff;fill-rule:nonzero;"/><path d="M35.417,10.333c-0.426,0.402 -0.946,0.59 -1.502,0.59c-1.382,-0 -2.433,-1.046 -2.433,-2.772c0,-1.71 1.051,-2.772 2.433,-2.772c0.557,0 1.077,0.188 1.505,0.592c0.242,-0.584 0.584,-1.097 1.006,-1.522c-0.654,-0.545 -1.513,-0.829 -2.496,-0.829c-2.538,-0 -4.34,1.875 -4.34,4.531c-0,2.655 1.802,4.547 4.34,4.547c0.98,0 1.835,-0.294 2.489,-0.841c-0.42,-0.426 -0.76,-0.94 -1.002,-1.524" style="fill:#fff;fill-rule:nonzero;"/><path d="M29.128,8.176c-0,-1.42 0.485,-2.705 1.365,-3.618c0.056,-0.058 0.113,-0.114 0.172,-0.169l0.282,-0.712l-1.825,0l-2.569,6.555l-2.554,-6.555l-1.976,0l3.542,8.912l-0.137,0.352c-0.365,0.886 -0.76,1.237 -1.429,1.237c-0.517,-0 -1.034,-0.234 -1.398,-0.619c-0,0 0.001,1.621 0.001,2.052c0.433,0.198 0.931,0.305 1.412,0.305c1.353,0 2.387,-0.618 3.132,-2.641l1.984,-5.01c-0.001,-0.029 -0.002,-0.059 -0.002,-0.089" style="fill:#fff;fill-rule:nonzero;"/></g></svg>