<?xml version="1.0" encoding="UTF-8" standalone="no"?>
<!DOCTYPE svg PUBLIC "-//W3C//DTD SVG 1.1//EN" "http://www.w3.org/Graphics/SVG/1.1/DTD/svg11.dtd">
<svg width="100%" height="100%" viewBox="0 0 71 30" version="1.1" xmlns="http://www.w3.org/2000/svg" xmlns:xlink="http://www.w3.org/1999/xlink" xml:space="preserve" xmlns:serif="http://www.serif.com/" style="fill-rule:evenodd;clip-rule:evenodd;stroke-linejoin:round;stroke-miterlimit:2;">
    <g transform="matrix(1,0,0,1,-3877.07,-3945.82)">
        <g transform="matrix(0.875155,0,0,2.13261,3732.24,3013.56)">
            <g transform="matrix(0.224703,0,0,0.0922108,153.356,433.824)">
                <g>
                    <path d="M414,113.4C414,87.8 401.6,67.6 377.9,67.6C354.1,67.6 339.7,87.8 339.7,113.2C339.7,143.3 356.7,158.5 381.1,158.5C393,158.5 402,155.8 408.8,152L408.8,132C402,135.4 394.2,137.5 384.3,137.5C374.6,137.5 366,134.1 364.9,122.3L413.8,122.3C413.8,121 414,115.8 414,113.4ZM364.6,103.9C364.6,92.6 371.5,87.9 377.8,87.9C383.9,87.9 390.4,92.6 390.4,103.9L364.6,103.9Z" style="fill:white;"/>
                    <path d="M301.1,67.6C291.3,67.6 285,72.2 281.5,75.4L280.2,69.2L258.2,69.2L258.2,185.8L283.2,180.5L283.3,152.2C286.9,154.8 292.2,158.5 301,158.5C318.9,158.5 335.2,144.1 335.2,112.4C335.1,83.4 318.6,67.6 301.1,67.6ZM295.1,136.5C289.2,136.5 285.7,134.4 283.3,131.8L283.2,94.7C285.8,91.8 289.4,89.8 295.1,89.8C304.2,89.8 310.5,100 310.5,113.1C310.5,126.5 304.3,136.5 295.1,136.5Z" style="fill:white;"/>
                    <path d="M223.8,61.7L248.9,56.3L248.9,36L223.8,41.3L223.8,61.7Z" style="fill:white;"/>
                    <rect x="223.8" y="69.3" width="25.1" height="87.5" style="fill:white;"/>
                    <path d="M196.9,76.7L195.3,69.3L173.7,69.3L173.7,156.8L198.7,156.8L198.7,97.5C204.6,89.8 214.6,91.2 217.7,92.3L217.7,69.3C214.5,68.1 202.8,65.9 196.9,76.7Z" style="fill:white;"/>
                    <path d="M146.9,47.6L122.5,52.8L122.4,132.9C122.4,147.7 133.5,158.6 148.3,158.6C156.5,158.6 162.5,157.1 165.8,155.3L165.8,135C162.6,136.3 146.8,140.9 146.8,126.1L146.8,90.6L165.8,90.6L165.8,69.3L146.8,69.3L146.9,47.6Z" style="fill:white;"/>
                    <path d="M79.3,94.7C79.3,90.8 82.5,89.3 87.8,89.3C95.4,89.3 105,91.6 112.6,95.7L112.6,72.2C104.3,68.9 96.1,67.6 87.8,67.6C67.5,67.6 54,78.2 54,95.9C54,123.5 92,119.1 92,131C92,135.6 88,137.1 82.4,137.1C74.1,137.1 63.5,133.7 55.1,129.1L55.1,152.9C64.4,156.9 73.8,158.6 82.4,158.6C103.2,158.6 117.5,148.3 117.5,130.4C117.4,100.6 79.3,105.9 79.3,94.7Z" style="fill:white;"/>
                </g>
            </g>
        </g>
    </g>
</svg>
