<?xml version="1.0" encoding="UTF-8" standalone="no"?><!DOCTYPE svg PUBLIC "-//W3C//DTD SVG 1.1//EN" "http://www.w3.org/Graphics/SVG/1.1/DTD/svg11.dtd"><svg width="100%" height="100%" viewBox="0 0 95 17" version="1.1" xmlns="http://www.w3.org/2000/svg" xmlns:xlink="http://www.w3.org/1999/xlink" xml:space="preserve" xmlns:serif="http://www.serif.com/" style="fill-rule:evenodd;clip-rule:evenodd;stroke-linejoin:round;stroke-miterlimit:2;"><g><circle cx="2.108" cy="8.431" r="2.108" style="fill:#fff;"/><circle cx="8.431" cy="8.431" r="2.108" style="fill:#fff;"/><circle cx="2.108" cy="14.755" r="2.108" style="fill:#fff;fill-opacity:0.2;"/><circle cx="14.755" cy="14.755" r="2.108" style="fill:#fff;fill-opacity:0.2;"/><circle cx="8.431" cy="14.755" r="2.108" style="fill:#fff;"/><circle cx="14.755" cy="8.431" r="2.108" style="fill:#fff;"/><circle cx="2.108" cy="2.108" r="2.108" style="fill:#fff;fill-opacity:0.2;"/><circle cx="8.431" cy="2.108" r="2.108" style="fill:#fff;fill-opacity:0.2;"/><circle cx="14.755" cy="2.108" r="2.108" style="fill:#fff;fill-opacity:0.2;"/><path d="M29.627,15.577c0.596,0 1.081,-0.056 1.659,-0.168l0,-2.163c-0.354,0.131 -0.746,0.168 -1.119,0.168c-0.913,0 -1.249,-0.447 -1.249,-1.305l-0,-4.401l2.368,0l0,-2.163l-2.368,0l-0,-3.207l-2.611,-0l0,3.207l-1.697,0l0,2.163l1.697,0l0,4.643c0,2.052 1.082,3.226 3.32,3.226Zm5.923,0c1.398,0 2.331,-0.466 2.797,-1.193c0.037,0.317 0.149,0.746 0.298,1.007l2.35,-0c-0.131,-0.448 -0.224,-1.156 -0.224,-1.622l-0,-5.11c-0,-2.107 -1.511,-3.3 -4.065,-3.3c-1.94,-0 -3.45,0.727 -4.289,1.79l1.492,1.473c0.671,-0.746 1.529,-1.138 2.573,-1.138c1.268,0 1.827,0.429 1.827,1.063c0,0.541 -0.373,0.914 -2.386,0.914c-1.94,0 -3.898,0.802 -3.898,3.04c0,2.069 1.492,3.076 3.525,3.076Zm0.522,-1.976c-1.007,-0 -1.474,-0.429 -1.474,-1.194c0,-0.671 0.56,-1.119 1.492,-1.119c1.492,0 1.902,-0.093 2.219,-0.41l0,0.802c0,1.063 -0.895,1.921 -2.237,1.921Zm6.396,-9.305l2.722,-0l0,-2.443l-2.722,-0l-0,2.443Zm0.056,11.095l2.61,-0l0,-9.846l-2.61,0l-0,9.846Zm4.512,-0l2.611,-0l-0,-13.24l-2.611,0l0,13.24Zm8.037,0.186c2.872,0 4.345,-1.51 4.345,-3.095c-0,-1.436 -0.727,-2.499 -3.114,-2.928c-1.678,-0.298 -2.723,-0.671 -2.723,-1.249c0,-0.504 0.597,-0.858 1.604,-0.858c0.895,0 1.641,0.299 2.2,0.951l1.66,-1.398c-0.839,-1.045 -2.219,-1.641 -3.86,-1.641c-2.518,-0 -4.084,1.342 -4.084,2.983c0,1.79 1.641,2.592 3.413,2.909c1.473,0.261 2.293,0.541 2.293,1.175c0,0.541 -0.578,0.988 -1.678,0.988c-1.081,0 -1.921,-0.503 -2.312,-1.249l-2.201,1.044c0.541,1.343 2.387,2.368 4.457,2.368Zm10.181,0c1.865,0 3.208,-0.746 4.214,-2.424l-2.088,-1.063c-0.391,0.783 -1.026,1.324 -2.126,1.324c-1.659,0 -2.554,-1.342 -2.554,-2.965c-0,-1.622 0.951,-2.927 2.554,-2.927c1.007,-0 1.679,0.54 2.07,1.361l2.107,-1.119c-0.708,-1.548 -2.107,-2.405 -4.177,-2.405c-3.412,-0 -5.165,2.498 -5.165,5.09c0,2.816 2.126,5.128 5.165,5.128Zm8.373,0c1.398,0 2.331,-0.466 2.797,-1.193c0.037,0.317 0.149,0.746 0.299,1.007l2.349,-0c-0.131,-0.448 -0.224,-1.156 -0.224,-1.622l0,-5.11c0,-2.107 -1.51,-3.3 -4.065,-3.3c-1.939,-0 -3.45,0.727 -4.289,1.79l1.492,1.473c0.671,-0.746 1.529,-1.138 2.573,-1.138c1.268,0 1.828,0.429 1.828,1.063c-0,0.541 -0.373,0.914 -2.387,0.914c-1.939,0 -3.897,0.802 -3.897,3.04c-0,2.069 1.492,3.076 3.524,3.076Zm0.522,-1.976c-1.007,-0 -1.473,-0.429 -1.473,-1.194c-0,-0.671 0.559,-1.119 1.492,-1.119c1.492,0 1.902,-0.093 2.219,-0.41l-0,0.802c-0,1.063 -0.895,1.921 -2.238,1.921Zm6.234,1.79l2.61,-0l0,-13.24l-2.61,0l-0,13.24Zm8.875,0.186c1.921,0 3.469,-0.764 4.327,-2.125l-1.977,-1.268c-0.522,0.82 -1.212,1.268 -2.35,1.268c-1.286,-0 -2.218,-0.709 -2.461,-2.089l7.422,0l-0,-0.914c-0,-2.592 -1.585,-5.09 -4.979,-5.09c-3.226,-0 -4.979,2.517 -4.979,5.109c0,3.692 2.779,5.109 4.997,5.109Zm-2.368,-6.265c0.411,-1.25 1.268,-1.828 2.406,-1.828c1.287,0 2.07,0.765 2.331,1.828l-4.737,-0Z" style="fill:#fff;fill-rule:nonzero;"/></g></svg>