<?xml version="1.0" encoding="UTF-8" standalone="no"?><!DOCTYPE svg PUBLIC "-//W3C//DTD SVG 1.1//EN" "http://www.w3.org/Graphics/SVG/1.1/DTD/svg11.dtd"><svg width="100%" height="100%" viewBox="0 0 86 23" version="1.1" xmlns="http://www.w3.org/2000/svg" xmlns:xlink="http://www.w3.org/1999/xlink" xml:space="preserve" xmlns:serif="http://www.serif.com/" style="fill-rule:evenodd;clip-rule:evenodd;stroke-linejoin:round;stroke-miterlimit:2;"><g><path d="M30.123,8.234l-0,-1.352l5.955,0l-0,1.352l-2.216,-0l0,7.527l-1.54,-0l0,-7.527l-2.199,-0Zm9.836,2.483c-0.188,-0.032 -0.408,-0.063 -0.723,-0.063c-0.99,-0 -1.571,0.644 -1.571,1.948l-0,3.143l-1.461,-0l-0,-6.223l1.43,0l-0,0.88l0.031,0c0.283,-0.534 0.911,-1.084 1.744,-1.084c0.236,0 0.393,0.016 0.55,0.031l0,1.368Zm7.008,5.028l-1.43,-0l0,-0.786l-0.031,0c-0.424,0.534 -1.1,1.022 -2.137,1.022c-1.399,-0 -2.986,-1.116 -2.986,-3.347c0,-1.98 1.399,-3.3 3.096,-3.3c1.037,-0 1.666,0.55 2.043,1.037l0.031,-0l0,-0.849l1.414,0l0,6.223Zm-3.221,-1.053c0.959,0 1.854,-0.833 1.854,-2.027c0,-1.257 -0.817,-2.09 -1.838,-2.09c-1.289,0 -1.902,1.037 -1.902,2.059c0,1.037 0.598,2.058 1.886,2.058Zm4.903,-5.17l1.445,0l0,0.786l0.032,-0c0.487,-0.707 1.21,-0.99 1.901,-0.99c1.289,0 2.42,0.849 2.42,2.844l-0,3.583l-1.461,-0l-0,-3.504c-0,-1.069 -0.503,-1.634 -1.336,-1.634c-0.911,-0 -1.54,0.644 -1.54,1.854l-0,3.3l-1.461,-0l-0,-6.239Zm10.213,1.603c-0.063,-0.456 -0.408,-0.754 -0.832,-0.754c-0.503,-0 -0.786,0.314 -0.786,0.66c-0,0.377 0.188,0.644 1.273,1.005c1.335,0.425 1.807,1.116 1.807,1.996c-0,1.147 -0.865,1.949 -2.294,1.949c-1.493,-0 -2.232,-0.818 -2.342,-1.98l1.352,-0c0.062,0.518 0.377,0.911 1.021,0.911c0.55,0 0.864,-0.346 0.864,-0.77c0,-0.471 -0.267,-0.77 -1.304,-1.116c-1.163,-0.377 -1.76,-0.958 -1.76,-1.932c0,-1.022 0.801,-1.776 2.121,-1.776c1.336,0 2.043,0.786 2.2,1.807l-1.32,0Zm2.734,-4.463l1.619,0l-0,1.478l-1.619,-0l0,-1.478Zm0.079,2.86l1.461,0l0,6.239l-1.461,-0l0,-6.239Zm5.971,1.603c-0.063,-0.456 -0.408,-0.754 -0.833,-0.754c-0.503,-0 -0.785,0.314 -0.785,0.66c-0,0.377 0.188,0.644 1.272,1.005c1.336,0.425 1.807,1.116 1.807,1.996c0,1.147 -0.864,1.949 -2.294,1.949c-1.492,-0 -2.231,-0.818 -2.341,-1.98l1.351,-0c0.063,0.518 0.377,0.911 1.022,0.911c0.55,0 0.864,-0.346 0.864,-0.77c-0,-0.471 -0.267,-0.77 -1.304,-1.116c-1.163,-0.377 -1.76,-0.958 -1.76,-1.932c-0,-1.022 0.801,-1.776 2.121,-1.776c1.336,0 2.043,0.786 2.2,1.807l-1.32,0Zm2.09,-1.603l0.786,0l-0,-1.995l1.461,-0l0,1.995l1.556,0l-0,1.226l-1.572,-0l0,2.781c0,0.849 0.267,1.084 0.865,1.084c0.251,0 0.534,-0.047 0.754,-0.11l-0,1.179c-0.33,0.094 -0.739,0.141 -1.1,0.141c-1.556,0 -1.964,-0.942 -1.964,-2.215l-0,-2.86l-0.786,-0l0,-1.226Zm7.778,-0.204c1.949,0 3.331,1.43 3.331,3.316c0,1.838 -1.398,3.347 -3.331,3.347c-1.901,-0 -3.331,-1.462 -3.331,-3.347c-0,-1.933 1.446,-3.316 3.331,-3.316Zm0,5.358c1.1,0 1.854,-0.88 1.854,-2.042c0,-1.1 -0.707,-2.027 -1.854,-2.027c-1.116,-0 -1.854,0.864 -1.854,2.027c-0,1.194 0.848,2.042 1.854,2.042Zm7.637,-4.022c-0.99,-0 -1.572,0.644 -1.572,1.948l0,3.143l-1.461,-0l0,-6.223l1.43,0l0,0.88l0.031,0c0.283,-0.534 0.912,-1.084 1.745,-1.084c0.235,0 0.393,0.016 0.55,0.031l-0,1.368c-0.189,-0.032 -0.409,-0.063 -0.723,-0.063Z" style="fill:#fff;fill-rule:nonzero;"/><path d="M11.314,18.84c-0.409,0 -0.755,-0.33 -0.755,-0.754l0,-13.545c0,-0.408 0.33,-0.754 0.755,-0.754c0.408,-0 0.754,0.33 0.754,0.754l-0,13.545c-0,0.409 -0.346,0.754 -0.754,0.754Zm-3.143,-6.772l-3.614,-0c-0.409,-0 -0.754,-0.33 -0.754,-0.754c-0,-0.425 0.33,-0.755 0.754,-0.755l3.614,0c0.409,0 0.754,0.33 0.754,0.755c0,0.424 -0.345,0.754 -0.754,0.754Zm9.915,-0l-3.63,-0c-0.408,-0 -0.754,-0.33 -0.754,-0.754c0,-0.425 0.33,-0.755 0.754,-0.755l3.614,0c0.409,0 0.755,0.33 0.755,0.755c-0,0.424 -0.33,0.754 -0.739,0.754Z" style="fill:#fff;fill-rule:nonzero;"/><path d="M11.314,22.627c-6.239,0 -11.314,-5.075 -11.314,-11.313c0,-6.239 5.075,-11.314 11.314,-11.314c6.238,0 11.313,5.075 11.313,11.314c0,6.238 -5.075,11.313 -11.313,11.313Zm-0,-21.119c-5.406,0 -9.806,4.4 -9.806,9.806c0,5.405 4.4,9.805 9.806,9.805c5.405,-0 9.805,-4.4 9.805,-9.805c-0,-5.406 -4.4,-9.806 -9.805,-9.806Z" style="fill:#fff;fill-rule:nonzero;"/></g></svg>