<?xml version="1.0" encoding="UTF-8" standalone="no"?>
<!DOCTYPE svg PUBLIC "-//W3C//DTD SVG 1.1//EN" "http://www.w3.org/Graphics/SVG/1.1/DTD/svg11.dtd">
<svg width="100%" height="100%" viewBox="0 0 144 33" version="1.1" xmlns="http://www.w3.org/2000/svg" xmlns:xlink="http://www.w3.org/1999/xlink" xml:space="preserve" xmlns:serif="http://www.serif.com/" style="fill-rule:evenodd;clip-rule:evenodd;stroke-linejoin:round;stroke-miterlimit:2;">
    <g transform="matrix(1,0,0,1,-3665.85,-3944.91)">
        <g transform="matrix(0.875155,0,0,2.13261,3732.24,3013.56)">
            <g transform="matrix(0.756623,0,0,0.756623,-121.263,330.154)">
                <g>
                    <g>
                        <g transform="matrix(0.602377,0,0,0.247196,55.728,139.111)">
                            <path d="M148.9,69.1L114,69.1L114,62.2L135.2,34.6L114.6,34.6L114.6,25.6L148.4,25.6L148.4,33.8L128.7,60.1L148.9,60.1L148.9,69.1Z" style="fill:white;fill-rule:nonzero;"/>
                        </g>
                        <g transform="matrix(0.602377,0,0,0.247196,55.728,139.111)">
                            <path d="M185.5,55.4L162.3,55.4C163.1,59.3 165.7,61.7 169.1,61.7C171.4,61.7 174.1,61.1 175.8,57.9L184.7,59.8C182,66.7 176.3,70 169.1,70C160,70 152.5,63.1 152.5,52.7C152.5,42.4 160,35.4 169.2,35.4C178.1,35.4 185.3,42 185.5,52.7L185.5,55.4ZM162.5,49.1L175.5,49.1C174.6,45.6 172,44 169.2,44C166.3,44 163.4,45.8 162.5,49.1Z" style="fill:white;fill-rule:nonzero;"/>
                        </g>
                        <g transform="matrix(0.602377,0,0,0.247196,55.728,139.111)">
                            <path d="M213.8,36.3L213.4,46.7L211.6,46.7C204.6,46.7 200.7,50.5 200.7,58.9L200.7,69.1L190.7,69.1L190.7,36.5L200.7,36.5L200.7,42.7C203,38.8 206.4,36 211.6,36C212.4,36 213.1,36.1 213.8,36.3Z" style="fill:white;fill-rule:nonzero;"/>
                        </g>
                        <g transform="matrix(0.602377,0,0,0.247196,55.728,139.111)">
                            <path d="M250.6,52.8C250.6,63.1 242.7,70 233.3,70C223.8,70 215.8,63.1 215.8,52.8C215.8,42.5 223.7,35.7 233.3,35.7C242.7,35.7 250.6,42.5 250.6,52.8ZM240.9,52.8C240.9,47.7 237.2,44.4 233.3,44.4C229.2,44.4 225.5,47.8 225.5,52.8C225.5,57.9 229.2,61.2 233.3,61.2C237.2,61.2 240.9,57.9 240.9,52.8Z" style="fill:white;fill-rule:nonzero;"/>
                        </g>
                        <g transform="matrix(0.602377,0,0,0.247196,55.728,139.111)">
                            <path d="M289.7,37.2L279.5,39.3C278.7,35.2 275.5,33.2 272.2,33.2C268.7,33.2 266.5,35.1 266.5,37.6C266.5,39.4 267.3,40.7 269.9,41.2L278.6,43.2C285.9,44.9 290.2,49 290.2,55.9C290.2,65.2 282.2,70 272.9,70C263.4,70 255.6,65.3 254.5,56.8L265.2,54.7C266.3,59.2 269.3,61.1 273.5,61.1C277.4,61.1 279.7,59.3 279.7,56.6C279.7,54.7 278.8,53.4 275.8,52.8L267,50.9C261,49.5 255.7,46.2 255.7,38.3C255.7,29.9 262.5,24.6 272.3,24.6C281.5,24.6 288.1,29.3 289.7,37.2Z" style="fill:white;fill-rule:nonzero;"/>
                        </g>
                        <g transform="matrix(0.602377,0,0,0.247196,55.728,139.111)">
                            <path d="M329.3,37.2L319.1,39.3C318.3,35.2 315.1,33.2 311.8,33.2C308.3,33.2 306.1,35.1 306.1,37.6C306.1,39.4 306.9,40.7 309.5,41.2L318.2,43.2C325.5,44.9 329.8,49 329.8,55.9C329.8,65.2 321.8,70 312.5,70C303,70 295.2,65.3 294.1,56.8L304.8,54.7C305.9,59.2 308.9,61.1 313.1,61.1C317,61.1 319.3,59.3 319.3,56.6C319.3,54.7 318.4,53.4 315.4,52.8L306.6,50.9C300.6,49.5 295.3,46.2 295.3,38.3C295.3,29.9 302.1,24.6 311.9,24.6C321,24.6 327.7,29.3 329.3,37.2Z" style="fill:white;fill-rule:nonzero;"/>
                        </g>
                        <g transform="matrix(0.602377,0,0,0.247196,55.728,139.111)">
                            <path d="M367,69.1L335.9,69.1L335.9,25.6L346.3,25.6L346.3,59.7L367,59.7L367,69.1Z" style="fill:white;fill-rule:nonzero;"/>
                        </g>
                        <g transform="matrix(0.602377,0,0,0.247196,55.728,139.111)">
                            <rect x="7.1" y="67.7" width="20.3" height="20.3" style="fill:rgb(77,112,213);"/>
                        </g>
                        <g transform="matrix(0.602377,0,0,0.247196,55.728,139.111)">
                            <path d="M67.8,47.4L67.8,27.2L47.6,27.2L47.6,7L27.4,7L27.4,27.2L7.1,27.2L7.1,47.4L27.4,47.4L27.4,67.7L47.6,67.7L47.6,87.9L67.8,87.9L67.8,67.7L88.1,67.7L88.1,47.4L67.8,47.4Z" style="fill:rgb(77,112,213);fill-rule:nonzero;"/>
                        </g>
                    </g>
                </g>
            </g>
        </g>
    </g>
</svg>
