<?xml version="1.0" encoding="UTF-8" standalone="no"?><!DOCTYPE svg PUBLIC "-//W3C//DTD SVG 1.1//EN" "http://www.w3.org/Graphics/SVG/1.1/DTD/svg11.dtd"><svg width="100%" height="100%" viewBox="0 0 152 40" version="1.1" xmlns="http://www.w3.org/2000/svg" xmlns:xlink="http://www.w3.org/1999/xlink" xml:space="preserve" xmlns:serif="http://www.serif.com/" style="fill-rule:evenodd;clip-rule:evenodd;stroke-linejoin:round;stroke-miterlimit:2;"><g><path d="M5.224,3.725c-3.134,0.444 -5.292,3.311 -4.849,6.415l3.371,24.006l14.102,-32.195l-12.624,1.774Z" style="fill:#fff;fill-rule:nonzero;"/><path d="M39.282,23.71l-1.331,-18.448c-0.236,-3.133 -2.956,-5.469 -6.06,-5.262c-0.119,0 -0.266,0.03 -0.385,0.03l-5.439,0.768l11.973,26.874c0.887,-1.094 1.33,-2.513 1.242,-3.962Z" style="fill:#fff;fill-rule:nonzero;"/><path d="M8.86,39.97c0.976,0.119 1.952,-0.029 2.838,-0.413l20.547,-8.692l-9.756,-21.937l-13.629,31.042Z" style="fill:#fff;fill-rule:nonzero;"/><path d="M56.281,7.805l6.474,-0l9.076,24.361l-5.794,-0l-1.715,-4.967l-9.785,-0l-1.715,4.996l-5.647,0l9.106,-24.39Zm-0.296,15.077l6.889,0l-3.341,-9.992l-0.148,-0l-3.4,9.992Z" style="fill:#fff;fill-rule:nonzero;"/><rect x="97.877" y="7.805" width="5.499" height="24.361" style="fill:#fff;fill-rule:nonzero;"/><path d="M107.515,7.805l17.827,-0l0,4.494l-12.328,-0l0,6.829l9.934,-0l-0,4.375l-9.934,0l0,8.633l-5.499,-0l0,-24.331Z" style="fill:#fff;fill-rule:nonzero;"/><path d="M136.606,22.942l-9.135,-15.137l6.238,-0l5.706,10.022l0.147,0l5.972,-10.022l5.854,-0l-9.253,15.077l-0,9.284l-5.529,-0l0,-9.224Z" style="fill:#fff;fill-rule:nonzero;"/><path d="M86.081,7.805l-12.121,-0l0,24.361l5.499,-0l-0,-7.687l6.652,-0c4.612,-0 8.337,-3.725 8.337,-8.337c-0,-4.612 -3.755,-8.337 -8.367,-8.337Zm-0.591,12.387l-6.031,0l-0,-8.1l6.031,-0c2.217,0.029 4.021,1.862 3.991,4.109c-0.059,2.188 -1.833,3.932 -3.991,3.991Z" style="fill:#fff;fill-rule:nonzero;"/></g></svg>