<?xml version="1.0" encoding="UTF-8"?>
<svg width="1909.6" height="285.95" enable-background="new 7.239 25.715 285.55 285.947" version="1.1" viewBox="7.239 25.715 1909.6 285.95" xml:space="preserve" xmlns="http://www.w3.org/2000/svg">
<g transform="translate(-.00049775 .0001523)">
	<path d="m150 25.953c-144.96-0.717-142.96-7.442-142.73 142.73 0.231 150-7.443 143.48 142.73 142.74 150-0.737 142.74 9.763 142.73-142.74-0.731-150 5.945-142-142.73-142.73zm56.097 201.84h-112.19c-9.075 0-16.704-7.629-16.704-16.704 0-9.081 7.629-16.686 16.704-16.686h112.19c9.075 0 16.704 7.605 16.704 16.686 3e-3 9.075-7.626 16.704-16.704 16.704zm19.056-91.71c-4.71 14.517-18.879 29.043-44.649 29.043-25.062 0-43.212-21.432-61.011-21.432-7.983 0-10.878 4.365-13.425 9.093-2.187 4.347-7.275 9.432-15.255 9.432-9.444 0-17.061-7.626-17.061-17.058 0-2.544 0.357-4.359 1.08-6.534 4.713-14.532 18.876-29.049 44.658-29.049 25.059 0 44.676 21.051 61.011 21.051 7.974 0 10.887-3.99 13.425-8.706 2.181-4.362 7.266-9.444 15.246-9.444 9.45 0 17.073 7.626 17.073 17.073 3e-3 2.526-0.372 4.344-1.092 6.531z" fill="#fb5168"/>
</g>

<path d="m347.64 242.94q-1.5467 0-2.9-1.16-1.16-1.3533-1.16-2.9 0-0.96666 0.19333-1.74l45.433-124.12q0.58-2.1267 2.32-3.6733 1.9333-1.74 5.22-1.74h28.613q3.2867 0 5.0266 1.74 1.9333 1.5467 2.5133 3.6733l45.24 124.12q0.38667 0.77333 0.38667 1.74 0 1.5467-1.3533 2.9-1.16 1.16-2.9 1.16h-23.78q-2.9 0-4.4467-1.3533-1.3533-1.5467-1.74-2.7067l-7.54-19.72h-51.62l-7.3466 19.72q-0.38667 1.16-1.74 2.7067-1.3533 1.3533-4.64 1.3533zm45.433-51.62h35.96l-17.98-51.04zm110.56 51.62q-2.1267 0-3.48-1.3533-1.3533-1.5467-1.3533-3.48v-125.67q0-2.1267 1.3533-3.48t3.48-1.3533h54.133q16.047 0 27.84 5.0267 11.987 4.8333 18.56 14.693 6.7666 9.86 6.7666 24.94 0 14.887-6.7666 24.553-6.5733 9.6666-18.56 14.307-11.793 4.64-27.84 4.64h-23.007v42.34q0 1.9333-1.5467 3.48-1.3533 1.3533-3.48 1.3533zm30.547-73.853h22.62q8.3133 0 13.147-4.2533 5.0267-4.2533 5.0267-12.953 0-7.3467-4.2533-12.373-4.2533-5.0267-13.92-5.0267h-22.62zm105.15 73.853q-2.1267 0-3.48-1.3533-1.3533-1.5467-1.3533-3.48v-125.67q0-2.1267 1.3533-3.48t3.48-1.3533h54.133q16.047 0 27.84 5.0267 11.987 4.8333 18.56 14.693 6.7667 9.86 6.7667 24.94 0 14.887-6.7667 24.553-6.5733 9.6666-18.56 14.307-11.793 4.64-27.84 4.64h-23.007v42.34q0 1.9333-1.5467 3.48-1.3533 1.3533-3.48 1.3533zm30.547-73.853h22.62q8.3133 0 13.147-4.2533 5.0267-4.2533 5.0267-12.953 0-7.3467-4.2533-12.373-4.2533-5.0267-13.92-5.0267h-22.62zm105.15 73.853q-2.1267 0-3.48-1.3533-1.3533-1.5467-1.3533-3.48v-125.67q0-2.1267 1.3533-3.48t3.48-1.3533h52.587q25.133 0 39.44 11.6 14.307 11.407 14.307 32.48 0 13.727-6.5733 23.2-6.5733 9.4733-17.4 14.307l26.487 47.56q0.58 1.16 0.58 2.1267 0 1.5467-1.3533 2.9-1.16 1.16-2.7067 1.16h-25.713q-3.6733 0-5.4133-1.74-1.74-1.9333-2.5133-3.48l-22.04-42.533h-19.72v42.92q0 1.9333-1.5467 3.48-1.3533 1.3533-3.48 1.3533zm29.967-75.207h22.233q9.0866 0 13.533-4.4467 4.64-4.4466 4.64-11.987t-4.4467-12.18q-4.2533-4.64-13.727-4.64h-22.233zm158.51 77.14q-17.787 0-30.933-5.8-13.147-5.8-20.493-17.4-7.3467-11.793-8.12-29.387-0.19333-8.3133-0.19333-16.627 0-8.5067 0.19333-16.82 0.77333-17.4 8.12-29.193 7.54-11.987 20.687-17.98 13.34-5.9933 30.74-5.9933 17.593 0 30.74 5.9933 13.147 5.9933 20.687 17.98 7.54 11.793 8.12 29.193 0.3867 8.3133 0.3867 16.82 0 8.3133-0.3867 16.627-0.58 17.593-8.12 29.387-7.3466 11.6-20.493 17.4-13.147 5.8-30.933 5.8zm0-27.84q10.247 0 16.627-6.1867 6.5733-6.1867 6.96-19.72 0.38667-8.5067 0.38667-16.047 0-7.54-0.38667-15.66-0.38667-9.0866-3.48-14.693-2.9-5.8-8.12-8.5066-5.22-2.7067-11.987-2.7067-6.5733 0-11.793 2.7067-5.22 2.7067-8.3133 8.5066-3.0933 5.6066-3.48 14.693-0.19333 8.12-0.19333 15.66 0 7.54 0.19333 16.047 0.58 13.533 6.96 19.72 6.5733 6.1867 16.627 6.1867zm74.213 25.907q-1.74 0-3.0933-1.16-1.16-1.3533-1.16-2.9 0-0.57999 0.1933-1.16t0.58-1.16l42.147-62.64-39.053-59.933q-0.58-1.16-0.58-2.32 0-1.5467 1.16-2.7067 1.16-1.3533 2.9-1.3533h28.033q2.9 0 4.4467 1.5467 1.5466 1.3533 2.32 2.5133l23.007 34.993 23.393-34.993q0.7733-1.16 2.32-2.5133 1.5467-1.5467 4.4466-1.5467h26.68q1.5467 0 2.7067 1.3533 1.3533 1.16 1.3533 2.7067 0 1.3533-0.7733 2.32l-39.247 59.74 42.533 62.833q0.3867 0.58 0.3867 1.16 0.1933 0.58 0.1933 1.16 0 1.5467-1.16 2.9-1.16 1.16-2.9 1.16h-28.807q-2.9 0-4.64-1.3533-1.5466-1.5467-2.1266-2.5133l-25.52-37.12-25.327 37.12q-0.58 0.96666-2.1267 2.5133-1.5466 1.3533-4.4466 1.3533zm150.39 0q-2.1267 0-3.48-1.3533-1.3534-1.5467-1.3534-3.48v-125.67q0-2.1267 1.3534-3.48 1.3533-1.3533 3.48-1.3533h25.907q2.1266 0 3.48 1.3533 1.5466 1.3533 1.5466 3.48v125.67q0 1.9333-1.5466 3.48-1.3534 1.3533-3.48 1.3533zm67.64 0q-1.9333 0-3.48-1.3533-1.3533-1.5467-1.3533-3.48v-125.67q0-2.1267 1.3533-3.48 1.5467-1.3533 3.48-1.3533h20.88q3.2866 0 4.8333 1.74 1.5467 1.5467 1.9333 2.5133l34.027 60.9 34.027-60.9q0.58-0.96667 1.9333-2.5133 1.5467-1.74 4.8333-1.74h20.687q2.1267 0 3.48 1.3533 1.5467 1.3533 1.5467 3.48v125.67q0 1.9333-1.5467 3.48-1.3533 1.3533-3.48 1.3533h-23.007q-2.1266 0-3.6733-1.3533-1.3533-1.5467-1.3533-3.48v-72.5l-21.653 40.407q-0.9667 1.74-2.5134 3.0933-1.5466 1.3533-4.2533 1.3533h-10.053q-2.7067 0-4.2533-1.3533-1.5467-1.3533-2.5134-3.0933l-21.847-40.407v72.5q0 1.9333-1.3533 3.48-1.3534 1.3533-3.48 1.3533zm152.51 0q-1.5467 0-2.9-1.16-1.16-1.3533-1.16-2.9 0-0.96666 0.1933-1.74l45.433-124.12q0.58-2.1267 2.32-3.6733 1.9333-1.74 5.22-1.74h28.613q3.2866 0 5.0266 1.74 1.9334 1.5467 2.5134 3.6733l45.24 124.12q0.3866 0.77333 0.3866 1.74 0 1.5467-1.3533 2.9-1.16 1.16-2.9 1.16h-23.78q-2.9 0-4.4467-1.3533-1.3533-1.5467-1.74-2.7067l-7.54-19.72h-51.62l-7.3466 19.72q-0.3867 1.16-1.74 2.7067-1.3534 1.3533-4.64 1.3533zm45.433-51.62h35.96l-17.98-51.04zm126.61 51.62q-2.1267 0-3.48-1.3533-1.3534-1.5467-1.3534-3.48v-100.15h-34.413q-2.1267 0-3.48-1.3533-1.3534-1.5467-1.3534-3.48v-20.687q0-2.1267 1.3534-3.48 1.3533-1.3533 3.48-1.3533h104.01q2.1267 0 3.48 1.3533t1.3533 3.48v20.687q0 1.9333-1.3533 3.48-1.3533 1.3533-3.48 1.3533h-34.413v100.15q0 1.9333-1.3533 3.48-1.3533 1.3533-3.48 1.3533zm97.026 0q-2.1267 0-3.48-1.3533-1.3534-1.5467-1.3534-3.48v-125.67q0-2.1267 1.3534-3.48 1.3533-1.3533 3.48-1.3533h90.286q2.1266 0 3.48 1.3533 1.3533 1.3533 1.3533 3.48v18.173q0 2.1267-1.3533 3.48-1.3534 1.3533-3.48 1.3533h-61.673v26.1h57.42q2.1267 0 3.48 1.5467 1.3534 1.3533 1.3534 3.48v16.82q0 1.9333-1.3534 3.48-1.3533 1.3533-3.48 1.3533h-57.42v26.873h63.22q2.1267 0 3.48 1.3533 1.3534 1.3533 1.3534 3.48v18.173q0 1.9333-1.3534 3.48-1.3533 1.3533-3.48 1.3533zm128.54 0q-2.1267 0-3.48-1.3533-1.3534-1.5467-1.3534-3.48v-125.67q0-2.1267 1.3534-3.48 1.3533-1.3533 3.48-1.3533h50.266q18.947 0 32.287 6.1867 13.34 5.9933 20.493 17.787 7.1534 11.6 7.7334 28.807 0.1933 8.5066 0.1933 14.887t-0.1933 14.693q-0.7734 17.98-7.7334 29.773-6.7666 11.793-19.913 17.593-12.953 5.6067-31.9 5.6067zm29.967-27.84h20.3q8.3134 0 13.727-2.5133 5.6066-2.7067 8.3133-8.3133 2.9-5.6067 3.0933-14.693 0.3867-5.6067 0.3867-10.053 0.1933-4.4467 0-8.8933 0-4.4467-0.3867-9.86-0.3866-13.147-6.96-19.14-6.3799-6.1867-19.14-6.1867h-19.333z" fill="#fff" aria-label="APPROXIMATED"/></svg>
