<?xml version="1.0" encoding="UTF-8" standalone="no"?><!DOCTYPE svg PUBLIC "-//W3C//DTD SVG 1.1//EN" "http://www.w3.org/Graphics/SVG/1.1/DTD/svg11.dtd"><svg width="100%" height="100%" viewBox="0 0 72 19" version="1.1" xmlns="http://www.w3.org/2000/svg" xmlns:xlink="http://www.w3.org/1999/xlink" xml:space="preserve" xmlns:serif="http://www.serif.com/" style="fill-rule:evenodd;clip-rule:evenodd;stroke-miterlimit:5;"><g><g><g><clipPath id="_clip1"><path d="M44.009,5.61l2.179,7.149l0.099,0l2.189,-7.149l2.384,0.015l-3.799,10.596c-0.178,0.495 -0.412,0.921 -0.703,1.278c-0.291,0.358 -0.648,0.631 -1.07,0.822c-0.423,0.191 -0.925,0.286 -1.506,0.286c-0.304,-0 -0.585,-0.024 -0.842,-0.071c-0.257,-0.047 -0.462,-0.102 -0.613,-0.166l0.518,-1.735c0.486,0.14 0.894,0.164 1.224,0.072c0.33,-0.093 0.601,-0.399 0.812,-0.92l0.193,-0.513l-3.432,-9.664l2.367,-0Zm22.481,-0.124c0.924,0 1.725,0.204 2.403,0.612c0.679,0.407 1.204,0.979 1.576,1.713c0.372,0.735 0.557,1.592 0.557,2.572c0,0.974 -0.185,1.828 -0.557,2.56c-0.372,0.732 -0.897,1.302 -1.576,1.71c-0.678,0.407 -1.479,0.611 -2.403,0.611c-0.923,0 -1.724,-0.204 -2.403,-0.611c-0.678,-0.408 -1.203,-0.978 -1.575,-1.71c-0.372,-0.732 -0.558,-1.586 -0.558,-2.56c-0,-0.98 0.186,-1.837 0.558,-2.572c0.372,-0.734 0.897,-1.306 1.575,-1.713c0.679,-0.408 1.48,-0.612 2.403,-0.612Zm-10.339,0c0.581,0 1.132,0.094 1.653,0.281c0.52,0.188 0.98,0.476 1.381,0.865c0.401,0.389 0.717,0.885 0.946,1.487c0.229,0.603 0.344,1.319 0.344,2.15l-0,0.686l-6.591,-0.001l0.002,0.122c0.02,0.474 0.119,0.885 0.297,1.234c0.2,0.392 0.481,0.693 0.842,0.901c0.362,0.208 0.786,0.312 1.273,0.312c0.323,0 0.617,-0.045 0.881,-0.137c0.264,-0.092 0.492,-0.228 0.684,-0.411c0.191,-0.182 0.337,-0.406 0.437,-0.674l2.086,0.236c-0.131,0.549 -0.382,1.028 -0.751,1.437c-0.369,0.409 -0.838,0.726 -1.409,0.952c-0.57,0.225 -1.222,0.338 -1.957,0.338c-0.952,0 -1.771,-0.199 -2.459,-0.597c-0.687,-0.398 -1.216,-0.962 -1.586,-1.692c-0.37,-0.729 -0.555,-1.588 -0.555,-2.578c-0,-0.973 0.185,-1.828 0.556,-2.565c0.371,-0.738 0.892,-1.313 1.563,-1.726c0.671,-0.413 1.459,-0.62 2.363,-0.62Zm-16.338,-0.014c0.123,-0 0.262,0.005 0.416,0.017c0.155,0.011 0.284,0.028 0.387,0.049l0,2.049c-0.097,-0.03 -0.247,-0.059 -0.45,-0.087c-0.204,-0.028 -0.399,-0.041 -0.585,-0.041c-0.409,-0 -0.775,0.087 -1.097,0.262c-0.321,0.174 -0.575,0.416 -0.76,0.724c-0.185,0.309 -0.278,0.664 -0.278,1.065l-0,5.567l-2.234,-0l0,-9.467l2.165,-0l-0,1.578l0.099,-0c0.172,-0.548 0.469,-0.971 0.891,-1.269c0.421,-0.298 0.903,-0.447 1.446,-0.447Zm-10.616,-3.018l4.447,12.623l-2.441,-0l-1.044,-3.112l-4.745,0l-1.044,3.112l-2.441,-0l4.447,-12.623l2.821,0Zm37.303,4.803c-0.511,-0 -0.936,0.139 -1.274,0.419c-0.339,0.279 -0.592,0.654 -0.759,1.124c-0.166,0.47 -0.25,0.994 -0.25,1.573c0,0.577 0.084,1.099 0.25,1.568c0.167,0.468 0.42,0.841 0.759,1.118c0.338,0.277 0.763,0.415 1.274,0.415c0.505,0 0.925,-0.138 1.26,-0.415c0.335,-0.277 0.586,-0.65 0.753,-1.118c0.167,-0.469 0.25,-0.991 0.25,-1.568c0,-0.579 -0.083,-1.103 -0.25,-1.573c-0.167,-0.47 -0.418,-0.845 -0.753,-1.124c-0.335,-0.28 -0.755,-0.419 -1.26,-0.419Zm-38.664,-2.214l-0.099,-0l-1.706,5.083l3.511,0l-1.706,-5.083Zm28.344,2.184c-0.458,-0 -0.859,0.109 -1.204,0.327c-0.344,0.218 -0.612,0.505 -0.803,0.861c-0.143,0.267 -0.233,0.553 -0.271,0.858l-0.015,0.178l4.448,-0c-0.002,-0.429 -0.093,-0.811 -0.273,-1.145c-0.181,-0.335 -0.432,-0.598 -0.755,-0.791c-0.322,-0.192 -0.698,-0.288 -1.127,-0.288Z"/></clipPath><g clip-path="url(#_clip1)"><rect x="21.929" y="2.454" width="49.098" height="16.153" style="fill:#fff;fill-rule:nonzero;"/></g></g></g><g><g><clipPath id="_clip2"><path d="M16.202,0.131c0.532,0 0.964,0.432 0.964,0.964l-0,15.107c-0,0.532 -0.432,0.964 -0.964,0.964l-15.107,-0c-0.532,-0 -0.964,-0.432 -0.964,-0.964l0,-15.107c0,-0.532 0.432,-0.964 0.964,-0.964l15.107,0Z"/></clipPath><g clip-path="url(#_clip2)"><rect x="0.131" y="0.131" width="17.035" height="17.035" style="fill:url(#_Linear3);fill-rule:nonzero;"/></g></g><g><clipPath id="_clip4"><path d="M16.202,0.131c0.532,0 0.964,0.432 0.964,0.964l-0,15.107c-0,0.532 -0.432,0.964 -0.964,0.964l-15.107,-0c-0.532,-0 -0.964,-0.432 -0.964,-0.964l0,-15.107c0,-0.532 0.432,-0.964 0.964,-0.964l15.107,0Z"/></clipPath><g clip-path="url(#_clip4)"><path d="M1.095,0.131l15.107,0c0.532,0 0.964,0.432 0.964,0.964l-0,15.107c-0,0.532 -0.432,0.964 -0.964,0.964l-15.107,-0c-0.532,-0 -0.964,-0.432 -0.964,-0.964l0,-15.107c0,-0.532 0.432,-0.964 0.964,-0.964Z" style="fill:none;fill-rule:nonzero;stroke:#392fd0;stroke-width:0.05px;"/></g></g><g><g><clipPath id="_clip5"><path d="M8.648,3.988l4.018,3.107l0,6.022l-4.018,-3.022l-4.017,3.053l-0,-6.022l4.017,-3.138Zm0,1.928l-2.41,1.913l-0,2.457l2.41,-1.959l2.411,1.928l0,-2.456l-2.411,-1.883Z"/></clipPath><g clip-path="url(#_clip5)"><rect x="4.631" y="3.988" width="8.035" height="9.16" style="fill:#fff;fill-rule:nonzero;"/></g></g></g></g></g><defs><linearGradient id="_Linear3" x1="0" y1="0" x2="1" y2="0" gradientUnits="userSpaceOnUse" gradientTransform="matrix(1.04307e-15,17.0347,-17.0347,1.04307e-15,8.64845,0.13111)"><stop offset="0" style="stop-color:#5e5ef5;stop-opacity:1"/><stop offset="1" style="stop-color:#5147d0;stop-opacity:1"/></linearGradient></defs></svg>