<?xml version="1.0" encoding="UTF-8" standalone="no"?>
<svg xmlns="http://www.w3.org/2000/svg" width="120" height="40" viewBox="0 0 120 40" version="1.1">
  <g style="fill:#FFF">
    <path d="m 16.32,29.888 q -1.664,0 -2.88,-0.448 -1.216,-0.448 -2.24,-1.376 l -0.192,1.504 H 8 V 8 h 3.488 v 7.392 q 1.984,-1.312 4.768,-1.312 3.232,0 5.088,1.856 1.888,1.824 1.888,5.92 0,4.128 -1.856,6.08 -1.856,1.952 -5.056,1.952 z m -0.928,-2.624 q 2.368,0 3.328,-1.344 0.992,-1.344 0.992,-4.064 0,-2.816 -1.056,-3.968 -1.056,-1.152 -3.328,-1.152 -2.368,0 -3.84,1.312 v 7.616 q 1.504,1.6 3.904,1.6 z"/>
    <path d="m 34.303962,29.888 q -3.968,0 -6.144,-1.952 -2.176,-1.952 -2.176,-5.984 0,-3.648 1.856,-5.76 1.856,-2.112 5.632,-2.112 3.456,0 5.184,1.824 1.76,1.792 1.76,4.64 v 2.816 h -11.104 q 0.256,2.208 1.6,3.04 1.344,0.832 4.096,0.832 1.152,0 2.368,-0.224 1.216,-0.224 2.112,-0.576 v 2.56 q -1.024,0.448 -2.368,0.672 -1.312,0.224 -2.816,0.224 z m -4.992,-8.8 h 8.032 v -1.056 q 0,-1.568 -0.864,-2.432 -0.864,-0.896 -2.912,-0.896 -2.432,0 -3.36,1.056 -0.896,1.056 -0.896,3.328 z"/>
    <path d="m 48.703888,29.888 q -1.568,0 -3.008,-0.224 -1.408,-0.224 -2.336,-0.544 v -2.944 q 1.088,0.416 2.4,0.64 1.312,0.224 2.496,0.224 1.792,0 2.56,-0.32 0.768,-0.32 0.768,-1.248 0,-0.672 -0.48,-1.056 -0.448,-0.384 -1.376,-0.704 -0.896,-0.32 -2.304,-0.768 -1.344,-0.448 -2.336,-0.96 -0.992,-0.544 -1.536,-1.376 -0.544,-0.832 -0.544,-2.176 0,-2.08 1.504,-3.2 1.504,-1.152 4.832,-1.152 1.312,0 2.496,0.192 1.184,0.192 2.016,0.48 v 2.912 q -0.896,-0.352 -1.984,-0.544 -1.056,-0.192 -1.984,-0.192 -1.664,0 -2.528,0.288 -0.832,0.288 -0.832,1.152 0,0.896 0.864,1.28 0.896,0.352 2.848,0.992 1.792,0.544 2.848,1.152 1.056,0.608 1.504,1.472 0.48,0.832 0.48,2.176 0,2.24 -1.632,3.36 -1.632,1.088 -4.736,1.088 z"/>
    <path d="m 63.807808,29.888 q -2.432,0 -3.648,-1.28 -1.184,-1.312 -1.184,-3.552 V 17.12 h -2.24 V 14.4 h 2.24 v -3.488 l 3.456,-1.056 V 14.4 h 4.032 l -0.224,2.72 h -3.808 v 7.744 q 0,1.312 0.608,1.856 0.608,0.512 1.984,0.512 0.864,0 1.824,-0.32 v 2.464 q -1.248,0.512 -3.04,0.512 z"/>
  </g>
  <g style="fill:#FFF">
    <path d="M 69.503784,29.568 V 8 h 3.488 v 12.48 l 6.368,-6.08 h 4 l -6.176,6.112 6.528,9.056 h -3.68 l -5.024,-7.2 -2.016,1.92 v 5.28 z"/>
    <path d="M 86.687744,29.568 V 14.4 h 3.2 l 0.192,1.76 q 1.088,-0.704 2.592,-1.28 1.504,-0.576 2.976,-0.8 v 2.656 q -0.896,0.16 -1.952,0.48 -1.024,0.288 -1.952,0.672 -0.928,0.352 -1.568,0.736 v 10.944 z"/>
    <path d="m 103.64772,29.888 q -2.72,0 -4.192,-1.504 -1.44,-1.504 -1.44,-4.416 V 14.4 h 3.488 v 9.568 q 0,1.696 0.832,2.496 0.832,0.8 2.56,0.8 1.28,0 2.368,-0.48 1.088,-0.48 1.888,-1.28 V 14.4 h 3.456 v 15.168 h -3.168 l -0.16,-1.568 q -1.024,0.8 -2.432,1.344 -1.408,0.544 -3.2,0.544 z"/>
  </g>
</svg>