<svg width="1451" height="310" viewBox="0 0 1451 310" fill="none" xmlns="http://www.w3.org/2000/svg">
<path d="M379.696 236.81H446.243C484.998 236.81 509.475 217.569 509.475 187.948C509.475 165.922 499.786 150.226 470.72 143.39C492.647 135.289 499.531 123.137 499.531 106.175C499.531 78.5793 478.624 59.5917 439.869 59.5917H379.696V236.81ZM415.392 204.91V161.619H442.928C462.306 161.619 473.269 169.467 473.269 182.378C473.269 197.822 462.306 204.91 442.928 204.91H415.392ZM415.392 132.757V91.2377H436.554C455.932 91.2377 463.326 99.5923 463.326 111.744C463.326 125.922 455.932 132.757 436.554 132.757H415.392ZM537.068 289.722C568.174 289.722 584.747 271.747 595.965 245.164L654.608 105.162H613.813L588.061 180.353C585.766 186.682 583.727 194.53 582.452 201.366C581.177 194.53 579.137 186.682 576.843 180.353L551.091 105.162H509.531L562.054 230.734L560.27 236.303C556.445 247.949 548.031 256.304 534.773 256.304C529.164 256.304 524.319 255.797 519.22 254.531L514.121 287.19C521.005 289.215 530.184 289.722 537.068 289.722Z" fill="white"/>
<path d="M722.172 237.022H741.011V206.695H726.755C720.135 206.695 716.062 202.904 716.062 194.564V134.668H744.066V105.605H716.062V75.5305L681.694 79.0686V105.605H663.11V134.668H681.694V196.333C681.694 224.891 695.951 237.022 722.172 237.022ZM815.464 240.307C841.686 240.307 863.834 228.682 874.527 212.255L847.796 192.29C841.686 202.399 830.23 209.98 815.464 209.98C798.153 209.98 786.442 199.113 782.624 183.697H881.655C882.419 179.401 882.673 175.357 882.673 171.566C882.673 133.657 855.179 102.319 815.464 102.319C775.75 102.319 746.983 133.657 746.983 171.566C746.983 209.475 774.477 240.307 815.464 240.307ZM782.624 158.172C786.442 142.503 798.662 131.635 814.955 131.635C831.757 131.635 844.232 143.514 848.05 158.172H782.624ZM973.88 240.307C1010.28 240.307 1039.31 209.728 1039.31 171.819C1039.31 133.91 1010.28 102.825 973.88 102.825C951.222 102.825 939.257 111.923 932.129 125.823V52.5325H897.761V237.022H931.11V215.54C938.239 230.451 950.204 240.307 973.88 240.307ZM931.11 171.819C931.11 151.348 945.621 133.657 968.279 133.657C990.173 133.657 1004.94 151.095 1004.94 171.566C1004.94 191.531 990.173 209.475 968.279 209.475C945.621 209.475 931.11 192.29 931.11 171.819ZM1113.73 240.307C1137.4 240.307 1149.37 230.451 1156.5 215.54V237.022H1189.85V105.605H1155.73V126.328C1148.6 112.176 1136.64 102.825 1113.73 102.825C1077.32 102.825 1048.3 133.91 1048.3 171.819C1048.3 209.728 1077.32 240.307 1113.73 240.307ZM1082.67 171.566C1082.67 151.095 1097.43 133.657 1119.33 133.657C1141.99 133.657 1156.5 151.348 1156.5 171.819C1156.5 192.29 1141.99 209.475 1119.33 209.475C1097.43 209.475 1082.67 191.531 1082.67 171.566ZM1255.58 240.307C1284.86 240.307 1307 222.111 1307 197.849C1307 178.137 1298.09 163.984 1259.65 154.128C1243.87 150.084 1241.83 146.041 1241.83 141.492C1241.83 133.405 1248.96 129.866 1258.38 129.866C1267.29 129.866 1275.44 133.91 1281.8 144.019L1306.75 125.065C1293.26 107.627 1279 102.319 1257.62 102.319C1226.56 102.319 1208.23 119.505 1208.23 142.503C1208.23 159.183 1213.57 175.104 1248.96 183.444C1269.84 188.246 1273.15 192.037 1273.15 198.86C1273.15 206.695 1266.53 212.508 1254.82 212.508C1243.61 212.508 1233.43 207.2 1223.76 196.333L1200.59 217.309C1215.1 232.726 1233.18 240.307 1255.58 240.307ZM1383.79 240.307C1410.01 240.307 1432.16 228.682 1442.85 212.255L1416.12 192.29C1410.01 202.399 1398.56 209.98 1383.79 209.98C1366.48 209.98 1354.77 199.113 1350.95 183.697H1449.98C1450.75 179.401 1451 175.357 1451 171.566C1451 133.657 1423.51 102.319 1383.79 102.319C1344.08 102.319 1315.31 133.657 1315.31 171.566C1315.31 209.475 1342.8 240.307 1383.79 240.307ZM1350.95 158.172C1354.77 142.503 1366.99 131.635 1383.28 131.635C1400.08 131.635 1412.56 143.514 1416.38 158.172H1350.95Z" fill="white"/>
<path fill-rule="evenodd" clip-rule="evenodd" d="M16.6315 224.766C32.3427 255.855 58.0907 280.763 89.7262 295.479L122.032 226.379C120.704 226.489 119.349 226.544 117.966 226.544C102.384 226.544 90.1181 221.584 81.1669 211.664C72.3815 201.744 67.9889 187.442 67.9889 168.759V91.1349H244.525V165.535C244.525 184.879 239.967 199.428 230.85 209.181C221.899 219.104 210.296 224.064 196.04 224.064C195.271 224.064 194.51 224.048 193.758 224.016L230.743 290.566C261.271 273.687 285.214 247.046 298.713 214.94C312.212 182.832 314.482 147.127 305.151 113.578C295.824 80.0281 275.443 50.588 247.294 30.001C219.142 9.41419 184.863 -1.12062 149.979 0.0944799C115.094 1.30958 81.6348 14.2037 54.9932 36.6988C28.3517 59.1942 10.0791 89.9809 3.11993 124.098C-3.83925 158.215 0.920237 193.675 16.6315 224.766ZM173.662 126.351H211.953V165.287C211.953 172.727 210.129 178.266 206.483 181.904C203.002 185.706 198.443 187.606 192.808 187.606C186.509 187.606 181.702 185.624 178.386 181.655C175.237 177.853 173.662 172.396 173.662 165.287V126.351ZM100.561 126.351H140.841V167.767C140.841 175.206 139.018 180.746 135.371 184.384C131.724 188.186 126.834 190.086 120.701 190.086C114.236 190.086 109.264 188.186 105.783 184.384C102.302 180.746 100.561 175.206 100.561 167.767V126.351Z" fill="white"/>
</svg>
