<?xml version="1.0" encoding="UTF-8" standalone="no"?><!DOCTYPE svg PUBLIC "-//W3C//DTD SVG 1.1//EN" "http://www.w3.org/Graphics/SVG/1.1/DTD/svg11.dtd"><svg width="100%" height="100%" viewBox="0 0 65 20" version="1.1" xmlns="http://www.w3.org/2000/svg" xmlns:xlink="http://www.w3.org/1999/xlink" xml:space="preserve" xmlns:serif="http://www.serif.com/" style="fill-rule:evenodd;clip-rule:evenodd;stroke-linejoin:round;stroke-miterlimit:2;"><g><g><path d="M12.023,4.86l-2.857,0c-0.052,-0.37 -0.159,-0.698 -0.32,-0.985c-0.161,-0.291 -0.367,-0.539 -0.62,-0.744c-0.252,-0.204 -0.543,-0.361 -0.874,-0.469c-0.326,-0.109 -0.68,-0.163 -1.063,-0.163c-0.692,-0 -1.294,0.171 -1.807,0.515c-0.513,0.339 -0.911,0.835 -1.194,1.487c-0.283,0.648 -0.424,1.435 -0.424,2.362c-0,0.952 0.141,1.753 0.424,2.401c0.287,0.648 0.687,1.137 1.2,1.467c0.513,0.331 1.107,0.496 1.781,0.496c0.379,0 0.729,-0.05 1.05,-0.15c0.327,-0.1 0.616,-0.246 0.868,-0.437c0.252,-0.196 0.461,-0.433 0.626,-0.711c0.17,-0.278 0.287,-0.596 0.353,-0.953l2.857,0.014c-0.074,0.613 -0.259,1.204 -0.554,1.774c-0.292,0.565 -0.685,1.072 -1.181,1.52c-0.492,0.444 -1.079,0.796 -1.762,1.057c-0.678,0.256 -1.446,0.385 -2.302,0.385c-1.192,-0 -2.258,-0.27 -3.197,-0.809c-0.935,-0.54 -1.674,-1.32 -2.218,-2.342c-0.539,-1.022 -0.809,-2.26 -0.809,-3.712c-0,-1.457 0.274,-2.697 0.822,-3.719c0.548,-1.022 1.292,-1.8 2.231,-2.335c0.939,-0.539 1.996,-0.809 3.171,-0.809c0.774,-0 1.491,0.109 2.152,0.326c0.666,0.218 1.255,0.535 1.768,0.953c0.513,0.413 0.931,0.919 1.253,1.52c0.326,0.6 0.535,1.287 0.626,2.061Z" style="fill:#fff;fill-rule:nonzero;"/><path d="M15.49,7.75l-0,5.793l-2.78,0l0,-13.36l2.701,-0l0,5.108l0.118,-0c0.226,-0.592 0.591,-1.055 1.096,-1.39c0.504,-0.339 1.137,-0.509 1.898,-0.509c0.696,0 1.303,0.153 1.82,0.457c0.522,0.3 0.927,0.733 1.214,1.298c0.291,0.561 0.434,1.233 0.43,2.016l0,6.38l-2.779,0l0,-5.884c0.004,-0.618 -0.152,-1.098 -0.47,-1.442c-0.313,-0.344 -0.752,-0.515 -1.317,-0.515c-0.379,-0 -0.714,0.08 -1.005,0.241c-0.287,0.161 -0.513,0.396 -0.679,0.705c-0.16,0.304 -0.243,0.671 -0.247,1.102Z" style="fill:#fff;fill-rule:nonzero;"/><path d="M27.455,13.739c-1.031,-0 -1.918,-0.209 -2.662,-0.627c-0.739,-0.421 -1.309,-1.017 -1.709,-1.787c-0.4,-0.774 -0.6,-1.69 -0.6,-2.746c-0,-1.031 0.2,-1.936 0.6,-2.714c0.4,-0.779 0.963,-1.385 1.69,-1.82c0.73,-0.435 1.587,-0.653 2.57,-0.653c0.661,0 1.276,0.107 1.846,0.32c0.574,0.209 1.074,0.524 1.5,0.946c0.431,0.422 0.766,0.952 1.005,1.592c0.239,0.635 0.359,1.378 0.359,2.231l-0,0.763l-8.461,-0l-0,-1.722l5.845,-0c-0,-0.4 -0.087,-0.755 -0.261,-1.064c-0.174,-0.308 -0.415,-0.55 -0.724,-0.724c-0.305,-0.178 -0.659,-0.267 -1.063,-0.267c-0.422,-0 -0.796,0.098 -1.123,0.293c-0.321,0.192 -0.574,0.45 -0.756,0.777c-0.183,0.321 -0.276,0.68 -0.281,1.076l0,1.638c0,0.495 0.091,0.924 0.274,1.285c0.187,0.361 0.45,0.639 0.79,0.835c0.339,0.195 0.741,0.293 1.206,0.293c0.309,0 0.592,-0.043 0.848,-0.13c0.257,-0.087 0.477,-0.218 0.659,-0.392c0.183,-0.174 0.322,-0.387 0.418,-0.639l2.57,0.17c-0.13,0.617 -0.398,1.156 -0.802,1.617c-0.4,0.457 -0.918,0.814 -1.553,1.07c-0.63,0.253 -1.359,0.379 -2.185,0.379Z" style="fill:#fff;fill-rule:nonzero;"/><path d="M37.109,13.739c-1.026,-0 -1.909,-0.218 -2.649,-0.653c-0.735,-0.439 -1.3,-1.048 -1.696,-1.826c-0.391,-0.779 -0.587,-1.675 -0.587,-2.688c0,-1.026 0.198,-1.927 0.594,-2.701c0.4,-0.778 0.967,-1.385 1.702,-1.82c0.735,-0.439 1.61,-0.659 2.623,-0.659c0.874,0 1.639,0.159 2.296,0.477c0.657,0.317 1.177,0.763 1.559,1.337c0.383,0.574 0.594,1.248 0.633,2.022l-2.622,0c-0.074,-0.5 -0.27,-0.902 -0.587,-1.207c-0.314,-0.308 -0.725,-0.463 -1.233,-0.463c-0.431,0 -0.807,0.118 -1.129,0.352c-0.318,0.231 -0.565,0.568 -0.744,1.012c-0.178,0.443 -0.267,0.98 -0.267,1.611c-0,0.639 0.087,1.183 0.261,1.631c0.178,0.448 0.428,0.789 0.75,1.024c0.322,0.235 0.698,0.352 1.129,0.352c0.317,0 0.602,-0.065 0.854,-0.195c0.257,-0.131 0.468,-0.32 0.633,-0.568c0.17,-0.252 0.28,-0.554 0.333,-0.907l2.622,0c-0.043,0.766 -0.252,1.44 -0.626,2.023c-0.37,0.578 -0.881,1.03 -1.533,1.356c-0.653,0.327 -1.425,0.49 -2.316,0.49Z" style="fill:#fff;fill-rule:nonzero;"/><path d="M44.596,10.66l0.006,-3.334l0.405,0l3.209,-3.803l3.19,-0l-4.312,5.036l-0.659,-0l-1.839,2.101Zm-2.518,2.883l-0,-13.36l2.779,-0l-0,13.36l-2.779,0Zm6.262,0l-2.949,-4.364l1.853,-1.964l4.351,6.328l-3.255,0Z" style="fill:#fff;fill-rule:nonzero;"/><rect x="51.484" y="0.183" width="2.779" height="13.36" style="fill:#fff;fill-rule:nonzero;"/><path d="M54.407,3.523l2.923,9.223l1.482,-4.187l-1.482,-5.036l-2.923,-0Z" style="fill:#fff;fill-rule:nonzero;"/></g><path d="M58.641,19.257l-2.926,-0l-4.528,-4.134l3.844,0l1.873,1.63l4.652,-13.268l3.099,-0l-6.014,15.772Z" style="fill:#0075ff;"/></g></svg>