<?xml version="1.0" encoding="UTF-8" standalone="no"?>
<!DOCTYPE svg PUBLIC "-//W3C//DTD SVG 1.1//EN" "http://www.w3.org/Graphics/SVG/1.1/DTD/svg11.dtd">
<svg width="100%" height="100%" viewBox="0 0 738 156" version="1.1" xmlns="http://www.w3.org/2000/svg" xmlns:xlink="http://www.w3.org/1999/xlink" xml:space="preserve" xmlns:serif="http://www.serif.com/" style="fill-rule:evenodd;clip-rule:evenodd;stroke-linejoin:round;stroke-miterlimit:2;">
    <g transform="matrix(1,0,0,1,-52.7387,-70.7047)">
        <g transform="matrix(0.0518423,0,0,0.0518423,-127.286,-58.4691)">
            <g transform="matrix(18.9526,0,0,18.9526,2296.17,1022.74)">
                <g transform="matrix(0.624967,0,0,-0.624967,72.6758,227.363)">
                    <path d="M291.385,78.677C282.581,83.355 275.664,89.87 270.634,98.22C265.603,106.571 263.088,116.028 263.088,126.592C263.088,137.156 265.603,146.614 270.634,154.964C275.664,163.315 282.581,169.829 291.385,174.508C300.188,179.186 310.123,181.525 321.19,181.525C330.849,181.525 339.552,179.815 347.299,176.394C355.045,172.973 361.485,168.043 366.616,161.604L347.6,144.4C340.759,152.65 332.459,156.775 322.699,156.775C316.965,156.775 311.859,155.517 307.382,153.002C302.904,150.487 299.433,146.941 296.968,142.363C294.503,137.785 293.271,132.528 293.271,126.592C293.271,120.656 294.503,115.399 296.968,110.822C299.433,106.244 302.904,102.697 307.382,100.182C311.859,97.667 316.965,96.409 322.699,96.409C332.459,96.409 340.759,100.534 347.6,108.784L366.616,91.58C361.485,85.141 355.045,80.211 347.299,76.79C339.552,73.37 330.849,71.659 321.19,71.659C310.123,71.659 300.188,73.998 291.385,78.677ZM400.886,84.487C392.183,93.039 387.832,105.162 387.832,120.857L387.832,179.412L417.713,179.412L417.713,121.763C417.713,104.86 424.403,96.409 437.784,96.409C451.065,96.409 457.705,104.86 457.705,121.763L457.705,179.412L487.133,179.412L487.133,120.857C487.133,105.162 482.782,93.039 474.079,84.487C465.377,75.935 453.178,71.659 437.482,71.659C421.787,71.659 409.588,75.935 400.886,84.487ZM517.456,73.772L517.456,179.412L571.483,179.412C584.965,179.412 595.227,176.922 602.27,171.942C609.313,166.962 612.834,160.246 612.834,151.795C612.834,146.764 611.602,142.262 609.137,138.288C606.672,134.314 603.176,131.17 598.648,128.856C604.685,126.743 609.413,123.448 612.834,118.971C616.255,114.494 617.965,109.086 617.965,102.748C617.965,93.492 614.243,86.348 606.798,81.318C599.352,76.287 588.587,73.772 574.502,73.772L517.456,73.772ZM643.595,73.772L643.595,179.412L726.447,179.412L726.447,156.322L673.174,156.322L673.174,138.514L720.109,138.514L720.109,116.179L673.174,116.179L673.174,96.862L728.409,96.862L728.409,73.772L643.595,73.772ZM587.782,106.068C587.782,113.211 582.551,116.783 572.087,116.783L547.035,116.783L547.035,95.353L572.087,95.353C582.551,95.353 587.782,98.924 587.782,106.068ZM582.651,147.72C582.651,154.461 577.621,157.832 567.56,157.832L547.035,157.832L547.035,137.458L567.56,137.458C577.621,137.458 582.651,140.879 582.651,147.72Z" style="fill:white;fill-rule:nonzero;"/>
                    <path d="M758.692,73.772L758.692,179.412L802.155,179.412C811.311,179.412 819.284,177.903 826.075,174.885C832.867,171.867 838.073,167.54 841.695,161.906C845.317,156.272 847.128,149.582 847.128,141.835C847.128,134.188 845.317,127.523 841.695,121.838C838.073,116.154 832.867,111.803 826.075,108.784C819.284,105.766 811.311,104.257 802.155,104.257L778.311,104.257L778.311,73.772L758.692,73.772ZM856.625,73.772L904.164,179.412L923.481,179.412L971.17,73.772L950.645,73.772L940.081,98.22L887.261,98.22L876.848,73.772L856.625,73.772ZM1010.84,73.772L1010.84,162.812L975.832,162.812L975.832,179.412L1065.47,179.412L1065.47,162.812L1030.46,162.812L1030.46,73.772L1010.84,73.772ZM1090.36,73.772L1090.36,179.412L1109.98,179.412L1109.98,135.798L1164.61,135.798L1164.61,179.412L1184.23,179.412L1184.23,73.772L1164.61,73.772L1164.61,119.046L1109.98,119.046L1109.98,73.772L1090.36,73.772ZM933.592,113.613L913.671,159.793L893.901,113.613L933.592,113.613ZM820.718,126.29C825.145,129.912 827.358,135.094 827.358,141.835C827.358,148.575 825.145,153.757 820.718,157.379C816.291,161.001 809.802,162.812 801.25,162.812L778.311,162.812L778.311,120.857L801.25,120.857C809.802,120.857 816.291,122.668 820.718,126.29Z" style="fill:white;fill-rule:nonzero;"/>
                </g>
                <g transform="matrix(0.280302,-1.09597e-34,1.09597e-34,0.280302,16.5525,73.4492)">
                    <path d="M420.947,580.806L307.677,518.786L308.492,420.103L420.947,481.68L588.991,389.654L588.991,389.426L679.504,339.856L679.504,439.224L420.947,580.806ZM252.159,488.386L162.393,439.231L162.386,156.052L272.969,95.504L363.488,145.067L252.907,205.629L252.907,389.661L252.974,389.703L252.159,488.386ZM412.56,414.774L309.794,358.512L309.794,247.699L412.56,303.321L412.56,414.774ZM532.089,247.033L532.096,358.505L429.503,414.689L429.503,303.406L532.088,247.042L532.088,247.033L532.089,247.033ZM588.991,327.562L588.991,205.622L420.947,113.603L420.782,113.688L330.276,64.118L420.947,14.47L679.504,156.052L679.504,277.992L588.991,327.562ZM524.525,232.63L524.523,232.631L524.52,232.63L421.115,289.442L316.767,232.964L420.94,175.917L524.525,232.63Z" style="fill:rgb(85,226,0);"/>
                </g>
            </g>
            <g transform="matrix(15.5556,0,0,14.0394,-23940.9,-125092)">
                <path d="M1984.18,9284.14C1984.18,9278.74 1987.99,9274.39 1993.74,9274.39C1997.93,9274.39 2000.88,9276.04 2003.09,9277.74L2006.93,9271.69C2003.43,9268.54 1998.93,9266.64 1993.49,9266.64C1983.24,9266.64 1975.54,9274.19 1975.54,9284.14C1975.54,9294.09 1983.24,9301.64 1993.49,9301.64C1998.93,9301.64 2003.43,9299.74 2006.93,9296.59L2003.09,9290.54C2000.88,9292.24 1997.93,9293.89 1993.74,9293.89C1987.99,9293.89 1984.18,9289.54 1984.18,9284.14Z" style="fill:white;fill-rule:nonzero;"/>
                <path d="M2013.93,9301.14L2039.29,9301.14L2039.29,9293.84L2022.34,9293.84L2022.34,9267.14L2013.93,9267.14L2013.93,9301.14Z" style="fill:white;fill-rule:nonzero;"/>
                <path d="M2060.14,9301.84C2070.09,9301.84 2077.59,9294.29 2077.59,9284.24C2077.59,9274.19 2070.09,9266.64 2060.14,9266.64C2050.18,9266.64 2042.63,9274.19 2042.63,9284.24C2042.63,9294.29 2050.18,9301.84 2060.14,9301.84ZM2060.14,9293.89C2054.74,9293.89 2050.89,9289.74 2050.89,9284.24C2050.89,9278.74 2054.74,9274.59 2060.14,9274.59C2065.49,9274.59 2069.39,9278.74 2069.39,9284.24C2069.39,9289.74 2065.49,9293.89 2060.14,9293.89Z" style="fill:white;fill-rule:nonzero;"/>
                <path d="M2093.09,9285.99L2093.09,9267.14L2084.68,9267.14L2084.68,9286.54C2084.68,9295.34 2090.28,9301.69 2100.43,9301.69C2110.74,9301.69 2116.34,9294.69 2116.34,9286.54L2116.34,9267.14L2107.93,9267.14L2107.93,9285.99C2107.93,9290.79 2105.43,9293.89 2100.43,9293.89C2095.59,9293.89 2093.09,9290.89 2093.09,9285.99Z" style="fill:white;fill-rule:nonzero;"/>
                <path d="M2140.64,9267.14L2125.34,9267.14L2125.34,9301.14L2140.64,9301.14C2150.68,9301.14 2158.18,9295.14 2158.18,9284.19C2158.18,9273.14 2150.68,9267.14 2140.64,9267.14ZM2140.24,9293.84L2133.74,9293.84L2133.74,9274.44L2140.24,9274.44C2145.74,9274.44 2149.49,9277.89 2149.49,9284.19C2149.49,9290.39 2145.74,9293.84 2140.24,9293.84Z" style="fill:white;fill-rule:nonzero;"/>
                <path d="M2218.03,9274.49L2218.03,9267.14L2191.74,9267.14L2191.74,9301.14L2199.78,9301.14L2199.78,9290.04L2215.34,9290.04L2215.34,9282.69L2199.78,9282.69L2199.78,9274.49L2218.03,9274.49Z" style="fill:white;fill-rule:nonzero;"/>
                <path d="M2240.18,9301.84C2250.14,9301.84 2257.64,9294.29 2257.64,9284.24C2257.64,9274.19 2250.14,9266.64 2240.18,9266.64C2230.24,9266.64 2222.68,9274.19 2222.68,9284.24C2222.68,9294.29 2230.24,9301.84 2240.18,9301.84ZM2240.18,9293.89C2234.78,9293.89 2230.93,9289.74 2230.93,9284.24C2230.93,9278.74 2234.78,9274.59 2240.18,9274.59C2245.53,9274.59 2249.43,9278.74 2249.43,9284.24C2249.43,9289.74 2245.53,9293.89 2240.18,9293.89Z" style="fill:white;fill-rule:nonzero;"/>
                <path d="M2286.43,9288.54C2291.09,9287.24 2294.43,9283.39 2294.43,9278.39C2294.43,9270.69 2289.24,9267.14 2281.39,9267.14L2265.18,9267.14L2265.18,9301.14L2273.59,9301.14L2273.59,9289.09L2276.99,9289.09L2287.34,9301.14L2296.39,9301.14L2296.39,9299.69L2286.43,9288.54ZM2273.59,9274.44L2281.18,9274.44C2283.93,9274.44 2285.74,9276.04 2285.74,9278.64C2285.74,9281.14 2283.93,9282.84 2281.18,9282.84L2273.59,9282.84L2273.59,9274.44Z" style="fill:white;fill-rule:nonzero;"/>
                <rect x="2328.89" y="9267.14" width="8.4" height="34" style="fill:white;fill-rule:nonzero;"/>
                <path d="M2355.18,9280.49L2372.34,9301.14L2379.64,9301.14L2379.64,9267.14L2371.24,9267.14L2371.24,9287.79L2354.09,9267.14L2346.78,9267.14L2346.78,9301.14L2355.18,9301.14L2355.18,9280.49Z" style="fill:white;fill-rule:nonzero;"/>
                <path d="M2397.53,9280.49L2414.68,9301.14L2421.99,9301.14L2421.99,9267.14L2413.59,9267.14L2413.59,9287.79L2396.43,9267.14L2389.14,9267.14L2389.14,9301.14L2397.53,9301.14L2397.53,9280.49Z" style="fill:white;fill-rule:nonzero;"/>
                <path d="M2446.99,9301.84C2456.93,9301.84 2464.43,9294.29 2464.43,9284.24C2464.43,9274.19 2456.93,9266.64 2446.99,9266.64C2437.03,9266.64 2429.49,9274.19 2429.49,9284.24C2429.49,9294.29 2437.03,9301.84 2446.99,9301.84ZM2446.99,9293.89C2441.59,9293.89 2437.74,9289.74 2437.74,9284.24C2437.74,9278.74 2441.59,9274.59 2446.99,9274.59C2452.34,9274.59 2456.24,9278.74 2456.24,9284.24C2456.24,9289.74 2452.34,9293.89 2446.99,9293.89Z" style="fill:white;fill-rule:nonzero;"/>
                <path d="M2494.53,9267.14L2485.43,9293.14L2476.39,9267.14L2467.14,9267.14L2480.14,9301.14L2490.78,9301.14L2503.74,9267.14L2494.53,9267.14Z" style="fill:white;fill-rule:nonzero;"/>
                <path d="M2516.09,9267.14L2503.09,9301.14L2511.59,9301.14L2513.93,9294.89L2528.18,9294.89L2530.49,9301.14L2538.99,9301.14L2525.99,9267.14L2516.09,9267.14ZM2515.99,9288.74L2521.03,9275.44L2526.09,9288.74L2515.99,9288.74Z" style="fill:white;fill-rule:nonzero;"/>
                <path d="M2567.89,9267.14L2538.89,9267.14L2538.89,9274.49L2549.18,9274.49L2549.18,9301.14L2557.59,9301.14L2557.59,9274.49L2567.89,9274.49L2567.89,9267.14Z" style="fill:white;fill-rule:nonzero;"/>
                <path d="M2589.28,9301.84C2599.24,9301.84 2606.74,9294.29 2606.74,9284.24C2606.74,9274.19 2599.24,9266.64 2589.28,9266.64C2579.34,9266.64 2571.78,9274.19 2571.78,9284.24C2571.78,9294.29 2579.34,9301.84 2589.28,9301.84ZM2589.28,9293.89C2583.89,9293.89 2580.03,9289.74 2580.03,9284.24C2580.03,9278.74 2583.89,9274.59 2589.28,9274.59C2594.64,9274.59 2598.53,9278.74 2598.53,9284.24C2598.53,9289.74 2594.64,9293.89 2589.28,9293.89Z" style="fill:white;fill-rule:nonzero;"/>
                <path d="M2635.53,9288.54C2640.18,9287.24 2643.53,9283.39 2643.53,9278.39C2643.53,9270.69 2638.34,9267.14 2630.49,9267.14L2614.28,9267.14L2614.28,9301.14L2622.68,9301.14L2622.68,9289.09L2626.09,9289.09L2636.43,9301.14L2645.49,9301.14L2645.49,9299.69L2635.53,9288.54ZM2622.68,9274.44L2630.28,9274.44C2633.03,9274.44 2634.84,9276.04 2634.84,9278.64C2634.84,9281.14 2633.03,9282.84 2630.28,9282.84L2622.68,9282.84L2622.68,9274.44Z" style="fill:white;fill-rule:nonzero;"/>
                <path d="M2652.14,9291.04L2650.18,9298.69C2652.43,9299.94 2657.68,9301.64 2662.68,9301.64C2671.18,9301.64 2676.93,9297.09 2676.93,9290.59C2676.93,9285.89 2674.24,9282.79 2667.99,9281.04L2661.93,9279.29C2659.84,9278.69 2658.84,9278.09 2658.84,9276.59C2658.84,9274.94 2660.24,9273.89 2663.53,9273.89C2667.03,9273.89 2671.14,9275.14 2673.78,9276.64L2676.14,9269.39C2673.49,9268.04 2668.74,9266.69 2663.89,9266.69C2654.74,9266.69 2650.28,9271.34 2650.28,9277.14C2650.28,9281.94 2653.09,9285.04 2658.93,9286.59L2664.49,9288.09C2667.24,9288.79 2668.34,9289.69 2668.34,9291.19C2668.34,9293.34 2666.24,9294.44 2662.89,9294.44C2658.64,9294.44 2654.74,9292.74 2652.14,9291.04Z" style="fill:white;fill-rule:nonzero;"/>
            </g>
        </g>
    </g>
</svg>
