<?xml version="1.0" encoding="UTF-8" standalone="no"?><!DOCTYPE svg PUBLIC "-//W3C//DTD SVG 1.1//EN" "http://www.w3.org/Graphics/SVG/1.1/DTD/svg11.dtd"><svg width="100%" height="100%" viewBox="0 0 92 30" version="1.1" xmlns="http://www.w3.org/2000/svg" xmlns:xlink="http://www.w3.org/1999/xlink" xml:space="preserve" xmlns:serif="http://www.serif.com/" style="fill-rule:evenodd;clip-rule:evenodd;stroke-linejoin:round;stroke-miterlimit:2;"><path d="M10,9.8l10,0l0,-9.8l-19.8,0l0,0.1l9.8,9.7Z" style="fill:#67dbff;"/><path d="M10,9.8l-10,0l0,9.8l19.8,0l0,-0.1l-9.8,-9.7Z" style="fill:#01a3ff;"/><path d="M0.1,19.5l9.9,-0l0,9.9l-9.9,-9.9Z" style="fill:#0162ff;"/><path d="M33.6,19.5l-0,-5.4l5.9,-0l0,-2.5l-5.9,-0l-0,-3.6l6.4,-0l0,-2.6l-9.3,-0l-0,14l2.9,-0l-0,0.1Z" style="fill:#fff;fill-rule:nonzero;"/><path d="M47.4,9.3c-0.2,-0.1 -0.6,-0.2 -1.1,-0.2c-1,0 -1.8,0.5 -2.3,1.2l0,-1l-2.8,0l0,10.2l2.8,-0l0,-6.3c0.2,-0.9 1,-1.4 1.9,-1.4c0.5,-0 1,0.1 1.4,0.3l0,-2.8l0.1,0Z" style="fill:#fff;fill-rule:nonzero;"/><path d="M56.8,19.5l-0,-6.5c-0,-2.4 -1.6,-3.9 -4.3,-3.9c-2.3,-0 -4,1.4 -4.3,3.3l2.7,-0c0.2,-0.6 0.7,-1 1.5,-1c1.1,-0 1.7,0.7 1.7,1.6l-0,0.7c-0.4,-0.3 -1.4,-0.6 -2.3,-0.6c-2.2,-0 -3.9,1.3 -3.9,3.3c0,2.1 1.7,3.3 3.8,3.3c1.1,-0 2.1,-0.4 2.5,-0.7l0,0.5l2.6,-0Zm-2.7,-2.8c-0.3,0.5 -1,0.9 -1.8,0.9c-0.9,0 -1.8,-0.4 -1.8,-1.3c-0,-0.9 0.9,-1.3 1.8,-1.3c0.8,0 1.6,0.3 1.8,0.9l-0,0.8Z" style="fill:#fff;fill-rule:nonzero;"/><path d="M66.8,10.4c-0.6,-0.8 -1.5,-1.3 -2.7,-1.3c-1.1,-0 -2.1,0.4 -2.6,1.1l0,-0.8l-2.8,0l0,10.2l2.8,-0l0,-6.6c0.2,-0.9 0.9,-1.3 1.6,-1.3c1,-0 1.4,0.7 1.4,1.8l0,6.1l2.8,-0l0,-6.6c0.2,-0.9 0.8,-1.3 1.6,-1.3c1,-0 1.5,0.7 1.5,1.8l0,6.1l2.8,-0l0,-6.7c0,-2.3 -1.3,-3.8 -3.4,-3.8c-1.3,-0 -2.3,0.6 -3,1.3Z" style="fill:#fff;fill-rule:nonzero;"/><path d="M81.3,16.2c-0.2,0.9 -0.9,1.3 -1.9,1.3c-1.3,-0 -2.1,-0.9 -2.2,-2.4l6.8,-0l0,-0.9c0,-3 -1.6,-5.1 -4.6,-5.1c-2.8,0 -4.9,2.3 -4.9,5.3c0,3.1 2,5.3 4.9,5.3c2.6,0 4.1,-1.4 4.5,-3.6l-2.6,0l0,0.1Zm-1.9,-4.8c1.2,0 1.8,0.8 1.8,1.9l-3.9,-0c0.3,-1.2 1,-1.9 2.1,-1.9Z" style="fill:#fff;fill-rule:nonzero;"/><path d="M91.5,9.3c-0.2,-0.1 -0.6,-0.2 -1.1,-0.2c-1,0 -1.8,0.5 -2.3,1.2l0,-1l-2.8,0l0,10.2l2.8,-0l0,-6.3c0.2,-0.9 1,-1.4 1.9,-1.4c0.5,-0 1,0.1 1.4,0.3l0,-2.8l0.1,0Z" style="fill:#fff;fill-rule:nonzero;"/></svg>