<?xml version="1.0" encoding="UTF-8" standalone="no"?><!DOCTYPE svg PUBLIC "-//W3C//DTD SVG 1.1//EN" "http://www.w3.org/Graphics/SVG/1.1/DTD/svg11.dtd"><svg width="100%" height="100%" viewBox="0 0 115 28" version="1.1" xmlns="http://www.w3.org/2000/svg" xmlns:xlink="http://www.w3.org/1999/xlink" xml:space="preserve" xmlns:serif="http://www.serif.com/" style="fill-rule:evenodd;clip-rule:evenodd;stroke-linejoin:round;stroke-miterlimit:2;"><g><path d="M34.724,7.972l7.612,0l0,1.898l-5.514,-0l0,3.096l5.197,-0l-0,1.899l-5.197,0l0,4.895l-2.098,0l-0,-11.788Z" style="fill:#e6e7e8;fill-rule:nonzero;"/><path d="M50.33,19.763l-1.908,0l0,-1.283l-0.034,-0c-0.198,0.414 -0.495,0.772 -0.865,1.042c-0.467,0.318 -1.025,0.474 -1.588,0.442c-0.466,0.012 -0.93,-0.079 -1.357,-0.264c-0.354,-0.158 -0.665,-0.397 -0.908,-0.699c-0.229,-0.299 -0.394,-0.642 -0.484,-1.008c-0.102,-0.386 -0.153,-0.784 -0.151,-1.183l-0,-5.04l2,-0l0,4.045c0,0.223 0,0.471 0.032,0.741c0.022,0.263 0.08,0.521 0.175,0.767c0.091,0.234 0.24,0.441 0.434,0.601c0.237,0.174 0.529,0.259 0.823,0.241c0.289,0.009 0.577,-0.048 0.841,-0.167c0.22,-0.105 0.414,-0.259 0.566,-0.45c0.153,-0.191 0.264,-0.413 0.326,-0.651c0.067,-0.249 0.101,-0.506 0.1,-0.764l0,-4.363l1.998,-0l-0,7.993Z" style="fill:#e6e7e8;fill-rule:nonzero;"/><path d="M56.508,13.984c-0.346,-0.522 -0.937,-0.831 -1.563,-0.817c-0.277,0 -0.55,0.069 -0.794,0.201c-0.246,0.122 -0.394,0.382 -0.373,0.656c-0.01,0.224 0.115,0.433 0.317,0.529c0.252,0.127 0.519,0.222 0.794,0.283c0.323,0.077 0.67,0.159 1.04,0.241c0.363,0.081 0.714,0.21 1.042,0.384c0.317,0.17 0.589,0.413 0.794,0.709c0.229,0.368 0.339,0.798 0.315,1.23c0.015,0.424 -0.091,0.844 -0.307,1.209c-0.2,0.323 -0.471,0.595 -0.794,0.794c-0.342,0.205 -0.717,0.351 -1.108,0.432c-0.405,0.089 -0.819,0.134 -1.233,0.135c-0.583,0.006 -1.162,-0.083 -1.715,-0.265c-0.543,-0.193 -1.026,-0.526 -1.4,-0.966l1.323,-1.249c0.239,0.275 0.517,0.514 0.826,0.707c0.325,0.189 0.698,0.28 1.074,0.264c0.151,-0 0.301,-0.017 0.447,-0.05c0.153,-0.03 0.3,-0.087 0.434,-0.167c0.128,-0.073 0.239,-0.172 0.326,-0.291c0.083,-0.119 0.127,-0.262 0.124,-0.407c0.015,-0.248 -0.107,-0.485 -0.317,-0.617c-0.247,-0.148 -0.515,-0.257 -0.794,-0.325c-0.32,-0.082 -0.67,-0.159 -1.04,-0.233c-0.361,-0.067 -0.711,-0.185 -1.04,-0.349c-0.315,-0.158 -0.587,-0.39 -0.794,-0.675c-0.228,-0.356 -0.339,-0.776 -0.315,-1.199c-0.014,-0.402 0.078,-0.802 0.265,-1.159c0.177,-0.32 0.424,-0.595 0.722,-0.807c0.314,-0.216 0.665,-0.374 1.035,-0.465c0.386,-0.101 0.784,-0.151 1.183,-0.151c0.54,-0.002 1.077,0.087 1.587,0.264c0.51,0.175 0.952,0.504 1.265,0.942l-1.326,1.212Z" style="fill:#e6e7e8;fill-rule:nonzero;"/><path d="M58.959,9.055c-0.005,-0.322 0.124,-0.631 0.357,-0.852c0.24,-0.239 0.569,-0.368 0.907,-0.358c0.343,-0.004 0.674,0.124 0.924,0.358c0.239,0.22 0.375,0.532 0.375,0.857c0,0.325 -0.136,0.636 -0.375,0.857c-0.252,0.229 -0.583,0.351 -0.924,0.342c-0.338,0.01 -0.667,-0.119 -0.907,-0.358c-0.231,-0.22 -0.36,-0.527 -0.357,-0.846Zm0.283,2.715l1.998,-0l-0,7.993l-1.998,0l-0,-7.993Z" style="fill:#e6e7e8;fill-rule:nonzero;"/><path d="M62.356,15.765c-0.004,-0.593 0.117,-1.18 0.355,-1.723c0.433,-1.012 1.268,-1.799 2.304,-2.172c1.098,-0.402 2.303,-0.402 3.401,0c1.035,0.373 1.871,1.16 2.304,2.172c0.453,1.102 0.453,2.339 0,3.44c-0.433,1.012 -1.269,1.8 -2.304,2.173c-1.098,0.402 -2.303,0.402 -3.401,-0c-1.034,-0.371 -1.869,-1.156 -2.304,-2.165c-0.238,-0.544 -0.359,-1.131 -0.355,-1.725Zm1.998,-0c-0.001,0.307 0.053,0.612 0.159,0.9c0.101,0.284 0.26,0.545 0.465,0.767c0.447,0.473 1.07,0.741 1.72,0.741c0.651,0 1.273,-0.268 1.72,-0.741c0.206,-0.222 0.364,-0.483 0.466,-0.767c0.211,-0.58 0.211,-1.217 -0,-1.797c-0.102,-0.285 -0.26,-0.546 -0.466,-0.767c-0.447,-0.473 -1.069,-0.742 -1.72,-0.742c-0.65,0 -1.273,0.269 -1.72,0.742c-0.205,0.221 -0.364,0.482 -0.465,0.767c-0.106,0.287 -0.16,0.591 -0.159,0.897Z" style="fill:#e6e7e8;fill-rule:nonzero;"/><path d="M72.115,11.77l1.899,-0l0,1.28l0.032,0c0.201,-0.412 0.499,-0.769 0.868,-1.04c0.466,-0.318 1.024,-0.473 1.588,-0.442c0.466,-0.013 0.93,0.077 1.357,0.265c0.351,0.162 0.662,0.4 0.908,0.699c0.236,0.293 0.405,0.634 0.497,1c0.102,0.386 0.152,0.783 0.151,1.183l0,5.048l-1.998,0l0,-4.046c0,-0.222 0,-0.471 -0.034,-0.743c-0.019,-0.262 -0.078,-0.52 -0.175,-0.765c-0.092,-0.235 -0.244,-0.443 -0.442,-0.601c-0.236,-0.171 -0.523,-0.256 -0.815,-0.24c-0.289,-0.009 -0.577,0.048 -0.841,0.166c-0.22,0.106 -0.413,0.26 -0.566,0.45c-0.153,0.191 -0.263,0.412 -0.326,0.648c-0.067,0.251 -0.101,0.509 -0.1,0.768l-0,4.363l-1.998,0l-0.005,-7.993Z" style="fill:#e6e7e8;fill-rule:nonzero;"/><path d="M85.324,7.972l1.815,0l5.08,11.791l-2.4,0l-1.098,-2.699l-5.107,0l-1.058,2.699l-2.347,0l5.115,-11.791Zm2.664,7.296l-1.815,-4.798l-1.852,4.798l3.667,-0Z" style="fill:#f58320;fill-rule:nonzero;"/><path d="M99.829,19.763l-1.9,0l0,-1.283l-0.026,-0c-0.2,0.412 -0.497,0.77 -0.865,1.042c-0.467,0.318 -1.025,0.473 -1.588,0.442c-0.466,0.012 -0.93,-0.079 -1.357,-0.264c-0.354,-0.158 -0.665,-0.397 -0.908,-0.699c-0.237,-0.296 -0.408,-0.64 -0.5,-1.008c-0.102,-0.386 -0.152,-0.784 -0.151,-1.183l-0,-5.04l1.998,-0l-0,4.045c-0,0.223 -0,0.471 0.034,0.741c0.019,0.263 0.078,0.522 0.175,0.767c0.091,0.234 0.24,0.441 0.434,0.601c0.238,0.174 0.529,0.259 0.823,0.241c0.291,0.008 0.581,-0.051 0.846,-0.172c0.221,-0.105 0.414,-0.259 0.567,-0.45c0.152,-0.192 0.263,-0.413 0.325,-0.651c0.067,-0.249 0.101,-0.506 0.101,-0.765l-0,-4.357l1.997,-0l-0.005,7.993Z" style="fill:#f58320;fill-rule:nonzero;"/><path d="M100.512,13.468l-0,-1.698l1.648,-0l0,-2.316l2.001,0l-0,2.316l2.209,-0l0,1.698l-2.196,0l-0,3.498c-0.017,0.331 0.06,0.659 0.222,0.948c0.151,0.235 0.447,0.351 0.892,0.351c0.196,-0.002 0.392,-0.022 0.585,-0.058c0.178,-0.026 0.348,-0.092 0.497,-0.193l0,1.683c-0.245,0.11 -0.506,0.18 -0.773,0.209c-0.268,0.035 -0.538,0.055 -0.809,0.058c-0.443,0.013 -0.884,-0.046 -1.307,-0.174c-0.309,-0.1 -0.584,-0.283 -0.794,-0.53c-0.204,-0.26 -0.342,-0.566 -0.4,-0.891c-0.076,-0.406 -0.113,-0.818 -0.108,-1.231l-0,-3.67l-1.667,0Z" style="fill:#f58320;fill-rule:nonzero;"/><path d="M109.281,12.883l0.034,0c0.188,-0.37 0.473,-0.683 0.823,-0.907c0.455,-0.288 0.987,-0.43 1.524,-0.408c0.467,-0.014 0.93,0.077 1.357,0.265c0.352,0.161 0.662,0.4 0.908,0.699c0.236,0.294 0.407,0.635 0.5,1c0.102,0.386 0.152,0.783 0.151,1.183l-0,5.048l-2,0l-0,-4.046c-0,-0.222 -0,-0.471 -0.032,-0.743c-0.022,-0.262 -0.081,-0.52 -0.175,-0.765c-0.094,-0.235 -0.247,-0.442 -0.444,-0.601c-0.237,-0.17 -0.524,-0.255 -0.815,-0.24c-0.29,-0.009 -0.578,0.048 -0.842,0.166c-0.22,0.106 -0.414,0.259 -0.566,0.45c-0.152,0.191 -0.263,0.412 -0.325,0.648c-0.068,0.251 -0.101,0.509 -0.101,0.768l0,4.363l-1.998,0l0,-12.592l2.001,-0l-0,5.712Z" style="fill:#f58320;fill-rule:nonzero;"/><path d="M7.343,23.984c-0.952,-0.548 -1.821,-1.228 -2.58,-2.022c-0.22,0.276 -0.489,0.509 -0.794,0.688c-0.168,0.095 -0.345,0.173 -0.529,0.233c4.092,4.469 10.779,5.538 16.061,2.569c0.25,-0.144 0.405,-0.411 0.405,-0.7c0,-0.288 -0.155,-0.556 -0.405,-0.7c-0.243,-0.145 -0.546,-0.15 -0.794,-0.013c-3.527,1.992 -7.857,1.971 -11.364,-0.055Z" style="fill:#e6e7e8;fill-rule:nonzero;"/><path d="M7.34,4.149c0.952,-0.549 1.979,-0.958 3.048,-1.215c-0.133,-0.337 -0.201,-0.696 -0.201,-1.058c0.001,-0.195 0.02,-0.39 0.058,-0.582c-5.914,1.313 -10.18,6.571 -10.245,12.629c0.001,0.444 0.367,0.807 0.81,0.807c0.142,0 0.281,-0.037 0.405,-0.108c0.245,-0.138 0.399,-0.396 0.404,-0.677c0.044,-4.042 2.222,-7.773 5.721,-9.796Z" style="fill:#e6e7e8;fill-rule:nonzero;"/><path d="M24.515,14.066c0,1.099 -0.159,2.193 -0.471,3.247c0.356,0.052 0.699,0.171 1.011,0.349c0.168,0.096 0.326,0.207 0.474,0.331c1.815,-5.779 -0.608,-12.099 -5.821,-15.183c-0.116,-0.061 -0.245,-0.092 -0.376,-0.092c-0.443,-0 -0.808,0.363 -0.81,0.806c-0.003,0.281 0.143,0.543 0.384,0.688c3.474,2.062 5.61,5.814 5.609,9.854Z" style="fill:#e6e7e8;fill-rule:nonzero;"/><path d="M13.069,8.621c0.001,-0 0.001,-0 0.002,-0c2.988,-0 5.446,2.458 5.446,5.445c-0,2.988 -2.458,5.446 -5.446,5.446c-2.987,-0 -5.445,-2.458 -5.445,-5.446c0.003,-2.985 2.457,-5.441 5.443,-5.445m-0,-1.617c-3.875,0 -7.063,3.188 -7.063,7.062c0,3.874 3.188,7.062 7.063,7.062c3.874,0 7.062,-3.188 7.062,-7.062c-0,-0.001 -0,-0.002 -0,-0.002c-0,-3.873 -3.187,-7.06 -7.06,-7.06c-0.001,0 -0.001,0 -0.002,0Z" style="fill:#e6e7e8;fill-rule:nonzero;"/><circle cx="13.066" cy="1.884" r="1.884" style="fill:#f58320;"/><circle cx="2.516" cy="20.155" r="1.884" style="fill:#f58320;"/><circle cx="23.616" cy="20.155" r="1.884" style="fill:#f58320;"/><path d="M14.63,12.778c-0,-0.001 -0,-0.002 -0,-0.003c-0,-0.856 -0.705,-1.561 -1.561,-1.561c-0.857,0 -1.561,0.705 -1.561,1.561c-0,0.563 0.304,1.084 0.793,1.36l-0.492,2.495c-0.003,0.018 -0.005,0.035 -0.005,0.053c-0,0.145 0.119,0.265 0.264,0.265c0.002,-0 0.004,-0 0.006,-0l2.003,-0c0.002,-0 0.003,-0 0.005,-0c0.145,-0 0.265,-0.12 0.265,-0.265c-0,-0.018 -0.002,-0.035 -0.006,-0.053l-0.494,-2.495c0.485,-0.278 0.785,-0.798 0.783,-1.357Z" style="fill:#f58320;fill-rule:nonzero;"/></g></svg>