<?xml version="1.0" encoding="UTF-8" standalone="no"?><!DOCTYPE svg PUBLIC "-//W3C//DTD SVG 1.1//EN" "http://www.w3.org/Graphics/SVG/1.1/DTD/svg11.dtd"><svg width="100%" height="100%" viewBox="0 0 38 23" version="1.1" xmlns="http://www.w3.org/2000/svg" xmlns:xlink="http://www.w3.org/1999/xlink" xml:space="preserve" xmlns:serif="http://www.serif.com/" style="fill-rule:evenodd;clip-rule:evenodd;stroke-linejoin:round;stroke-miterlimit:2;"><g><path id="teabag" d="M23.034,20.135l-7.491,-3.6c-0.738,-0.355 -1.056,-1.252 -0.696,-1.996l3.6,-7.49c0.354,-0.738 1.252,-1.056 1.995,-0.696c1.016,0.49 1.6,0.767 1.6,0.767l-0.006,-6.446l0.986,-0.006l0.006,6.912c-0,0 3.388,1.429 4.905,2.367c0.218,0.136 0.602,0.402 0.761,0.85c0.124,0.36 0.118,0.773 -0.059,1.139l-3.6,7.491c-0.366,0.749 -1.264,1.068 -2.001,0.708Z" style="fill:#fff;fill-rule:nonzero;"/><g><g><path d="M36.421,0.397c-0.242,-0.242 -0.567,-0.236 -0.567,-0.236c-0,-0 -6.918,0.389 -10.501,0.472c-0.785,0.018 -1.564,0.035 -2.337,0.041l-0,6.918c-0.325,-0.153 -0.655,-0.313 -0.98,-0.466c0,-2.149 -0.006,-6.446 -0.006,-6.446c-1.712,0.024 -5.265,-0.13 -5.265,-0.13c0,0 -8.346,-0.419 -9.255,-0.501c-0.579,-0.036 -1.328,-0.124 -2.302,0.088c-0.514,0.106 -1.977,0.437 -3.176,1.588c-2.656,2.367 -1.977,6.133 -1.894,6.699c0.1,0.691 0.407,2.609 1.871,4.28c2.703,3.311 8.523,3.234 8.523,3.234c0,0 0.714,1.706 1.806,3.276c1.476,1.954 2.993,3.477 4.468,3.66c3.719,-0 11.15,-0.006 11.15,-0.006c0,-0 0.709,0.006 1.671,-0.608c0.826,-0.502 1.564,-1.381 1.564,-1.381c-0,-0 0.761,-0.815 1.824,-2.674c0.324,-0.573 0.596,-1.127 0.832,-1.653c0,0 3.258,-6.912 3.258,-13.641c-0.065,-2.036 -0.566,-2.396 -0.684,-2.514Zm-29.342,12.047c-1.529,-0.502 -2.178,-1.104 -2.178,-1.104c-0,0 -1.127,-0.791 -1.694,-2.349c-0.974,-2.609 -0.083,-4.203 -0.083,-4.203c0,0 0.496,-1.328 2.273,-1.77c0.814,-0.219 1.83,-0.183 1.83,-0.183c-0,-0 0.419,3.506 0.926,5.56c0.425,1.723 1.464,4.586 1.464,4.586c0,0 -1.54,-0.183 -2.538,-0.537Zm17.725,6.351c0,0 -0.36,0.856 -1.157,0.909c-0.342,0.024 -0.607,-0.071 -0.607,-0.071c-0,0 -0.018,-0.006 -0.313,-0.124l-6.664,-3.246c-0,-0 -0.644,-0.336 -0.756,-0.921c-0.13,-0.478 0.16,-1.068 0.16,-1.068l3.205,-6.605c-0,-0 0.283,-0.573 0.72,-0.767c0.035,-0.018 0.135,-0.059 0.265,-0.089c0.478,-0.124 1.063,0.165 1.063,0.165l6.534,3.17c-0,-0 0.744,0.336 0.903,0.956c0.112,0.437 -0.029,0.827 -0.106,1.015c-0.372,0.909 -3.247,6.676 -3.247,6.676Z" style="fill:#609926;fill-rule:nonzero;"/><path d="M18.955,13.991c-0.484,0.005 -0.909,0.342 -1.021,0.814c-0.112,0.472 0.118,0.962 0.537,1.181c0.454,0.236 1.033,0.106 1.34,-0.319c0.301,-0.419 0.254,-0.998 -0.106,-1.364l1.416,-2.898c0.089,0.006 0.219,0.012 0.366,-0.029c0.242,-0.053 0.419,-0.213 0.419,-0.213c0.248,0.106 0.508,0.224 0.779,0.36c0.284,0.142 0.549,0.289 0.791,0.431c0.053,0.03 0.107,0.065 0.166,0.112c0.094,0.077 0.2,0.183 0.277,0.325c0.112,0.325 -0.112,0.879 -0.112,0.879c-0.136,0.449 -1.086,2.397 -1.086,2.397c-0.478,-0.012 -0.903,0.295 -1.045,0.738c-0.153,0.478 0.065,1.021 0.525,1.257c0.461,0.236 1.027,0.1 1.328,-0.313c0.296,-0.401 0.272,-0.962 -0.065,-1.334c0.113,-0.218 0.219,-0.437 0.331,-0.667c0.295,-0.614 0.797,-1.794 0.797,-1.794c0.053,-0.101 0.336,-0.608 0.159,-1.258c-0.147,-0.672 -0.743,-0.985 -0.743,-0.985c-0.721,-0.467 -1.724,-0.897 -1.724,-0.897c-0,-0 -0,-0.242 -0.065,-0.42c-0.065,-0.182 -0.165,-0.301 -0.23,-0.371c0.277,-0.573 0.555,-1.14 0.832,-1.712c-0.242,-0.118 -0.478,-0.236 -0.72,-0.36c-0.283,0.578 -0.573,1.163 -0.856,1.741c-0.395,-0.006 -0.761,0.207 -0.95,0.555c-0.201,0.372 -0.16,0.832 0.112,1.169c-0.484,0.991 -0.968,1.983 -1.452,2.975Z" style="fill:#609926;fill-rule:nonzero;"/></g></g></g></svg>