<?xml version="1.0" encoding="UTF-8" standalone="no"?><!DOCTYPE svg PUBLIC "-//W3C//DTD SVG 1.1//EN" "http://www.w3.org/Graphics/SVG/1.1/DTD/svg11.dtd"><svg width="100%" height="100%" viewBox="0 0 35 15" version="1.1" xmlns="http://www.w3.org/2000/svg" xmlns:xlink="http://www.w3.org/1999/xlink" xml:space="preserve" xmlns:serif="http://www.serif.com/" style="fill-rule:evenodd;clip-rule:evenodd;stroke-linejoin:round;stroke-miterlimit:2;"><path d="M3.066,0.267l-3.066,0l3.066,3.052l-0,-3.052l-0,0Zm-3.066,1.831l0,10.378l3.066,0l-0,-7.325l-3.066,-3.053Z" style="fill:#ff5859;fill-rule:nonzero;"/><path d="M12.262,12.475l1.533,1.527l4.292,-0l-4.599,-4.579l-5.212,0l0,-6.104l6.132,-0l-0,5.189l3.066,3.052l-0,-11.294l-12.264,0l0,12.209l7.052,0l-0,0Z" style="fill:#ffa300;fill-rule:nonzero;"/><path d="M19.621,2.098l-0,10.378l3.066,0l-0,-7.325l-3.066,-3.053Zm10.424,-1.831l-3.066,3.052l-3.066,-3.052l-4.292,0l7.358,7.325l4.292,-4.273l0,9.157l3.066,0l-0,-12.209l-4.292,0Z" style="fill:#3fd4ad;fill-rule:nonzero;"/></svg>