<?xml version="1.0" encoding="UTF-8" standalone="no"?><!DOCTYPE svg PUBLIC "-//W3C//DTD SVG 1.1//EN" "http://www.w3.org/Graphics/SVG/1.1/DTD/svg11.dtd"><svg width="100%" height="100%" viewBox="0 0 1198 170" version="1.1" xmlns="http://www.w3.org/2000/svg" xmlns:xlink="http://www.w3.org/1999/xlink" xml:space="preserve" xmlns:serif="http://www.serif.com/" style="fill-rule:evenodd;clip-rule:evenodd;stroke-linejoin:round;stroke-miterlimit:2;"><g id="Calque-1" serif:id="Calque 1"></g><g id="Calque-2" serif:id="Calque 2"><rect x="385.534" y="97.151" width="40" height="15" style="fill:#fff;"/><path d="M505.534,140.484l-20,-0l0,-22.257c0,-11.987 8.306,-21.772 20,-24.409l0,46.666Z" style="fill:#fff;fill-rule:nonzero;"/><path d="M745.535,138.092c-3.406,0.993 -7.793,1.918 -13.169,2.774c-5.375,0.855 -11.018,1.285 -16.928,1.285c-6.004,0 -9.998,-0.811 -13.982,-2.436c-3.987,-1.623 -7.144,-3.9 -9.474,-6.832c-2.329,-2.932 -3.986,-6.429 -4.97,-10.487c-0.987,-4.06 -1.477,-8.526 -1.477,-13.398l-0,-40.18l20,0l-0,37.747c-0,6.495 0.851,11.185 2.558,14.071c1.702,2.89 3.889,4.33 8.557,4.33c1.434,0 2.961,-0.066 4.576,-0.203c1.615,-0.135 3.049,-0.291 4.308,-0.474l0,-55.471l20,0l0,69.274Z" style="fill:#fff;fill-rule:nonzero;"/><path d="M1084.64,118.11c3.04,-3.135 4.56,-7.62 4.56,-13.457c-0,-5.837 -1.477,-10.323 -4.427,-13.461c-2.954,-3.134 -6.589,-4.701 -10.906,-4.701c-4.408,-0 -8.063,1.548 -10.971,4.636c-2.907,3.095 -4.362,7.604 -4.362,13.526c-0,5.837 1.431,10.322 4.295,13.457c2.864,3.138 6.455,4.705 10.774,4.705c4.316,-0 7.997,-1.567 11.037,-4.705m-30.535,19.471c-5.773,-3.05 -10.311,-7.405 -13.613,-13.069c-3.305,-5.66 -4.958,-12.282 -4.958,-19.859c-0,-7.493 1.672,-14.089 5.024,-19.795c3.348,-5.706 7.93,-10.083 13.745,-13.133c5.817,-3.049 12.338,-4.574 19.564,-4.574c7.225,-0 13.747,1.525 19.562,4.574c5.817,3.05 10.398,7.427 13.748,13.133c3.348,5.706 5.023,12.302 5.023,19.795c-0,7.492 -1.698,14.092 -5.089,19.794c-3.393,5.706 -8.02,10.084 -13.878,13.134c-5.863,3.049 -12.406,4.57 -19.63,4.57c-7.227,-0 -13.728,-1.521 -19.498,-4.57" style="fill:#fff;fill-rule:nonzero;"/><path d="M999.641,118.11c3.04,-3.135 4.56,-7.62 4.56,-13.457c-0,-5.837 -1.477,-10.323 -4.427,-13.461c-2.954,-3.134 -6.589,-4.701 -10.906,-4.701c-4.408,-0 -8.063,1.548 -10.971,4.636c-2.907,3.095 -4.362,7.604 -4.362,13.526c-0,5.837 1.431,10.322 4.295,13.457c2.864,3.138 6.455,4.705 10.774,4.705c4.316,-0 7.997,-1.567 11.037,-4.705m-30.535,19.471c-5.773,-3.05 -10.311,-7.405 -13.613,-13.069c-3.305,-5.66 -4.958,-12.282 -4.958,-19.859c-0,-7.493 1.672,-14.089 5.024,-19.795c3.348,-5.706 7.93,-10.083 13.745,-13.133c5.817,-3.049 12.338,-4.574 19.564,-4.574c7.225,-0 13.747,1.525 19.562,4.574c5.817,3.05 10.398,7.427 13.748,13.133c3.348,5.706 5.023,12.302 5.023,19.795c-0,7.492 -1.698,14.092 -5.089,19.794c-3.393,5.706 -8.02,10.084 -13.878,13.134c-5.863,3.049 -12.406,4.57 -19.63,4.57c-7.227,-0 -13.728,-1.521 -19.498,-4.57" style="fill:#fff;fill-rule:nonzero;"/><path d="M945.126,130.558c-2.089,-3.577 -3.671,-7.441 -4.77,-11.552c-2.847,2.532 -6.208,3.808 -10.085,3.808c-4.32,-0 -7.911,-1.567 -10.774,-4.704c-2.865,-3.135 -4.296,-7.62 -4.296,-13.457c0,-5.922 1.454,-10.431 4.363,-13.527c2.907,-3.088 6.563,-4.635 10.97,-4.635c3.837,-0 7.131,1.245 9.891,3.719c1.111,-4.048 2.697,-7.872 4.786,-11.429c1.478,-2.519 3.165,-4.836 5.017,-6.982c-0.044,-0.023 -0.086,-0.051 -0.131,-0.074c-5.816,-3.049 -12.338,-4.574 -19.563,-4.574c-7.225,-0 -13.746,1.525 -19.563,4.574c-5.816,3.049 -10.398,7.427 -13.746,13.133c-3.351,5.706 -5.025,12.302 -5.025,19.795c0,7.577 1.654,14.199 4.958,19.859c3.304,5.664 7.842,10.019 13.614,13.068c5.771,3.049 12.272,4.571 19.499,4.571c7.223,-0 13.767,-1.522 19.628,-4.571c0.06,-0.031 0.115,-0.066 0.173,-0.097c-1.826,-2.131 -3.49,-4.428 -4.946,-6.925" style="fill:#fff;fill-rule:nonzero;"/><path d="M233.868,120.484l-35,-0l-0,-100c-12.512,4.031 -20,16.126 -20,29.334l-0,90.666l55,-0l-0,-20Z" style="fill:#fff;fill-rule:nonzero;"/><path d="M410.534,20.484l0,20l35,-0l0,100l20,-0l0,-100l18.333,0.001c11.046,-0 20,-8.955 20,-20.001l-93.333,-0Z" style="fill:#fff;fill-rule:nonzero;"/><path d="M652.716,97.264c-0.091,-1.713 -0.385,-3.383 -0.88,-5.006c-0.496,-1.625 -1.264,-3.065 -2.3,-4.33c-1.039,-1.264 -2.346,-2.301 -3.924,-3.114c-1.58,-0.81 -3.542,-1.216 -5.886,-1.216c-2.257,-0 -4.195,0.384 -5.82,1.15c-1.623,0.766 -2.976,1.782 -4.058,3.044c-1.082,1.264 -1.918,2.731 -2.503,4.398c-0.588,1.67 -1.016,3.361 -1.286,5.074l26.657,-0Zm15.29,40.387c-1.082,0.54 -2.526,1.082 -4.33,1.623c-1.806,0.542 -3.812,1.015 -6.021,1.421c-2.212,0.405 -4.58,0.744 -7.104,1.015c-2.527,0.271 -5.053,0.406 -7.578,0.406c-6.405,-0 -11.976,-0.948 -16.711,-2.842c-4.735,-1.894 -8.66,-4.486 -11.773,-7.78c-3.111,-3.293 -5.412,-7.194 -6.901,-11.705c-1.488,-4.509 -2.231,-9.381 -2.231,-14.614c0,-6.314 0.967,-11.84 2.909,-16.575c1.937,-4.737 4.486,-8.682 7.644,-11.84c3.158,-3.159 6.786,-5.548 10.893,-7.173c4.104,-1.623 8.322,-2.436 12.651,-2.436c10.103,-0 18.086,3.092 23.951,9.27c5.863,6.179 8.795,15.269 8.795,27.265c0,1.174 -0.046,2.46 -0.134,3.856c-0.091,1.401 -0.183,2.639 -0.271,3.722l-45.736,-0c0.45,4.149 2.389,7.442 5.818,9.878c3.427,2.435 8.028,3.654 13.803,3.654c3.697,-0 7.328,-0.34 10.892,-1.015c1.115,-0.212 2.165,-0.439 3.152,-0.681l8.282,14.551Z" style="fill:#fff;fill-rule:nonzero;"/><path d="M371.13,106.809c-1.67,-1.844 -3.947,-3.562 -6.833,-5.153c-2.888,-1.59 -6.542,-3.207 -10.96,-4.846c-2.166,-0.814 -3.948,-1.565 -5.345,-2.248c-1.4,-0.681 -2.505,-1.316 -3.316,-1.903c-0.812,-0.586 -1.353,-1.196 -1.623,-1.829c-0.271,-0.629 -0.406,-1.351 -0.406,-2.165c-0,-3.516 3.157,-5.276 9.472,-5.276c3.427,-0 6.516,0.317 9.269,0.947c2.563,0.589 4.933,1.264 7.146,2.009l-0,-16.809c-1.607,-0.429 -3.421,-0.84 -5.455,-1.233c-3.971,-0.766 -8.119,-1.152 -12.449,-1.152c-8.66,-0 -15.473,1.942 -20.432,5.819c-4.963,3.88 -7.442,9.157 -7.442,15.832c-0,3.43 0.494,6.359 1.487,8.794c0.992,2.437 2.39,4.535 4.196,6.293c1.803,1.76 3.992,3.271 6.562,4.534c2.571,1.265 5.434,2.483 8.592,3.652c4.06,1.535 7.081,2.909 9.067,4.128c1.983,1.217 2.976,2.637 2.976,4.263c-0,2.074 -0.766,3.473 -2.299,4.194c-1.535,0.724 -4.15,1.083 -7.85,1.083c-3.517,-0 -7.082,-0.383 -10.689,-1.15c-1.907,-0.405 -3.791,-0.892 -5.648,-1.462l-8.29,14.655c1.625,0.722 4.534,1.623 8.728,2.707c4.195,1.081 9.45,1.623 15.765,1.623c9.651,-0 17.117,-1.802 22.394,-5.401c5.278,-3.6 7.917,-8.911 7.917,-15.932c-0,-2.969 -0.339,-5.58 -1.016,-7.829c-0.676,-2.251 -1.85,-4.299 -3.518,-6.145" style="fill:#fff;fill-rule:nonzero;"/><path d="M852.667,106.844c-1.671,-1.843 -3.947,-3.561 -6.833,-5.153c-2.889,-1.59 -6.542,-3.206 -10.96,-4.845c-2.166,-0.815 -3.948,-1.566 -5.346,-2.249c-1.399,-0.681 -2.504,-1.315 -3.315,-1.902c-0.812,-0.586 -1.354,-1.197 -1.623,-1.829c-0.271,-0.629 -0.406,-1.352 -0.406,-2.165c0,-3.517 3.157,-5.276 9.472,-5.276c3.427,-0 6.516,0.316 9.269,0.946c2.563,0.59 4.933,1.265 7.146,2.009l0,-16.809c-1.607,-0.429 -3.421,-0.84 -5.455,-1.233c-3.97,-0.766 -8.119,-1.152 -12.449,-1.152c-8.659,-0 -15.473,1.943 -20.433,5.819c-4.962,3.88 -7.441,9.157 -7.441,15.833c0,3.429 0.494,6.359 1.487,8.794c0.992,2.436 2.39,4.534 4.196,6.292c1.802,1.76 3.992,3.271 6.562,4.535c2.571,1.264 5.435,2.482 8.593,3.652c4.059,1.535 7.08,2.909 9.065,4.127c1.984,1.217 2.977,2.638 2.977,4.263c0,2.075 -0.767,3.474 -2.299,4.194c-1.535,0.724 -4.15,1.084 -7.85,1.084c-3.516,-0 -7.083,-0.384 -10.689,-1.151c-1.907,-0.404 -3.79,-0.892 -5.648,-1.462l-8.29,14.655c1.624,0.722 4.535,1.623 8.729,2.707c4.194,1.081 9.449,1.623 15.765,1.623c9.65,-0 17.116,-1.802 22.393,-5.401c5.278,-3.6 7.916,-8.91 7.916,-15.931c0,-2.969 -0.338,-5.581 -1.014,-7.829c-0.677,-2.251 -1.851,-4.3 -3.519,-6.146" style="fill:#fff;fill-rule:nonzero;"/><path d="M553.722,142.151c-5.818,-0.09 -10.538,-0.717 -14.161,-1.879c-3.625,-1.162 -6.49,-2.794 -8.591,-4.898c-2.105,-2.102 -3.537,-4.654 -4.296,-7.651c-0.761,-2.997 -1.139,-6.377 -1.139,-10.134l-0,-77.105l19.999,-0l-0,73.078c-0,1.791 0.135,3.402 0.402,4.832c0.268,1.432 0.784,2.64 1.543,3.623c0.761,0.988 1.857,1.791 3.289,2.416c1.43,0.627 3.356,1.031 5.772,1.208l-2.819,16.51Z" style="fill:#fff;fill-rule:nonzero;"/><path d="M593.722,142.151c-5.818,-0.09 -10.538,-0.717 -14.161,-1.879c-3.625,-1.162 -6.49,-2.794 -8.591,-4.898c-2.105,-2.102 -3.537,-4.654 -4.296,-7.651c-0.761,-2.997 -1.139,-6.377 -1.139,-10.134l-0,-77.105l19.999,-0l-0,73.078c-0,1.791 0.135,3.402 0.402,4.832c0.268,1.432 0.784,2.64 1.543,3.623c0.761,0.988 1.857,1.791 3.289,2.416c1.43,0.627 3.356,1.031 5.772,1.208l-2.819,16.51Z" style="fill:#fff;fill-rule:nonzero;"/><path d="M793.721,142.151c-5.817,-0.09 -10.536,-0.717 -14.16,-1.879c-3.624,-1.162 -6.489,-2.794 -8.591,-4.898c-2.104,-2.102 -3.536,-4.654 -4.296,-7.651c-0.761,-2.997 -1.14,-6.377 -1.14,-10.134l0,-77.105l20,-0l0,73.078c0,1.791 0.134,3.402 0.402,4.832c0.268,1.432 0.783,2.64 1.544,3.623c0.76,0.988 1.856,1.791 3.289,2.416c1.43,0.627 3.355,1.031 5.771,1.208l-2.819,16.51Z" style="fill:#fff;fill-rule:nonzero;"/><path d="M507.2,73.816c0,3.804 -1.19,6.702 -3.575,8.688c-2.383,1.985 -5.081,2.98 -8.091,2.98c-3.011,0 -5.708,-0.995 -8.091,-2.98c-2.384,-1.986 -3.576,-4.884 -3.576,-8.688c0,-3.804 1.192,-6.7 3.576,-8.685c2.383,-1.985 5.08,-2.981 8.091,-2.981c3.01,0 5.708,0.996 8.091,2.981c2.385,1.985 3.575,4.881 3.575,8.685" style="fill:#fff;fill-rule:nonzero;"/><path d="M887.201,130.483c-0,3.804 -1.192,6.701 -3.576,8.688c-2.383,1.985 -5.08,2.98 -8.091,2.98c-3.01,-0 -5.707,-0.995 -8.091,-2.98c-2.383,-1.987 -3.575,-4.884 -3.575,-8.688c-0,-3.804 1.192,-6.7 3.575,-8.686c2.384,-1.985 5.081,-2.98 8.091,-2.98c3.011,-0 5.708,0.995 8.091,2.98c2.385,1.986 3.576,4.882 3.576,8.686" style="fill:#fff;fill-rule:nonzero;"/><path d="M1169.64,118.11c-3.04,3.138 -6.721,4.704 -11.037,4.704c-4.319,-0 -7.91,-1.566 -10.774,-4.704c-2.864,-3.135 -4.295,-7.62 -4.295,-13.457c-0,-5.922 1.455,-10.431 4.362,-13.526c2.908,-3.088 6.563,-4.636 10.971,-4.636c4.317,-0 7.952,1.567 10.906,4.701c2.95,3.138 4.427,7.624 4.427,13.461c-0,5.837 -1.52,10.322 -4.56,13.457m22.537,-33.252c-3.35,-5.706 -7.931,-10.083 -13.748,-13.133c-5.815,-3.049 -12.337,-4.574 -19.562,-4.574c-7.226,-0 -13.747,1.525 -19.564,4.574c-5.815,3.05 -10.397,7.427 -13.745,13.133c-3.226,5.491 -4.88,11.814 -5.001,18.96l-0.023,-0l-0,66.666l20,-0l-0,-32.207c5.41,2.573 11.429,3.874 18.069,3.874c7.224,-0 13.767,-1.521 19.63,-4.57c5.858,-3.05 10.485,-7.428 13.878,-13.134c3.391,-5.702 5.089,-12.302 5.089,-19.794c-0,-7.493 -1.675,-14.089 -5.023,-19.795" style="fill:#fff;fill-rule:nonzero;"/><path d="M291.97,97.484c-0.091,-1.713 -0.385,-3.383 -0.88,-5.006c-0.496,-1.625 -1.264,-3.065 -2.3,-4.329c-1.039,-1.265 -2.347,-2.302 -3.925,-3.115c-1.579,-0.81 -3.541,-1.216 -5.886,-1.216c-2.256,-0 -4.194,0.384 -5.819,1.15c-1.623,0.767 -2.976,1.782 -4.058,3.044c-1.083,1.264 -1.918,2.731 -2.504,4.398c-0.587,1.67 -1.014,3.361 -1.286,5.074l26.659,-0Zm15.29,40.387c-1.082,0.54 -2.526,1.082 -4.331,1.623c-1.805,0.542 -3.811,1.015 -6.02,1.421c-2.213,0.405 -4.581,0.744 -7.105,1.015c-2.526,0.271 -5.053,0.406 -7.577,0.406c-6.406,-0 -11.976,-0.948 -16.712,-2.842c-4.736,-1.894 -8.661,-4.486 -11.773,-7.78c-3.111,-3.293 -5.412,-7.194 -6.901,-11.705c-1.488,-4.509 -2.232,-9.381 -2.232,-14.614c0,-6.314 0.969,-11.84 2.91,-16.575c1.938,-4.737 4.487,-8.682 7.645,-11.84c3.156,-3.159 6.786,-5.548 10.892,-7.173c4.104,-1.623 8.322,-2.436 12.651,-2.436c10.103,-0 18.087,3.092 23.952,9.27c5.863,6.179 8.794,15.269 8.794,27.265c0,1.174 -0.046,2.46 -0.135,3.856c-0.089,1.401 -0.182,2.639 -0.269,3.722l-45.738,-0c0.452,4.149 2.391,7.442 5.82,9.878c3.427,2.435 8.028,3.654 13.802,3.654c3.697,-0 7.328,-0.34 10.892,-1.015c1.115,-0.212 2.166,-0.439 3.152,-0.681l8.283,14.551Z" style="fill:#fff;fill-rule:nonzero;"/><path d="M84.523,76.411c-13.924,-0.361 -25.484,-10.39 -28.185,-23.613c-0.93,-0.265 -1.82,-0.615 -2.664,-1.061c-2.076,-1.097 -3.708,-2.663 -4.896,-4.7c-1.189,-2.036 -1.783,-4.418 -1.783,-7.143c0,-2.695 0.601,-5.068 1.807,-7.12c1.204,-2.052 2.852,-3.627 4.944,-4.724c2.092,-1.097 4.438,-1.645 7.036,-1.645c2.599,-0 4.945,0.548 7.036,1.645c2.093,1.097 3.741,2.672 4.945,4.724c1.204,2.052 1.807,4.425 1.807,7.12c0,2.695 -0.611,5.068 -1.831,7.12c-1.22,2.052 -2.884,3.626 -4.991,4.723c-0.97,0.505 -1.995,0.887 -3.068,1.159c2.541,8.685 10.428,15.105 19.843,15.441l0,-30.844c-0.357,-0.151 -0.71,-0.312 -1.053,-0.494c-2.076,-1.096 -3.708,-2.663 -4.896,-4.699c-1.189,-2.036 -1.783,-4.418 -1.783,-7.144c0,-2.694 0.601,-5.067 1.807,-7.119c1.204,-2.052 2.852,-3.627 4.944,-4.724c2.092,-1.097 4.438,-1.645 7.036,-1.645c2.599,-0 4.945,0.548 7.037,1.645c2.092,1.097 3.74,2.672 4.944,4.724c1.204,2.052 1.807,4.425 1.807,7.119c0,2.695 -0.611,5.069 -1.831,7.12c-1.22,2.052 -2.884,3.627 -4.991,4.723c-0.298,0.156 -0.603,0.297 -0.911,0.43l0,44.998c9.965,-3.916 17.421,-12.849 19.242,-23.678c-0.804,-0.251 -1.576,-0.567 -2.313,-0.957c-2.076,-1.096 -3.708,-2.663 -4.896,-4.7c-1.189,-2.036 -1.784,-4.418 -1.784,-7.143c0,-2.695 0.602,-5.067 1.808,-7.12c1.204,-2.052 2.852,-3.627 4.943,-4.723c2.093,-1.097 4.438,-1.646 7.037,-1.646c2.599,-0 4.945,0.549 7.036,1.646c2.092,1.096 3.74,2.671 4.945,4.723c1.204,2.053 1.807,4.425 1.807,7.12c0,2.694 -0.611,5.068 -1.831,7.119c-1.22,2.052 -2.884,3.628 -4.992,4.724c-1.14,0.594 -2.354,1.02 -3.638,1.292c-2.141,15.161 -13.02,27.549 -27.364,31.89l0,11.731c19.048,-2.094 35.194,-13.957 43.321,-30.45l0,-37.56c0,-18.609 -15.086,-33.695 -33.696,-33.695l-44.197,-0c-15.873,9.661 -26.495,27.127 -26.495,47.028c0,24.026 15.483,44.501 36.995,51.978l0,13.522c-28.74,-7.915 -49.913,-34.279 -49.913,-65.5c0,-18.241 7.241,-34.812 18.982,-47.028l-7.935,-0c-18.61,-0 -33.695,15.086 -33.695,33.695l0,72.564c0,18.61 15.085,33.695 33.695,33.695l50.828,-0l0,-64.543Z" style="fill:#fff;fill-rule:nonzero;"/><path d="M126.185,45.949c0,-2.1 -0.531,-3.713 -1.592,-4.841c-1.063,-1.128 -2.37,-1.692 -3.923,-1.692c-1.585,-0 -2.9,0.557 -3.946,1.668c-1.046,1.113 -1.569,2.735 -1.569,4.865c0,2.099 0.515,3.712 1.545,4.84c1.03,1.128 2.321,1.692 3.875,1.692c1.552,-0 2.877,-0.564 3.97,-1.692c1.093,-1.128 1.64,-2.741 1.64,-4.84" style="fill:#fff;fill-rule:nonzero;"/><path d="M96.634,115.685l-0,25.27l9.625,-0c18.609,-0 33.695,-15.086 33.695,-33.696l-0,-12.647c-11.092,11.748 -26.31,19.563 -43.32,21.073" style="fill:#fff;fill-rule:nonzero;"/><path d="M60.783,33.362c-1.585,-0 -2.9,0.556 -3.946,1.667c-1.046,1.113 -1.569,2.735 -1.569,4.864c-0,2.1 0.515,3.714 1.545,4.841c1.03,1.128 2.322,1.692 3.875,1.692c1.553,-0 2.877,-0.564 3.969,-1.692c1.094,-1.127 1.641,-2.741 1.641,-4.84c-0.001,-2.099 -0.531,-3.713 -1.593,-4.841c-1.062,-1.128 -2.369,-1.691 -3.922,-1.691" style="fill:#fff;fill-rule:nonzero;"/><path d="M90.578,18.624c-1.585,-0 -2.9,0.557 -3.946,1.668c-1.046,1.113 -1.569,2.735 -1.569,4.864c0,2.1 0.515,3.714 1.545,4.841c1.03,1.128 2.322,1.692 3.875,1.692c1.553,-0 2.877,-0.564 3.97,-1.692c1.093,-1.127 1.64,-2.741 1.64,-4.841c0,-2.099 -0.531,-3.712 -1.592,-4.841c-1.063,-1.127 -2.37,-1.691 -3.923,-1.691" style="fill:#fff;fill-rule:nonzero;"/></g></svg>