<?xml version="1.0" encoding="UTF-8" standalone="no"?><!DOCTYPE svg PUBLIC "-//W3C//DTD SVG 1.1//EN" "http://www.w3.org/Graphics/SVG/1.1/DTD/svg11.dtd"><svg width="100%" height="100%" viewBox="0 0 1198 170" version="1.1" xmlns="http://www.w3.org/2000/svg" xmlns:xlink="http://www.w3.org/1999/xlink" xml:space="preserve" xmlns:serif="http://www.serif.com/" style="fill-rule:evenodd;clip-rule:evenodd;stroke-linejoin:round;stroke-miterlimit:2;"><g><rect x="385.53" y="96.15" width="40" height="15" style="fill:#fff;fill-rule:nonzero;"/><path d="M505.53,139.48l-20,0l-0,-22.25c-0,-12 8.31,-21.78 20,-24.41l-0,46.66Z" style="fill:#fff;fill-rule:nonzero;"/><path d="M745.53,137.09c-4.326,1.195 -8.721,2.123 -13.16,2.78c-5.601,0.869 -11.262,1.297 -16.93,1.28c-4.785,0.169 -9.554,-0.662 -14,-2.44c-3.701,-1.412 -6.969,-3.766 -9.48,-6.83c-2.412,-3.086 -4.119,-6.664 -5,-10.48c-1.026,-4.392 -1.522,-8.89 -1.48,-13.4l0,-40.18l20,0l0,37.74c0,6.5 0.853,11.193 2.56,14.08c1.71,2.89 3.89,4.33 8.56,4.33c1.43,0 3,-0.07 4.58,-0.21c1.58,-0.14 3,-0.29 4.3,-0.47l0,-55.47l20,-0l0.05,69.27Z" style="fill:#fff;fill-rule:nonzero;"/><path d="M1054.11,136.58c-5.693,-2.968 -10.42,-7.504 -13.62,-13.07c-3.419,-6.051 -5.146,-12.912 -5,-19.86c-0.152,-6.927 1.576,-13.767 5,-19.79c3.234,-5.599 8.002,-10.159 13.74,-13.14c12.323,-6.088 26.807,-6.088 39.13,0c5.743,2.978 10.515,7.538 13.75,13.14c3.424,6.023 5.153,12.863 5,19.79c0.144,6.94 -1.617,13.789 -5.09,19.8c-3.288,5.603 -8.103,10.158 -13.88,13.13c-6.073,3.099 -12.812,4.668 -19.63,4.57c-6.743,0.093 -13.407,-1.477 -19.4,-4.57Zm30.53,-19.47c3.04,-3.127 4.56,-7.613 4.56,-13.46c-0,-5.847 -1.477,-10.333 -4.43,-13.46c-2.856,-2.999 -6.822,-4.699 -10.964,-4.699c-4.113,0 -8.053,1.676 -10.906,4.639c-2.913,3.093 -4.37,7.6 -4.37,13.52c-0,5.92 1.433,10.407 4.3,13.46c2.72,3.075 6.665,4.797 10.77,4.7c4.177,0.063 8.191,-1.645 11.04,-4.7Z" style="fill:#ee4322;fill-rule:nonzero;"/><path d="M969.11,136.58c-5.693,-2.968 -10.42,-7.504 -13.62,-13.07c-3.419,-6.051 -5.146,-12.912 -5,-19.86c-0.152,-6.927 1.576,-13.767 5,-19.79c3.253,-5.609 8.047,-10.17 13.81,-13.14c12.323,-6.088 26.807,-6.088 39.13,-0c5.743,2.978 10.515,7.538 13.75,13.14c3.424,6.023 5.153,12.863 5,19.79c0.144,6.94 -1.617,13.789 -5.09,19.8c-3.288,5.603 -8.103,10.158 -13.88,13.13c-6.073,3.099 -12.812,4.668 -19.63,4.57c-6.767,0.105 -13.456,-1.465 -19.47,-4.57Zm30.53,-19.47c3.04,-3.127 4.56,-7.613 4.56,-13.46c0,-5.847 -1.477,-10.333 -4.43,-13.46c-2.856,-2.999 -6.822,-4.699 -10.964,-4.699c-4.113,0 -8.053,1.676 -10.906,4.639c-2.907,3.093 -4.363,7.6 -4.37,13.52c-0.007,5.92 1.427,10.407 4.3,13.46c2.72,3.075 6.665,4.797 10.77,4.7c4.177,0.063 8.191,-1.645 11.04,-4.7Z" style="fill:#ee4322;fill-rule:nonzero;"/><path d="M945.13,129.56c-2.1,-3.623 -3.704,-7.511 -4.77,-11.56c-2.76,2.498 -6.368,3.857 -10.09,3.8c-4.105,0.097 -8.05,-1.625 -10.77,-4.7c-2.873,-3.127 -4.307,-7.613 -4.3,-13.46c0.007,-5.847 1.46,-10.353 4.36,-13.52c5.571,-5.777 14.812,-6.184 20.87,-0.92c1.082,-4.004 2.689,-7.848 4.78,-11.43c1.453,-2.479 3.126,-4.822 5,-7c-0.047,-0.021 -0.09,-0.048 -0.13,-0.08c-12.323,-6.088 -26.807,-6.088 -39.13,-0c-5.74,2.979 -10.508,7.539 -13.74,13.14c-3.429,6.021 -5.157,12.863 -5,19.79c-0.151,6.949 1.577,13.811 5,19.86c3.197,5.565 7.92,10.101 13.61,13.07c6.023,3.109 12.723,4.679 19.5,4.57c6.817,0.097 13.556,-1.472 19.63,-4.57l0.17,-0.1c-1.867,-2.142 -3.537,-4.448 -4.99,-6.89Z" style="fill:#ee4322;fill-rule:nonzero;"/><path d="M233.87,119.48l-35,0l0,-100c-12.51,4 -20,16.13 -20,29.34l0,90.66l55,0l0,-20Z" style="fill:#fff;fill-rule:nonzero;"/><path d="M410.53,19.48l-0,20l35,0l-0,100l20,0l-0,-100l18.34,0c10.972,0 20,-9.028 20,-20l-93.34,0Z" style="fill:#fff;fill-rule:nonzero;"/><path d="M668,136.65c-1.397,0.657 -2.845,1.199 -4.33,1.62c-1.971,0.587 -3.975,1.061 -6,1.42c-2.22,0.41 -4.58,0.75 -7.11,1c-2.518,0.271 -5.048,0.408 -7.58,0.41c-5.701,0.123 -11.372,-0.844 -16.71,-2.85c-4.447,-1.698 -8.466,-4.354 -11.77,-7.78c-3.139,-3.34 -5.497,-7.337 -6.9,-11.7c-1.522,-4.722 -2.274,-9.659 -2.23,-14.62c-0.123,-5.66 0.866,-11.29 2.91,-16.57c1.726,-4.42 4.324,-8.446 7.64,-11.84c3.095,-3.117 6.803,-5.559 10.89,-7.17c4.023,-1.612 8.316,-2.44 12.65,-2.44c10.107,0 18.107,3.09 24,9.27c5.893,6.18 8.823,15.27 8.79,27.27c0,1.17 -0.05,2.46 -0.13,3.85c-0.08,1.39 -0.19,2.64 -0.27,3.72l-45.79,0c0.359,3.997 2.498,7.628 5.82,9.88c3.42,2.44 8,3.66 13.8,3.66c3.653,0.011 7.3,-0.324 10.89,-1c1.12,-0.21 2.17,-0.44 3.15,-0.68l8.28,14.55Zm-15.28,-40.39c-0.095,-1.695 -0.391,-3.374 -0.88,-5c-0.476,-1.58 -1.257,-3.051 -2.3,-4.33c-1.082,-1.299 -2.42,-2.361 -3.93,-3.12c-1.836,-0.864 -3.852,-1.278 -5.88,-1.21c-2.001,-0.054 -3.99,0.339 -5.82,1.15c-1.553,0.698 -2.937,1.721 -4.06,3c-1.1,1.3 -1.951,2.791 -2.51,4.4c-0.576,1.649 -1.005,3.345 -1.28,5.07l26.66,0.04Z" style="fill:#fff;fill-rule:nonzero;"/><path d="M371.13,105.81c-1.981,-2.078 -4.288,-3.817 -6.83,-5.15c-3.545,-1.879 -7.222,-3.5 -11,-4.85c-2.17,-0.81 -3.95,-1.57 -5.35,-2.25c-1.156,-0.538 -2.263,-1.173 -3.31,-1.9c-0.698,-0.452 -1.262,-1.084 -1.63,-1.83c-0.279,-0.685 -0.415,-1.42 -0.4,-2.16c0,-3.52 3.157,-5.28 9.47,-5.28c3.118,-0.014 6.227,0.321 9.27,1c2.412,0.546 4.795,1.214 7.14,2l0,-16.85c-1.6,-0.433 -3.417,-0.847 -5.45,-1.24c-4.104,-0.776 -8.273,-1.161 -12.45,-1.15c-8.667,0 -15.477,1.94 -20.43,5.82c-4.953,3.88 -7.42,9.157 -7.4,15.83c-0.076,3.001 0.426,5.989 1.48,8.8c0.95,2.364 2.38,4.506 4.2,6.29c1.931,1.85 4.146,3.379 6.56,4.53c2.797,1.367 5.664,2.585 8.59,3.65c3.138,1.11 6.173,2.492 9.07,4.13c2,1.22 3,2.64 3,4.27c-0,2.073 -0.767,3.47 -2.3,4.19c-1.54,0.72 -4.15,1.08 -7.85,1.08c-3.594,-0.006 -7.177,-0.391 -10.69,-1.15c-1.913,-0.4 -3.797,-0.887 -5.65,-1.46l-8.29,14.66c2.842,1.108 5.759,2.01 8.73,2.7c5.166,1.19 10.46,1.737 15.76,1.63c9.647,0 17.113,-1.8 22.4,-5.4c5.287,-3.6 7.923,-8.913 7.91,-15.94c0.05,-2.645 -0.287,-5.283 -1,-7.83c-0.706,-2.288 -1.92,-4.387 -3.55,-6.14Z" style="fill:#fff;fill-rule:nonzero;"/><path d="M852.67,105.84c-1.982,-2.08 -4.293,-3.82 -6.84,-5.15c-3.542,-1.883 -7.219,-3.501 -11,-4.84c-2.16,-0.82 -3.94,-1.57 -5.34,-2.25c-1.159,-0.541 -2.27,-1.18 -3.32,-1.91c-0.695,-0.449 -1.255,-1.078 -1.62,-1.82c-0.282,-0.688 -0.422,-1.426 -0.41,-2.17c-0,-3.52 3.16,-5.28 9.48,-5.28c3.114,-0.014 6.221,0.321 9.26,1c2.57,0.59 4.94,1.27 7.15,2l-0,-16.85c-1.61,-0.43 -3.42,-0.84 -5.45,-1.23c-4.104,-0.781 -8.273,-1.166 -12.45,-1.15c-8.667,0 -15.48,1.94 -20.44,5.82c-4.96,3.88 -7.44,9.157 -7.44,15.83c-0.074,2.999 0.432,5.983 1.49,8.79c0.941,2.369 2.373,4.513 4.2,6.29c1.933,1.85 4.147,3.382 6.56,4.54c2.8,1.36 5.667,2.579 8.59,3.65c3.138,1.11 6.173,2.492 9.07,4.13c2,1.22 3,2.64 3,4.26c-0,2.08 -0.76,3.47 -2.3,4.19c-1.54,0.72 -4.15,1.09 -7.85,1.09c-3.591,-0.006 -7.17,-0.392 -10.68,-1.15c-1.91,-0.41 -3.8,-0.89 -5.65,-1.46l-8.29,14.65c7.794,3.056 16.12,4.528 24.49,4.33c9.653,0 17.117,-1.8 22.39,-5.4c5.273,-3.6 7.913,-8.91 7.92,-15.93c0.045,-2.644 -0.292,-5.282 -1,-7.83c-0.699,-2.287 -1.902,-4.389 -3.52,-6.15Z" style="fill:#fff;fill-rule:nonzero;"/><path d="M553.72,141.15c-4.786,0.054 -9.554,-0.58 -14.16,-1.88c-3.214,-0.922 -6.161,-2.602 -8.59,-4.9c-2.108,-2.107 -3.595,-4.754 -4.3,-7.65c-0.798,-3.316 -1.181,-6.719 -1.14,-10.13l0,-77.11l20,-0l0,73.08c-0.013,1.619 0.124,3.236 0.41,4.83c0.391,2.729 2.248,5.035 4.83,6c1.843,0.719 3.793,1.128 5.77,1.21l-2.82,16.55Z" style="fill:#fff;fill-rule:nonzero;"/><path d="M593.72,141.15c-4.786,0.054 -9.554,-0.58 -14.16,-1.88c-3.214,-0.922 -6.161,-2.602 -8.59,-4.9c-2.108,-2.107 -3.595,-4.754 -4.3,-7.65c-0.798,-3.316 -1.181,-6.719 -1.14,-10.13l0,-77.11l20,-0l0,73.08c-0.013,1.619 0.124,3.236 0.41,4.83c0.391,2.729 2.248,5.035 4.83,6c1.843,0.719 3.793,1.128 5.77,1.21l-2.82,16.55Z" style="fill:#fff;fill-rule:nonzero;"/><path d="M793.72,141.15c-4.786,0.054 -9.554,-0.58 -14.16,-1.88c-3.214,-0.922 -6.161,-2.602 -8.59,-4.9c-2.108,-2.107 -3.595,-4.754 -4.3,-7.65c-0.798,-3.316 -1.181,-6.719 -1.14,-10.13l0,-77.11l20,-0l0,73.08c-0.013,1.619 0.124,3.236 0.41,4.83c0.391,2.729 2.248,5.035 4.83,6c1.843,0.719 3.793,1.128 5.77,1.21l-2.82,16.55Z" style="fill:#fff;fill-rule:nonzero;"/><path d="M507.2,72.82c0,3.8 -1.19,6.693 -3.57,8.68c-4.645,3.958 -11.545,3.958 -16.19,0c-2.38,-2 -3.57,-4.893 -3.57,-8.68c0,-3.787 1.19,-6.683 3.57,-8.69c4.645,-3.958 11.545,-3.958 16.19,-0c2.38,1.993 3.57,4.89 3.57,8.69Z" style="fill:#ee4322;fill-rule:nonzero;"/><path d="M887.2,129.48c0,3.813 -1.19,6.71 -3.57,8.69c-4.645,3.958 -11.545,3.958 -16.19,0c-2.38,-2 -3.57,-4.897 -3.57,-8.69c0,-3.793 1.19,-6.687 3.57,-8.68c4.645,-3.958 11.545,-3.958 16.19,0c2.38,1.98 3.57,4.873 3.57,8.68Z" style="fill:#ee4322;fill-rule:nonzero;"/><path d="M1192.18,83.86c-3.235,-5.602 -8.007,-10.162 -13.75,-13.14c-12.323,-6.088 -26.807,-6.088 -39.13,0c-5.738,2.981 -10.506,7.541 -13.74,13.14c-3.303,5.785 -5.028,12.338 -5,19l0,66.66l20,0l0,-32.2c12.036,5.392 25.872,5.135 37.7,-0.7c5.777,-2.972 10.592,-7.527 13.88,-13.13c3.473,-6.011 5.234,-12.86 5.09,-19.8c0.145,-6.945 -1.601,-13.8 -5.05,-19.83Zm-22.54,33.25c-2.84,3.044 -6.837,4.752 -11,4.7c-4.105,0.097 -8.05,-1.625 -10.77,-4.7c-2.86,-3.127 -4.293,-7.613 -4.3,-13.46c-0.007,-5.847 1.45,-10.353 4.37,-13.52c2.853,-2.963 6.793,-4.639 10.906,-4.639c4.142,0 8.108,1.7 10.964,4.699c2.953,3.14 4.43,7.627 4.43,13.46c0,5.833 -1.533,10.32 -4.6,13.46Z" style="fill:#ee4322;fill-rule:nonzero;"/><path d="M307.26,136.87c-1.396,0.658 -2.844,1.2 -4.33,1.62c-1.971,0.588 -3.974,1.062 -6,1.42c-2.213,0.407 -4.58,0.74 -7.1,1c-2.518,0.271 -5.048,0.408 -7.58,0.41c-5.701,0.125 -11.373,-0.843 -16.71,-2.85c-4.45,-1.698 -8.472,-4.354 -11.78,-7.78c-3.139,-3.34 -5.497,-7.337 -6.9,-11.7c-1.522,-4.722 -2.274,-9.659 -2.23,-14.62c-0.118,-5.66 0.871,-11.289 2.91,-16.57c1.732,-4.4 4.322,-8.411 7.62,-11.8c3.097,-3.12 6.809,-5.561 10.9,-7.17c4.023,-1.612 8.316,-2.44 12.65,-2.44c10.1,0 18.1,3.09 24,9.27c5.9,6.18 8.83,15.27 8.79,27.27c0,1.17 0,2.46 -0.13,3.85c-0.13,1.39 -0.18,2.64 -0.27,3.72l-45.79,0c0.359,3.997 2.498,7.628 5.82,9.88c3.427,2.44 8.027,3.66 13.8,3.66c3.657,0.01 7.306,-0.324 10.9,-1c1.11,-0.21 2.16,-0.44 3.15,-0.68l8.28,14.51Zm-15.26,-40.39c-0.086,-1.697 -0.381,-3.376 -0.88,-5c-0.95,-3.254 -3.217,-5.967 -6.25,-7.48c-1.836,-0.85 -3.848,-1.254 -5.87,-1.18c-2.01,-0.047 -4.006,0.356 -5.84,1.18c-1.551,0.701 -2.935,1.723 -4.06,3c-1.101,1.298 -1.949,2.79 -2.5,4.4c-0.584,1.647 -1.016,3.344 -1.29,5.07l26.69,0.01Z" style="fill:#fff;fill-rule:nonzero;"/><path d="M84.52,75.41c-13.687,-0.375 -25.414,-10.2 -28.18,-23.61c-0.922,-0.265 -1.817,-0.62 -2.67,-1.06c-2.046,-1.085 -3.742,-2.729 -4.89,-4.74c-1.217,-2.168 -1.832,-4.624 -1.78,-7.11c-0.047,-2.493 0.578,-4.952 1.81,-7.12c1.18,-2.019 2.916,-3.658 5,-4.72c4.432,-2.185 9.638,-2.185 14.07,0c2.062,1.071 3.777,2.708 4.94,4.72c1.236,2.166 1.862,4.627 1.81,7.12c0.033,2.498 -0.621,4.958 -1.89,7.11c-1.182,2.021 -2.917,3.662 -5,4.73c-0.978,0.498 -2.007,0.887 -3.07,1.16c2.601,8.859 10.624,15.103 19.85,15.45l0,-30.85c-0.35,-0.15 -0.71,-0.31 -1,-0.49c-2.048,-1.067 -3.748,-2.698 -4.9,-4.7c-1.219,-2.179 -1.834,-4.644 -1.78,-7.14c-0.077,-2.502 0.532,-4.979 1.76,-7.16c1.16,-2.017 2.875,-3.659 4.94,-4.73c4.432,-2.185 9.638,-2.185 14.07,0c2.087,1.063 3.823,2.706 5,4.73c1.234,2.167 1.86,4.627 1.81,7.12c0.05,2.496 -0.583,4.958 -1.83,7.12c-1.186,2.015 -2.92,3.652 -5,4.72c-0.29,0.15 -0.6,0.3 -0.91,0.43l0,45c10.111,-3.968 17.426,-12.971 19.24,-23.68c-0.799,-0.262 -1.572,-0.597 -2.31,-1c-2.048,-1.064 -3.746,-2.696 -4.89,-4.7c-1.223,-2.132 -1.858,-4.552 -1.84,-7.01c-0.055,-2.493 0.571,-4.955 1.81,-7.12c1.16,-2.014 2.875,-3.653 4.94,-4.72c4.432,-2.199 9.648,-2.199 14.08,0c2.065,1.067 3.78,2.706 4.94,4.72c1.239,2.165 1.865,4.627 1.81,7.12c0.052,2.496 -0.581,4.958 -1.83,7.12c-1.185,2.016 -2.919,3.653 -5,4.72c-1.147,0.578 -2.369,0.995 -3.63,1.24c-2.147,15.026 -12.847,27.505 -27.37,31.92l0,11.74c18.693,-2.087 35.074,-13.599 43.37,-30.48l0,-37.56c0,-0.003 0,-0.007 0,-0.01c0,-18.482 -15.208,-33.69 -33.69,-33.69c-0.017,-0 -0.033,-0 -0.05,0l-44.2,0c-16.426,9.957 -26.488,27.825 -26.488,47.033c-0,23.375 14.902,44.312 36.988,51.967l0,13.52c-29.384,-8.066 -49.905,-34.978 -49.905,-65.449c-0,-17.548 6.805,-34.429 18.975,-47.071l-7.93,0c-18.487,0 -33.7,15.213 -33.7,33.7l0,72.56c-0,0.017 -0,0.033 -0,0.05c-0,18.482 15.208,33.69 33.69,33.69c0.003,0 0.007,0 0.01,0l50.82,0l0,-64.59Z" style="fill:#ee4322;fill-rule:nonzero;"/><path d="M126.19,45c0.113,-1.759 -0.461,-3.495 -1.6,-4.84c-1.029,-1.07 -2.451,-1.675 -3.935,-1.675c-1.484,0 -2.906,0.605 -3.935,1.675c-1.117,1.355 -1.675,3.087 -1.56,4.84c-0.118,1.75 0.433,3.48 1.54,4.84c0.979,1.109 2.401,1.729 3.88,1.69c1.512,0.03 2.968,-0.585 4,-1.69c1.154,-1.337 1.734,-3.078 1.61,-4.84Z" style="fill:#ee4322;fill-rule:nonzero;"/><path d="M96.63,114.69l0,25.31l9.63,0c0.017,0 0.033,0 0.05,0c18.482,0 33.69,-15.208 33.69,-33.69c0,-0.017 0,-0.033 0,-0.05l0,-12.65c-11.381,12.102 -26.823,19.608 -43.37,21.08Z" style="fill:#ee4322;fill-rule:nonzero;"/><path d="M60.78,32.36c-1.487,-0.045 -2.924,0.553 -3.94,1.64c-1.134,1.355 -1.697,3.098 -1.57,4.86c-0.12,1.75 0.431,3.481 1.54,4.84c0.977,1.113 2.4,1.736 3.88,1.7c1.513,0.026 2.969,-0.592 4,-1.7c1.167,-1.331 1.758,-3.074 1.64,-4.84c0.117,-1.758 -0.453,-3.494 -1.59,-4.84c-1.017,-1.1 -2.463,-1.706 -3.96,-1.66Z" style="fill:#ee4322;fill-rule:nonzero;"/><path d="M90.58,17.62c-1.512,-0.052 -2.974,0.558 -4,1.67c-1.129,1.361 -1.691,3.106 -1.57,4.87c-0.101,1.757 0.471,3.489 1.6,4.84c0.977,1.107 2.395,1.726 3.87,1.69c1.513,0.034 2.97,-0.582 4,-1.69c1.169,-1.33 1.76,-3.073 1.64,-4.84c0.117,-1.761 -0.454,-3.5 -1.59,-4.85c-1.011,-1.106 -2.452,-1.722 -3.95,-1.69Z" style="fill:#ee4322;fill-rule:nonzero;"/></g></svg>