<?xml version="1.0" encoding="UTF-8" standalone="no"?><!DOCTYPE svg PUBLIC "-//W3C//DTD SVG 1.1//EN" "http://www.w3.org/Graphics/SVG/1.1/DTD/svg11.dtd"><svg width="100%" height="100%" viewBox="0 0 140 29" version="1.1" xmlns="http://www.w3.org/2000/svg" xmlns:xlink="http://www.w3.org/1999/xlink" xml:space="preserve" xmlns:serif="http://www.serif.com/" style="fill-rule:evenodd;clip-rule:evenodd;stroke-linejoin:round;stroke-miterlimit:2;"><g><g><path id="outer_24_" d="M27.715,14.011c0,7.574 -6.13,13.704 -13.704,13.704c-7.575,0 -13.705,-6.13 -13.705,-13.704c0,-7.575 6.13,-13.705 13.705,-13.705c7.574,0 13.704,6.13 13.704,13.705Zm-13.704,-12.873c-7.137,0 -12.873,5.736 -12.873,12.873c0,7.136 5.78,12.872 12.873,12.872c7.136,0 12.872,-5.779 12.872,-12.872c0,-7.137 -5.736,-12.873 -12.872,-12.873Z" style="fill:url(#_Linear1);fill-rule:nonzero;"/><path d="M14.011,1.138c-7.137,0 -12.873,5.736 -12.873,12.873c0,7.136 5.78,12.872 12.873,12.872c7.136,0 12.872,-5.779 12.872,-12.872c0,-7.137 -5.736,-12.873 -12.872,-12.873Zm-0,24.913c-6.655,0 -12.041,-5.385 -12.041,-12.04c0,-6.655 5.386,-12.041 12.041,-12.041c6.655,0 12.04,5.386 12.04,12.041c0,6.655 -5.385,12.04 -12.04,12.04Z" style="fill:url(#_Linear2);fill-rule:nonzero;"/><path d="M14.011,27.715c7.574,0 13.704,-6.13 13.704,-13.704c0,-7.575 -6.13,-13.705 -13.704,-13.705c-7.575,0 -13.705,6.13 -13.705,13.705c0,7.574 6.13,13.704 13.705,13.704Zm-0,-27.715c7.706,0 14.011,6.305 14.011,14.011c-0,7.706 -6.305,14.011 -14.011,14.011c-7.706,-0 -14.011,-6.305 -14.011,-14.011c-0,-7.706 6.305,-14.011 14.011,-14.011Z" style="fill:url(#_Linear3);fill-rule:nonzero;"/><path d="M0.963,14.055c0,-7.181 5.823,-13.092 13.048,-13.092c7.224,0 13.047,5.867 13.047,13.092c0,7.18 -5.823,13.003 -13.047,13.003c-7.225,0 -13.048,-5.823 -13.048,-13.003Zm4.072,-9.02c-2.32,2.321 -3.765,5.517 -3.765,9.02c-0,3.502 1.445,6.698 3.721,8.975c2.321,2.277 5.517,3.722 9.02,3.722c3.502,-0 6.699,-1.401 8.975,-3.722c2.321,-2.277 3.722,-5.473 3.722,-8.975c-0,-3.503 -1.445,-6.699 -3.722,-9.02c-2.276,-2.32 -5.473,-3.765 -8.975,-3.765c-3.503,-0 -6.699,1.445 -8.976,3.765Z" style="fill:#fff;fill-rule:nonzero;"/><path d="M14.011,26.095c-3.24,0 -6.261,-1.27 -8.538,-3.546c-2.277,-2.277 -3.547,-5.298 -3.547,-8.538c0,-3.24 1.27,-6.261 3.547,-8.538c2.277,-2.277 5.298,-3.547 8.538,-3.547c3.24,0 6.261,1.27 8.538,3.547c2.276,2.277 3.546,5.298 3.546,8.538c0,3.24 -1.27,6.261 -3.546,8.538c-2.277,2.276 -5.298,3.546 -8.538,3.546Zm-0,-0.35c3.108,-0 6.086,-1.226 8.275,-3.415c2.233,-2.233 3.415,-5.167 3.415,-8.275c-0,-3.109 -1.226,-6.086 -3.415,-8.276c-2.233,-2.233 -5.167,-3.415 -8.275,-3.415c-3.109,0 -6.086,1.226 -8.275,3.415c-2.233,2.146 -3.459,5.123 -3.459,8.232c-0,3.108 1.226,6.086 3.415,8.275c2.233,2.233 5.21,3.459 8.319,3.459Z" style="fill:url(#_Linear4);fill-rule:nonzero;"/><path d="M24.65,19.703c-0.219,-0.176 -8.669,-6.874 -8.669,-6.874l-1.97,-11.253c-0.132,0.044 -0.307,0.175 -0.394,0.35l-1.401,10.946l-8.713,6.699c-0,0 -0.175,0.219 -0.263,0.351c-0.044,0.087 -0.044,0.218 -0.044,0.35l10.771,-4.422l10.771,4.422c0.087,-0.219 -0,-0.438 -0.088,-0.569Z" style="fill:#fff;fill-rule:nonzero;"/><path d="M14.098,14.361l-0.087,2.014l9.895,3.984c0.35,0.176 0.613,0.088 0.876,-0.087l-10.552,-5.955c-0.044,-0.044 -0.132,0 -0.132,0.044Z" style="fill:#565f64;fill-rule:nonzero;"/><path d="M14.098,14.361c0,0 0.57,1.007 1.226,1.708c0.92,1.007 2.146,1.707 2.146,1.707l6.436,2.583c0.35,0.176 0.613,0.088 0.876,-0.087l-10.552,-5.955c-0.044,-0.044 -0.132,0 -0.132,0.044Z" style="fill:url(#_Linear5);fill-rule:nonzero;"/><path d="M24.738,19.878c-0,-0.044 -0.044,-0.088 -0.088,-0.175l-9.019,-6.612l-1.226,0.788c-0,0 0.087,0.044 0.131,0c0.132,-0.043 0.394,-0.087 0.657,0c0.219,0.088 9.545,6.043 9.545,5.999c-0,0.044 -0,0.044 -0,-0Z" style="fill:#a4aaae;fill-opacity:0.6;fill-rule:nonzero;"/><path d="M24.431,19.484l-8.406,-6.655l-0.394,0.262l9.019,6.655c-0.044,-0.087 -0.131,-0.175 -0.219,-0.262Z" style="fill:#333e46;fill-rule:nonzero;"/><path d="M14.23,13.704l-0.044,0.044c-0,0 -0,0.088 0.087,0.044c0.044,-0.044 1.314,-0.701 1.752,-0.963l-1.533,-10.508c-0.043,-0.395 -0.219,-0.57 -0.525,-0.701l0.175,12.172l0.088,-0.088Z" style="fill:#565f64;fill-rule:nonzero;"/><path d="M13.485,2.321l0,0.569l-0.963,9.676c0,0.131 0.044,0.263 0.175,0.35l0.569,0.438l0.394,-10.683l0.044,-0.832c-0.131,0.087 -0.175,0.263 -0.219,0.482Zm-0.525,11.208l-0.525,-0.438l-8.889,6.436c0,0 -0.262,0.176 -0.306,0.351l0.306,-0.175l9.326,-5.867c0.176,-0.088 0.219,-0.176 0.088,-0.307Z" style="fill:#a4aaae;fill-opacity:0.6;fill-rule:nonzero;"/><path d="M13.879,14.361c0,-0.044 -0.043,-0.088 -0.087,-0.044l-10.596,5.999c0.263,0.175 0.526,0.219 0.876,0.087l9.895,-3.984l-0.088,-2.058Z" style="fill:#565f64;fill-rule:nonzero;"/><path d="M14.186,13.748l0.044,-0.044l-0.044,0.044c-0,0 -0,0.044 0.044,0.044l0.043,-0c0.044,-0.044 1.314,-0.701 1.752,-0.963l-0.175,-1.27l-1.358,-9.238c0,-0.176 -0.043,-0.307 -0.131,-0.395c0,0 0.657,8.845 0.657,9.808c-0,1.27 -0.832,2.014 -0.832,2.014Z" style="fill:url(#_Linear6);fill-rule:nonzero;"/><path d="M13.879,14.361c0,-0.044 -0.043,-0.088 -0.087,-0.044l-10.596,5.999c0.263,0.175 0.526,0.219 0.876,0.087l9.895,-3.984l-0.088,-2.058Z" style="fill:url(#_Linear7);fill-rule:nonzero;"/><path d="M4.072,20.359l9.895,-3.984l-0.088,-1.926c-0.175,0.525 -0.481,1.094 -1.313,1.532c-0.613,0.35 -6.48,3.24 -8.582,4.247c-0.131,0.088 -0.306,0.131 -0.394,0.175c0.175,0.088 0.307,0.044 0.482,-0.044Z" style="fill:url(#_Linear8);fill-rule:nonzero;"/><path d="M14.23,13.704l-0.044,0.044c-0,0 -0,0.088 0.087,0.044c0.044,-0.044 1.314,-0.701 1.752,-0.963l-1.533,-10.508c-0.043,-0.395 -0.219,-0.57 -0.525,-0.701l0.175,12.172l0.088,-0.088Z" style="fill:url(#_Linear9);fill-rule:nonzero;"/><path d="M14.23,13.704l-0.044,0.044c-0,0 -0,0.088 0.087,0.044c0.044,-0.044 1.314,-0.701 1.752,-0.963l-1.533,-10.508c-0.043,-0.395 -0.219,-0.57 -0.525,-0.701l0.175,12.172l0.088,-0.088Z" style="fill:url(#_Linear10);fill-rule:nonzero;"/><path d="M2.233,19.44c-0.307,-0.701 -2.058,-4.116 -0.131,-10.683l-0.745,-0c-0.394,1.313 -0.7,2.101 -0.875,3.283c-0,0 -0.088,0.438 -0.132,0.92c-0.044,0.482 -0.044,0.744 -0.044,1.051c0,2.627 0.657,4.159 0.657,4.159c0.701,2.189 1.927,4.16 3.59,5.648c1.445,1.27 3.678,2.233 5.517,2.584c-0.306,-0.044 -5.56,-2.277 -7.837,-6.962Z" style="fill:url(#_Linear11);fill-rule:nonzero;"/><path d="M14.186,14.273l-0.394,0c0.044,0 0.087,0 0.087,0.044l0.088,2.014l0.044,0l0.087,-2.014c0,-0.044 0.044,-0.087 0.088,-0.044Z" style="fill:url(#_Linear12);fill-rule:nonzero;"/><path d="M18.389,1.007c4.597,1.751 8.932,6.568 8.932,12.653c-0,7.356 -5.867,13.354 -13.31,13.354l-0,0.701c7.443,0 13.704,-6.13 13.704,-13.704c0,-6.042 -3.853,-11.121 -9.326,-13.004Z" style="fill:url(#_Linear13);fill-rule:nonzero;"/><path d="M14.142,0.306l-0.131,0l0.131,0Z" style="fill:url(#_Linear14);fill-rule:nonzero;"/><path d="M25.745,8.844c-3.065,-7.049 -9.983,-7.443 -10.377,-7.487l-0.044,0c5.298,0.964 8.669,4.422 9.852,8.056l-0,0.044c0.525,1.401 0.788,2.89 0.831,4.51c0.044,1.532 -0.306,3.24 -0.963,4.816c-0.044,0.219 -0.087,0.482 -0.131,0.482l0.7,-0c2.102,-3.941 1.183,-7.925 0.132,-10.421Z" style="fill:url(#_Linear15);fill-rule:nonzero;"/><path d="M0.963,14.055c0,-7.181 5.823,-13.092 13.048,-13.092c7.224,0 13.047,5.867 13.047,13.092c0,7.18 -5.823,13.003 -13.047,13.003c-7.225,0 -13.048,-5.823 -13.048,-13.003Zm4.072,-9.02c-2.32,2.321 -3.765,5.517 -3.765,9.02c-0,3.502 1.445,6.698 3.721,8.975c2.321,2.277 5.517,3.722 9.02,3.722c3.502,-0 6.699,-1.401 8.975,-3.722c2.321,-2.277 3.722,-5.473 3.722,-8.975c-0,-3.503 -1.445,-6.699 -3.722,-9.02c-2.276,-2.32 -5.473,-3.765 -8.975,-3.765c-3.503,-0 -6.699,1.445 -8.976,3.765Z" style="fill:#fbfbfb;fill-rule:nonzero;"/><path d="M3.459,19.615l8.932,-6.436c0.481,0.263 1.269,0.613 1.357,0.613c0.088,0.044 0.088,-0.044 0.088,-0.044l-1.095,-0.919c-0.131,-0.088 -0.175,-0.219 -0.175,-0.351l1.051,-10.552c-0.044,0.044 -0.044,0.132 -0.088,0.176c-0.044,0.087 -0.044,0.131 -0.044,0.219l-1.532,10.551l-8.407,6.612c-0.043,0.043 -0.087,0.087 -0.087,0.131Z" style="fill:#333f47;fill-rule:nonzero;"/></g><path d="M103.723,15.093l3.758,-0l-0,-0.869l-3.758,-0l-0,0.869Zm-62.5,-6.146l-0.337,8.729l0,0.152c0,0.74 0.219,0.891 1.397,0.976l-0,0.403c-0.859,-0.067 -1.194,-0.084 -1.666,-0.084c-0.47,0 -0.806,0.017 -1.681,0.084l-0,-0.403c1.177,-0.085 1.345,-0.219 1.379,-1.128l0.353,-8.257l0,-0.101c0,-0.774 -0.236,-0.942 -1.396,-1.01l0,-0.42c0.656,0.051 0.908,0.067 1.379,0.067c0.622,0 0.959,-0.016 1.598,-0.084l3.129,8.511l3.178,-8.511c0.757,0.068 1.11,0.084 1.615,0.084c0.42,0 0.689,-0.016 1.329,-0.067l-0,0.42c-1.144,0.068 -1.396,0.236 -1.396,0.993l0,0.118l0.185,8.257c0.017,0.909 0.168,1.043 1.379,1.128l-0,0.403c-1.06,-0.101 -1.464,-0.134 -2.102,-0.134c-0.64,-0 -1.043,0.033 -2.103,0.134l-0,-0.403c1.144,-0.068 1.396,-0.253 1.396,-1.043l-0,-0.085l-0.152,-8.712l-2.774,7.501l-0.203,0.556l-0.234,0.622l-0.219,0.639l-0.185,0.555l-0.253,0l-0.185,-0.538l-0.235,-0.656l-0.236,-0.656l-0.202,-0.589l-2.758,-7.451Zm12.63,5.433c0.168,-1.934 0.807,-2.927 1.884,-2.927c1.093,0 1.648,0.942 1.749,2.927l-3.633,0Zm2.187,4.407c-1.531,0 -2.204,-1.177 -2.22,-3.802l5.012,0c-0.034,-2.59 -1.093,-3.969 -3.078,-3.969c-2.019,0 -3.28,1.632 -3.28,4.222c0,2.59 1.261,4.104 3.431,4.104c1.648,0 2.725,-1.026 2.944,-2.759l-0.673,0c-0.202,1.43 -0.942,2.204 -2.136,2.204m3.793,-7.148l0,-0.303c0.959,-0.084 1.53,-0.186 2.221,-0.387c0.083,0.623 0.117,0.891 0.151,1.396l0,0.185c0.369,-0.958 1.093,-1.514 1.968,-1.514c0.84,-0 1.463,0.556 1.463,1.362c-0,0.488 -0.286,0.808 -0.706,0.808c-0.387,-0 -0.69,-0.235 -0.69,-0.572c0,-0.034 0.017,-0.1 0.034,-0.168l0.033,-0.168l0,-0.151c0,-0.236 -0.202,-0.404 -0.505,-0.404c-0.874,0 -1.429,1.059 -1.429,2.725l0,3.515c0,0.723 0.168,0.857 1.194,0.908l-0,0.336c-0.925,-0.084 -1.278,-0.101 -1.867,-0.101c-0.606,0 -0.958,0.017 -1.884,0.101l0,-0.336c1.027,-0.051 1.212,-0.185 1.212,-0.908l-0,-5.5c-0.017,-0.723 -0.102,-0.808 -0.976,-0.824l-0.219,-0Zm12.237,-0.774l-0,2.775l-0.37,-0c-0.303,-1.463 -0.925,-2.17 -1.951,-2.17c-1.261,0 -2.002,1.363 -2.002,3.768c0,2.355 0.656,3.549 1.951,3.549c1.043,-0 1.666,-0.74 1.867,-2.22l0.69,-0c-0.219,1.799 -1.177,2.776 -2.692,2.776c-1.95,-0 -3.279,-1.65 -3.279,-4.105c-0,-2.506 1.345,-4.222 3.33,-4.222c0.723,0 1.178,0.185 1.716,0.707l0.454,-0.858l0.286,0Zm2.762,3.515c0.168,-1.934 0.807,-2.927 1.884,-2.927c1.093,0 1.648,0.942 1.749,2.927l-3.633,0Zm2.186,4.407c-1.53,0 -2.203,-1.177 -2.22,-3.802l5.013,0c-0.035,-2.59 -1.094,-3.969 -3.078,-3.969c-2.019,0 -3.28,1.632 -3.28,4.222c-0,2.59 1.261,4.104 3.431,4.104c1.648,0 2.725,-1.026 2.943,-2.759l-0.672,0c-0.202,1.43 -0.942,2.204 -2.137,2.204m7.45,0.101c-1.211,-0 -1.849,-1.261 -1.849,-3.667c-0,-2.439 0.588,-3.633 1.799,-3.633c1.245,0 1.884,1.279 1.884,3.751c0,2.338 -0.623,3.549 -1.834,3.549m3.162,-1.429l0,-9.711c-0.841,0.224 -1.598,0.358 -2.539,0.459l0,0.286c1.059,0 1.194,0.118 1.194,0.993l0,2.943c-0.622,-1.009 -1.11,-1.311 -2.018,-1.311c-1.8,-0 -3.062,1.698 -3.062,4.12c0,2.422 1.278,4.121 3.112,4.121c0.959,0 1.615,-0.437 2.085,-1.379c0.068,0.639 0.068,0.706 0.236,1.346c0.69,-0.219 0.975,-0.287 1.968,-0.404l0.252,-0.034l-0,-0.286c-1.127,-0.034 -1.228,-0.118 -1.228,-1.143m3.245,-3.079c0.168,-1.934 0.807,-2.927 1.883,-2.927c1.094,0 1.649,0.942 1.75,2.927l-3.633,0Zm2.186,4.407c-1.53,0 -2.203,-1.177 -2.22,-3.802l5.012,0c-0.034,-2.59 -1.094,-3.969 -3.078,-3.969c-2.018,0 -3.279,1.632 -3.279,4.222c-0,2.59 1.261,4.104 3.43,4.104c1.649,0 2.725,-1.026 2.944,-2.759l-0.673,0c-0.202,1.43 -0.942,2.204 -2.136,2.204m4.22,0.572l-0,-2.809l0.369,-0.017c0.304,1.531 1.01,2.27 2.187,2.27c0.992,0 1.733,-0.655 1.733,-1.513c-0,-0.572 -0.32,-0.959 -1.144,-1.329l-0.64,-0.286l-0.774,-0.353c-1.226,-0.572 -1.614,-1.043 -1.614,-2.018c-0,-1.329 1.043,-2.237 2.523,-2.237c0.656,-0 1.144,0.152 1.716,0.538l0.286,-0.69l0.302,0l0,2.607l-0.387,0c-0.151,-1.345 -0.706,-1.984 -1.766,-1.984c-0.891,-0 -1.58,0.605 -1.58,1.396c-0,0.672 0.251,0.891 1.783,1.564l0.706,0.303c1.278,0.555 1.732,1.093 1.732,2.085c0,1.413 -1.126,2.422 -2.708,2.422c-0.774,0 -1.379,-0.201 -2.018,-0.706l-0.404,0.757l-0.302,0Zm14.785,-5.803c0.892,0 1.396,0.151 1.783,0.538c0.387,0.387 0.605,1.11 0.605,1.918c-0,1.681 -0.841,2.624 -2.338,2.624l-0.605,0c-0.892,0 -1.043,-0.135 -1.043,-0.875l0,-4.205l1.598,0Zm-1.598,-5.096l1.429,-0c1.413,-0 2.035,0.689 2.035,2.254c0,0.773 -0.184,1.329 -0.554,1.766c-0.37,0.42 -0.824,0.555 -1.767,0.555l-1.143,-0l0,-4.575Zm4.962,2.22c0,-0.875 -0.37,-1.649 -1.01,-2.136c-0.571,-0.42 -1.227,-0.606 -2.321,-0.606l-4.423,0l-0,0.421c1.211,0.067 1.379,0.202 1.379,1.11l0,8.157c0,0.909 -0.134,1.026 -1.379,1.127l-0,0.404l4.255,-0c1.245,-0 1.918,-0.152 2.624,-0.589c0.842,-0.538 1.397,-1.564 1.397,-2.624c-0,-0.908 -0.387,-1.732 -1.044,-2.237c-0.353,-0.269 -0.723,-0.42 -1.328,-0.538c1.211,-0.454 1.85,-1.312 1.85,-2.489m3.267,3.7c0.168,-1.934 0.807,-2.927 1.883,-2.927c1.094,0 1.649,0.942 1.75,2.927l-3.633,0Zm2.187,4.407c-1.531,0 -2.204,-1.177 -2.221,-3.802l5.012,0c-0.034,-2.59 -1.093,-3.969 -3.078,-3.969c-2.018,0 -3.279,1.632 -3.279,4.222c-0,2.59 1.261,4.104 3.43,4.104c1.649,0 2.725,-1.026 2.944,-2.759l-0.673,0c-0.201,1.43 -0.942,2.204 -2.135,2.204m3.681,-7.081l-0,-0.286c0.976,-0.135 1.549,-0.269 2.22,-0.505c0.084,0.387 0.134,0.824 0.168,1.464c0.606,-0.909 1.297,-1.312 2.271,-1.312c1.009,-0 1.884,0.521 2.22,1.345c0.169,0.404 0.253,0.875 0.253,1.514l-0,4.036c-0,0.723 0.168,0.859 1.195,0.909l-0,0.337c-0.892,-0.085 -1.229,-0.101 -1.834,-0.101c-0.623,-0 -0.959,0.016 -1.834,0.101l0,-0.337c0.909,-0.033 1.127,-0.202 1.127,-0.874l-0,-4.121c-0,-1.464 -0.437,-2.052 -1.513,-2.052c-1.144,-0 -1.749,0.723 -1.749,2.102l-0,4.071c-0,0.672 0.218,0.841 1.093,0.874l0,0.337c-0.875,-0.085 -1.211,-0.101 -1.817,-0.101c-0.588,-0 -0.941,0.016 -1.816,0.101l-0,-0.337c1.026,-0.05 1.193,-0.186 1.193,-0.909l0,-5.449c-0.016,-0.689 -0.117,-0.79 -0.958,-0.79c-0.05,-0 -0.135,-0.017 -0.219,-0.017m8.98,7.451l4.557,-7.502l-2.067,-0c-1.094,-0 -1.363,0.236 -1.968,1.749l-0.338,0l0.388,-2.186l5.786,-0l-4.575,7.502l1.967,-0c1.145,-0 1.615,-0.455 2.12,-1.985l0.354,-0l-0.438,2.422l-5.786,-0Z" style="fill:#fff;fill-rule:nonzero;"/></g><defs><linearGradient id="_Linear1" x1="0" y1="0" x2="1" y2="0" gradientUnits="userSpaceOnUse" gradientTransform="matrix(21.0179,17.6028,-17.6028,21.0179,3.50181,5.20937)"><stop offset="0" style="stop-color:#fff;stop-opacity:1"/><stop offset="0.1" style="stop-color:#e7e8e6;stop-opacity:1"/><stop offset="0.1" style="stop-color:#cdd0d0;stop-opacity:1"/><stop offset="0.2" style="stop-color:#b5bbbd;stop-opacity:1"/><stop offset="0.2" style="stop-color:#a5acaf;stop-opacity:1"/><stop offset="0.3" style="stop-color:#9ba3a7;stop-opacity:1"/><stop offset="0.3" style="stop-color:#98a0a4;stop-opacity:1"/><stop offset="0.4" style="stop-color:#828a8f;stop-opacity:1"/><stop offset="0.5" style="stop-color:#667075;stop-opacity:1"/><stop offset="0.6" style="stop-color:#535c63;stop-opacity:1"/><stop offset="0.7" style="stop-color:#475158;stop-opacity:1"/><stop offset="0.8" style="stop-color:#434d54;stop-opacity:1"/><stop offset="1" style="stop-color:#475157;stop-opacity:1"/></linearGradient><linearGradient id="_Linear2" x1="0" y1="0" x2="1" y2="0" gradientUnits="userSpaceOnUse" gradientTransform="matrix(19.7026,16.5502,-16.5502,19.7026,4.14674,5.7177)"><stop offset="0" style="stop-color:#0b1f2a;stop-opacity:1"/><stop offset="0.2" style="stop-color:#333f47;stop-opacity:1"/><stop offset="0.5" style="stop-color:#777f84;stop-opacity:1"/><stop offset="0.5" style="stop-color:#81898d;stop-opacity:1"/><stop offset="0.7" style="stop-color:#b3b8b8;stop-opacity:1"/><stop offset="0.8" style="stop-color:#d2d5d3;stop-opacity:1"/><stop offset="0.8" style="stop-color:#dee0dd;stop-opacity:1"/><stop offset="1" style="stop-color:#fbfbfb;stop-opacity:1"/></linearGradient><linearGradient id="_Linear3" x1="0" y1="0" x2="1" y2="0" gradientUnits="userSpaceOnUse" gradientTransform="matrix(-9.58861,-26.3573,26.3573,-9.58861,18.7994,27.1734)"><stop offset="0" style="stop-color:#e1e3e1;stop-opacity:0.4"/><stop offset="0.1" style="stop-color:#c1c5c4;stop-opacity:0.4"/><stop offset="0.3" style="stop-color:#9ba1a2;stop-opacity:0.4"/><stop offset="0.5" style="stop-color:#7d8487;stop-opacity:0.4"/><stop offset="0.7" style="stop-color:#687074;stop-opacity:0"/><stop offset="0.8" style="stop-color:#5b6469;stop-opacity:0"/><stop offset="1" style="stop-color:#576065;stop-opacity:0"/></linearGradient><linearGradient id="_Linear4" x1="0" y1="0" x2="1" y2="0" gradientUnits="userSpaceOnUse" gradientTransform="matrix(12.0834,20.9277,-20.9277,12.0834,7.96905,3.54691)"><stop offset="0" style="stop-color:#e1e3e1;stop-opacity:0.4"/><stop offset="0.1" style="stop-color:#c1c5c4;stop-opacity:0.4"/><stop offset="0.3" style="stop-color:#9ba1a2;stop-opacity:0.4"/><stop offset="0.5" style="stop-color:#7d8487;stop-opacity:0.4"/><stop offset="0.7" style="stop-color:#687074;stop-opacity:0"/><stop offset="0.8" style="stop-color:#5b6469;stop-opacity:0"/><stop offset="1" style="stop-color:#576065;stop-opacity:0"/></linearGradient><linearGradient id="_Linear5" x1="0" y1="0" x2="1" y2="0" gradientUnits="userSpaceOnUse" gradientTransform="matrix(-0.744321,1.22594,-1.22594,-0.744321,19.4784,17.2477)"><stop offset="0" style="stop-color:#27343c;stop-opacity:1"/><stop offset="1" style="stop-color:#00111e;stop-opacity:0"/></linearGradient><linearGradient id="_Linear6" x1="0" y1="0" x2="1" y2="0" gradientUnits="userSpaceOnUse" gradientTransform="matrix(-1.22594,-1.97026,1.97026,-1.22594,17.3295,12.7463)"><stop offset="0" style="stop-color:#02131f;stop-opacity:1"/><stop offset="0.1" style="stop-color:#02131f;stop-opacity:1"/><stop offset="0.9" style="stop-color:#02131f;stop-opacity:0"/><stop offset="1" style="stop-color:#02131f;stop-opacity:0"/></linearGradient><linearGradient id="_Linear7" x1="0" y1="0" x2="1" y2="0" gradientUnits="userSpaceOnUse" gradientTransform="matrix(-1.83891,0.525403,-0.525403,-1.83891,14.0029,15.9092)"><stop offset="0" style="stop-color:#02131f;stop-opacity:0.8"/><stop offset="0.2" style="stop-color:#02131f;stop-opacity:0.8"/><stop offset="0.9" style="stop-color:#02131f;stop-opacity:0"/><stop offset="1" style="stop-color:#02131f;stop-opacity:0"/></linearGradient><linearGradient id="_Linear8" x1="0" y1="0" x2="1" y2="0" gradientUnits="userSpaceOnUse" gradientTransform="matrix(-0.262702,-0.656754,0.656754,-0.262702,9.10305,18.3471)"><stop offset="0" style="stop-color:#02131f;stop-opacity:0.8"/><stop offset="0.1" style="stop-color:#02131f;stop-opacity:0.8"/><stop offset="1" style="stop-color:#02131f;stop-opacity:0"/></linearGradient><linearGradient id="_Linear9" x1="0" y1="0" x2="1" y2="0" gradientUnits="userSpaceOnUse" gradientTransform="matrix(-1.48864,0.175134,-0.175134,-1.48864,15.5878,7.53691)"><stop offset="0" style="stop-color:#02131f;stop-opacity:1"/><stop offset="0.3" style="stop-color:#02131f;stop-opacity:1"/><stop offset="0.8" style="stop-color:#02131f;stop-opacity:0"/><stop offset="1" style="stop-color:#02131f;stop-opacity:0"/></linearGradient><linearGradient id="_Linear10" x1="0" y1="0" x2="1" y2="0" gradientUnits="userSpaceOnUse" gradientTransform="matrix(-1.00746,0.131351,-0.131351,-1.00746,15.6342,7.51195)"><stop offset="0" style="stop-color:#27343c;stop-opacity:1"/><stop offset="0.4" style="stop-color:#27343c;stop-opacity:1"/><stop offset="1" style="stop-color:#3b474e;stop-opacity:0"/></linearGradient><linearGradient id="_Linear11" x1="0" y1="0" x2="1" y2="0" gradientUnits="userSpaceOnUse" gradientTransform="matrix(12.2156,7.04916,-7.04916,12.2156,-0.157621,14.3746)"><stop offset="0" style="stop-color:#24303a;stop-opacity:0"/><stop offset="0" style="stop-color:#25323b;stop-opacity:0"/><stop offset="0.1" style="stop-color:#27343c;stop-opacity:1"/><stop offset="1" style="stop-color:#27343c;stop-opacity:1"/></linearGradient><linearGradient id="_Linear12" x1="0" y1="0" x2="1" y2="0" gradientUnits="userSpaceOnUse" gradientTransform="matrix(1.28687e-16,-2.10161,2.10161,1.28687e-16,13.9889,16.3751)"><stop offset="0" style="stop-color:#a5abaf;stop-opacity:1"/><stop offset="0.3" style="stop-color:#a5abaf;stop-opacity:1"/><stop offset="1" style="stop-color:#a5abaf;stop-opacity:0"/></linearGradient><linearGradient id="_Linear13" x1="0" y1="0" x2="1" y2="0" gradientUnits="userSpaceOnUse" gradientTransform="matrix(1.63539e-15,26.708,-26.708,1.63539e-15,20.8629,1.00702)"><stop offset="0" style="stop-color:#dee0dd;stop-opacity:1"/><stop offset="0" style="stop-color:#c5c9c7;stop-opacity:1"/><stop offset="0" style="stop-color:#9ea4a5;stop-opacity:1"/><stop offset="0" style="stop-color:#82898c;stop-opacity:1"/><stop offset="0" style="stop-color:#71797d;stop-opacity:1"/><stop offset="0" style="stop-color:#6b7378;stop-opacity:1"/><stop offset="0.2" style="stop-color:#333f47;stop-opacity:1"/><stop offset="0.5" style="stop-color:#27343c;stop-opacity:1"/><stop offset="0.8" style="stop-color:#333f47;stop-opacity:1"/><stop offset="1" style="stop-color:#434d54;stop-opacity:1"/></linearGradient><linearGradient id="_Linear14" x1="0" y1="0" x2="1" y2="0" gradientUnits="userSpaceOnUse" gradientTransform="matrix(0.131351,0,0,0.131351,14.0108,0.306485)"><stop offset="0" style="stop-color:#dee0dd;stop-opacity:1"/><stop offset="0" style="stop-color:#c5c9c7;stop-opacity:1"/><stop offset="0" style="stop-color:#9ea4a5;stop-opacity:1"/><stop offset="0" style="stop-color:#82898c;stop-opacity:1"/><stop offset="0" style="stop-color:#71797d;stop-opacity:1"/><stop offset="0" style="stop-color:#6b7378;stop-opacity:1"/><stop offset="0.2" style="stop-color:#333f47;stop-opacity:1"/><stop offset="0.5" style="stop-color:#27343c;stop-opacity:1"/><stop offset="0.8" style="stop-color:#333f47;stop-opacity:1"/><stop offset="1" style="stop-color:#434d54;stop-opacity:1"/></linearGradient><linearGradient id="_Linear15" x1="0" y1="0" x2="1" y2="0" gradientUnits="userSpaceOnUse" gradientTransform="matrix(-5.91079,8.66915,-8.66915,-5.91079,25.0832,3.54341)"><stop offset="0" style="stop-color:#27343c;stop-opacity:1"/><stop offset="0.7" style="stop-color:#2b373f;stop-opacity:1"/><stop offset="0.7" style="stop-color:#36424a;stop-opacity:1"/><stop offset="0.7" style="stop-color:#49545b;stop-opacity:1"/><stop offset="0.8" style="stop-color:#646d73;stop-opacity:0"/><stop offset="0.8" style="stop-color:#868d92;stop-opacity:0"/><stop offset="0.8" style="stop-color:#b0b5b8;stop-opacity:0"/><stop offset="0.8" style="stop-color:#e1e3e4;stop-opacity:0"/><stop offset="1" style="stop-color:#fff;stop-opacity:0"/></linearGradient></defs></svg>