<svg xmlns="http://www.w3.org/2000/svg" width="251.467" height="78.101"><g transform="translate(-4.562)"><rect width="38" height="10.443" fill="#ddd" opacity=".6" rx="5.221" transform="translate(16.562 15.547)"/><rect width="38" height="10.443" fill="#ddd" opacity=".6" rx="5.221" transform="translate(4.562 35.022)"/><rect width="38" height="10.443" fill="#ddd" opacity=".6" rx="5.221" transform="translate(16.562 54.104)"/><path fill="#f4be60" d="M126.562 42.246 82.689 0C59.881 17.852 58.276 57.806 79.58 77.429c.252.231.514.446.769.672Z"/><path fill="#f9f6dc" d="m126.562 42.246-37-35.7c-18.52 14.495-19.512 48.87-2.214 64.8.251.231.214.2.787.657Z"/><circle cx="3.231" cy="3.231" r="3.231" fill="#7cbc73" transform="translate(83.587 44.428)"/><path fill="#dd6d62" d="M92.851 20.521a8.094 8.094 0 1 1-8.412 7.763 8.1 8.1 0 0 1 8.412-7.763Zm-.487 12.131a4.047 4.047 0 1 0-3.881-4.206 4.051 4.051 0 0 0 3.881 4.206ZM98.737 57.369a5.223 5.223 0 0 0-3.6 9.212l2.163-1.669a2.615 2.615 0 1 1 3.767-2.918l2.156-1.669a5.227 5.227 0 0 0-4.486-2.956Z"/><circle cx="5.494" cy="5.494" r="5.494" fill="#be1931" transform="translate(102.839 36.87)"/></g><g transform="translate(136 -79.806)"><g fill="#bd4680"><path d="M0 154.12v-37.41h5.651v1.621a13.125 13.125 0 0 1 6.749-2.2q5.181 0 7.587 3.165t2.407 10.622q0 7.456-2.747 10.491t-8.973 3.035a30.7 30.7 0 0 1-4.971-.471v11.145Zm11.407-32.911a11.967 11.967 0 0 0-4.919 1.1l-.785.367v15.435a23.482 23.482 0 0 0 4.6.419q3.557 0 4.918-2.041t1.361-6.959q.005-8.321-5.175-8.321ZM28.096 116.71h5.703v26.161h-5.703zM39.398 121.785v-5.075H58.81v5.075l-12.557 16.011H58.81v5.075H39.398v-5.075l12.61-16.011ZM63.152 121.785v-5.075h19.412v5.075l-12.557 16.011h12.557v5.075H63.152v-5.075l12.61-16.011ZM107.574 124.768v11.933a2.481 2.481 0 0 0 .6 1.7 2.9 2.9 0 0 0 1.7.706l-.157 4.344q-4.5 0-6.959-1.936a19.9 19.9 0 0 1-8.423 1.936q-7.8 0-7.8-8.32 0-3.975 2.119-5.755t6.514-2.145l6.75-.576v-1.883a3.17 3.17 0 0 0-3.61-3.768q-3.349 0-8.372.419l-1.674.1-.209-4.029a45.488 45.488 0 0 1 10.491-1.36q4.786 0 6.907 2.067t2.123 6.567Zm-11.721 6.488q-3.61.314-3.61 3.924t3.192 3.61a20.181 20.181 0 0 0 5.546-.838l.942-.314v-6.959ZM.165 108.91v-16.2h3.494v1.943a15.409 15.409 0 0 1 5.506-2.3v3.539a22.748 22.748 0 0 0-4.762 1.426l-.712.292v11.3ZM23.26 105.992l.907-.1.065 2.624a33.531 33.531 0 0 1-6.543.745q-3.6 0-5.166-1.976t-1.571-6.316q0-8.616 7.029-8.616 6.8 0 6.8 7.418l-.227 2.526h-10.04a4.44 4.44 0 0 0 .875 2.947 4.132 4.132 0 0 0 3.142.939q2.299.009 4.729-.191Zm-1.943-6.414a5.531 5.531 0 0 0-.761-3.352 3.109 3.109 0 0 0-2.575-.955 3.229 3.229 0 0 0-2.64 1 5.339 5.339 0 0 0-.858 3.3ZM41.398 85.977v22.933h-3.5v-.843a9.712 9.712 0 0 1-4.34 1.2 5.5 5.5 0 0 1-4.649-1.911q-1.474-1.911-1.474-6.413t1.639-6.543a6.147 6.147 0 0 1 5.1-2.041 25.275 25.275 0 0 1 3.693.421v-6.8Zm-4.081 19.564.55-.227v-9.587a22 22 0 0 0-3.6-.324q-3.272 0-3.272 5.442a7.992 7.992 0 0 0 .761 4.13 2.684 2.684 0 0 0 2.413 1.149 8.541 8.541 0 0 0 3.149-.583ZM45.674 89.961v-3.726h3.531v3.724Zm0 18.949V92.715h3.531v16.2ZM53.481 108.91v-16.2h3.5v1.943a15.414 15.414 0 0 1 5.506-2.3v3.539a22.74 22.74 0 0 0-4.762 1.422l-.712.292v11.3ZM76.575 105.992l.907-.1.065 2.624a33.531 33.531 0 0 1-6.543.745q-3.6 0-5.166-1.976t-1.571-6.316q0-8.616 7.029-8.616 6.8 0 6.8 7.418l-.227 2.526h-10.04a4.44 4.44 0 0 0 .875 2.947 4.132 4.132 0 0 0 3.142.939q2.299.009 4.729-.191Zm-1.943-6.414a5.531 5.531 0 0 0-.761-3.352 3.109 3.109 0 0 0-2.575-.955 3.229 3.229 0 0 0-2.64 1 5.339 5.339 0 0 0-.858 3.3ZM87.555 92.358a21.667 21.667 0 0 1 4.049.454l.81.162-.13 2.785q-2.558-.259-3.789-.259-2.462 0-3.3 1.1t-.842 4.145a7.836 7.836 0 0 0 .81 4.211q.809 1.166 3.368 1.166l3.79-.259.1 2.818a30.851 30.851 0 0 1-4.923.583q-3.693 0-5.2-1.992t-1.506-6.527q0-4.535 1.587-6.462t5.176-1.925ZM104.528 95.727h-4.471v7.126a7.573 7.573 0 0 0 .292 2.624q.292.648 1.49.648l2.656-.1.162 2.819a18.906 18.906 0 0 1-3.3.421q-2.753 0-3.774-1.264t-1.02-4.761v-7.513h-2.074v-3.012h2.074v-4.7h3.5v4.7h4.471Z"/></g><circle cx="3.994" cy="3.994" r="3.994" fill="#f4be60" transform="translate(107.479 101.608)"/></g></svg>