<?xml version="1.0" encoding="UTF-8" standalone="no"?><!DOCTYPE svg PUBLIC "-//W3C//DTD SVG 1.1//EN" "http://www.w3.org/Graphics/SVG/1.1/DTD/svg11.dtd"><svg width="100%" height="100%" viewBox="0 0 3600 512" version="1.1" xmlns="http://www.w3.org/2000/svg" xmlns:xlink="http://www.w3.org/1999/xlink" xml:space="preserve" xmlns:serif="http://www.serif.com/" style="fill-rule:evenodd;clip-rule:evenodd;stroke-linejoin:round;stroke-miterlimit:2;"><path d="M327.683,11.55c0,0 0.377,0.07 0.57,0.48c0.264,1.413 0.337,2.416 0.331,3.885c-0.065,31.932 -0.065,63.398 -0.034,94.864c0.032,32.131 0.094,64.262 0.346,96.769c1.99,0.566 3.777,0.92 5.564,0.923c27.933,0.034 55.867,-0.014 83.8,0.11c1.791,0.008 3.576,1.265 5.226,2.246c-14.878,18.127 -29.572,35.985 -44.368,53.758c-19.269,23.146 -38.641,46.205 -57.927,69.337c-20.88,25.046 -41.705,50.139 -62.566,75.201c-21.075,25.32 -42.152,50.639 -63.259,75.933c-4.39,5.26 -8.916,10.406 -13.379,15.605c-0.487,-0.184 -0.974,-0.367 -1.46,-0.551l-0,-194.434c-2.649,0 -4.451,0.001 -6.253,0c-19.996,-0.004 -39.992,-0.036 -59.988,-0.002c-8.988,0.016 -17.976,0.162 -27.299,0.154c-1.437,-0.242 -2.537,-0.39 -4.246,-0.621c7.638,-9.194 14.948,-17.946 22.206,-26.741c9.59,-11.621 19.139,-23.276 28.689,-34.928c-0.017,-0.01 -0.006,0.015 0.29,-0.129c1.456,-1.711 2.616,-3.278 3.742,-4.87c-0.034,-0.026 -0.04,0.059 0.214,-0.029c0.422,-0.392 0.591,-0.698 0.729,-1.012c-0.031,-0.009 -0.007,0.051 0.227,-0.049c0.394,-0.39 0.554,-0.68 0.728,-0.966c0.014,0.004 0.005,-0.024 0.24,-0.1c0.532,-0.281 0.672,-0.564 0.707,-0.93c0.05,-0.004 0.031,-0.103 0.228,-0.158c0.47,-0.206 0.585,-0.436 0.691,-0.893c0.147,-0.148 0.249,-0.554 0.501,-0.703c0.423,-0.489 0.595,-0.83 0.724,-1.168c-0.043,0.004 0.01,0.071 0.312,-0.068c2.096,-2.403 3.89,-4.666 5.652,-6.951c-0.031,-0.022 -0.01,0.051 0.226,-0.05c0.391,-0.395 0.547,-0.688 0.951,-1.089c0.408,-0.421 0.568,-0.734 1.03,-1.175c4.163,-4.96 8.025,-9.792 11.852,-14.649c-0.034,-0.025 -0.046,0.059 0.206,-0.033c0.427,-0.394 0.603,-0.695 0.744,-1.006c-0.037,-0.01 -0.014,0.061 0.232,-0.03c0.405,-0.391 0.565,-0.692 0.72,-0.994c-0.004,-0.002 0,0.006 0.225,-0.089c0.511,-0.305 0.649,-0.588 0.687,-0.946c0.048,-0.003 0.025,-0.095 0.328,-0.226c2.19,-2.613 4.077,-5.096 5.905,-7.629c-0.059,-0.051 0.009,0.09 0.3,-0.004c0.737,-0.75 1.183,-1.406 1.598,-2.082c-0.031,-0.02 -0.014,0.053 0.226,-0.043c0.394,-0.393 0.55,-0.69 0.717,-0.984c0.012,0.002 0.001,-0.021 0.292,-0.158c1.144,-1.344 1.997,-2.55 2.815,-3.781c-0.034,-0.025 -0.044,0.06 0.212,-0.026c0.429,-0.392 0.601,-0.697 0.739,-1.012c-0.036,-0.008 -0.014,0.061 0.228,-0.034c0.404,-0.391 0.565,-0.688 0.971,-1.095c0.405,-0.423 0.566,-0.735 0.934,-1.11c0.482,-0.238 0.602,-0.488 0.82,-0.947c0.524,-0.626 0.794,-1.116 1.31,-1.736c0.431,-0.444 0.616,-0.758 1.029,-1.162c0.498,-0.312 0.641,-0.597 0.952,-1.08c1.298,-1.71 2.3,-3.283 3.579,-5.077c1.273,-1.078 2.413,-1.817 3.244,-2.812c18.991,-22.739 37.932,-45.52 56.917,-68.265c26.343,-31.558 52.714,-63.093 79.073,-94.638Z" style="fill:#4a65f4;fill-rule:nonzero;"/><path d="M480.117,284.785l39.375,-3.828c2.37,13.216 7.178,22.923 14.424,29.121c7.246,6.198 17.022,9.297 29.326,9.297c13.034,-0 22.855,-2.757 29.463,-8.271c6.608,-5.515 9.912,-11.963 9.912,-19.346c0,-4.74 -1.39,-8.773 -4.17,-12.1c-2.78,-3.327 -7.633,-6.221 -14.56,-8.681c-4.74,-1.641 -15.541,-4.558 -32.403,-8.75c-21.692,-5.378 -36.914,-11.986 -45.664,-19.825c-12.304,-11.028 -18.457,-24.472 -18.457,-40.332c0,-10.208 2.894,-19.756 8.682,-28.642c5.788,-8.887 14.128,-15.655 25.019,-20.303c10.892,-4.648 24.04,-6.973 39.444,-6.973c25.156,0 44.092,5.515 56.806,16.543c12.715,11.029 19.392,25.749 20.03,44.16l-40.469,1.778c-1.732,-10.3 -5.446,-17.705 -11.143,-22.217c-5.696,-4.512 -14.241,-6.768 -25.634,-6.768c-11.758,0 -20.964,2.416 -27.618,7.247c-4.283,3.098 -6.425,7.246 -6.425,12.441c-0,4.74 2.005,8.796 6.015,12.168c5.104,4.284 17.5,8.75 37.188,13.398c19.687,4.649 34.248,9.457 43.681,14.424c9.434,4.968 16.817,11.758 22.149,20.371c5.332,8.614 7.998,19.255 7.998,31.924c-0,11.484 -3.19,22.24 -9.57,32.266c-6.381,10.026 -15.404,17.477 -27.071,22.353c-11.666,4.877 -26.204,7.315 -43.613,7.315c-25.339,-0 -44.798,-5.856 -58.379,-17.569c-13.581,-11.712 -21.693,-28.779 -24.336,-51.201Z" style="fill:#fff;fill-rule:nonzero;"/><path d="M705.566,249.102l-34.863,-6.29c3.919,-14.036 10.664,-24.427 20.235,-31.171c9.57,-6.745 23.789,-10.118 42.656,-10.118c17.135,0 29.896,2.028 38.281,6.084c8.385,4.056 14.287,9.206 17.705,15.45c3.418,6.243 5.127,17.705 5.127,34.384l-0.41,44.844c-0,12.761 0.615,22.171 1.846,28.233c1.23,6.061 3.531,12.555 6.904,19.482l-38.008,0c-1.003,-2.552 -2.233,-6.335 -3.691,-11.348c-0.638,-2.278 -1.094,-3.782 -1.368,-4.511c-6.562,6.38 -13.58,11.165 -21.054,14.355c-7.474,3.19 -15.449,4.785 -23.926,4.785c-14.948,0 -26.729,-4.056 -35.342,-12.168c-8.613,-8.112 -12.92,-18.366 -12.92,-30.761c0,-8.204 1.96,-15.518 5.879,-21.944c3.919,-6.426 9.411,-11.347 16.475,-14.765c7.064,-3.418 17.249,-6.403 30.556,-8.955c17.956,-3.373 30.398,-6.517 37.325,-9.434l-0,-3.828c-0,-7.383 -1.823,-12.647 -5.469,-15.791c-3.646,-3.145 -10.527,-4.717 -20.645,-4.717c-6.836,-0 -12.168,1.344 -15.996,4.033c-3.828,2.689 -6.927,7.406 -9.297,14.151Zm51.407,31.171c-4.922,1.641 -12.715,3.601 -23.379,5.879c-10.664,2.279 -17.637,4.512 -20.918,6.7c-5.013,3.554 -7.52,8.066 -7.52,13.535c0,5.377 2.005,10.026 6.016,13.945c4.01,3.919 9.114,5.879 15.312,5.879c6.927,-0 13.536,-2.279 19.825,-6.836c4.648,-3.464 7.701,-7.702 9.16,-12.715c1.002,-3.281 1.504,-9.525 1.504,-18.73l-0,-7.657Z" style="fill:#fff;fill-rule:nonzero;"/><path d="M861.289,249.102l-34.863,-6.29c3.919,-14.036 10.664,-24.427 20.234,-31.171c9.57,-6.745 23.789,-10.118 42.656,-10.118c17.136,0 29.896,2.028 38.282,6.084c8.385,4.056 14.287,9.206 17.705,15.45c3.418,6.243 5.127,17.705 5.127,34.384l-0.41,44.844c-0,12.761 0.615,22.171 1.845,28.233c1.231,6.061 3.532,12.555 6.905,19.482l-38.008,0c-1.003,-2.552 -2.233,-6.335 -3.692,-11.348c-0.638,-2.278 -1.093,-3.782 -1.367,-4.511c-6.562,6.38 -13.581,11.165 -21.055,14.355c-7.474,3.19 -15.449,4.785 -23.925,4.785c-14.948,0 -26.729,-4.056 -35.342,-12.168c-8.613,-8.112 -12.92,-18.366 -12.92,-30.761c-0,-8.204 1.96,-15.518 5.879,-21.944c3.919,-6.426 9.411,-11.347 16.474,-14.765c7.064,-3.418 17.25,-6.403 30.557,-8.955c17.956,-3.373 30.397,-6.517 37.324,-9.434l0,-3.828c0,-7.383 -1.823,-12.647 -5.468,-15.791c-3.646,-3.145 -10.528,-4.717 -20.645,-4.717c-6.836,-0 -12.168,1.344 -15.996,4.033c-3.828,2.689 -6.927,7.406 -9.297,14.151Zm51.406,31.171c-4.922,1.641 -12.715,3.601 -23.379,5.879c-10.664,2.279 -17.636,4.512 -20.918,6.7c-5.013,3.554 -7.519,8.066 -7.519,13.535c-0,5.377 2.005,10.026 6.016,13.945c4.01,3.919 9.114,5.879 15.312,5.879c6.927,-0 13.535,-2.279 19.824,-6.836c4.649,-3.464 7.702,-7.702 9.16,-12.715c1.003,-3.281 1.504,-9.525 1.504,-18.73l0,-7.657Z" style="fill:#fff;fill-rule:nonzero;"/><path d="M978.32,284.785l39.375,-3.828c2.37,13.216 7.178,22.923 14.424,29.121c7.246,6.198 17.022,9.297 29.326,9.297c13.034,-0 22.855,-2.757 29.463,-8.271c6.608,-5.515 9.912,-11.963 9.912,-19.346c0,-4.74 -1.39,-8.773 -4.17,-12.1c-2.78,-3.327 -7.633,-6.221 -14.56,-8.681c-4.74,-1.641 -15.541,-4.558 -32.403,-8.75c-21.692,-5.378 -36.914,-11.986 -45.664,-19.825c-12.304,-11.028 -18.457,-24.472 -18.457,-40.332c0,-10.208 2.894,-19.756 8.682,-28.642c5.788,-8.887 14.128,-15.655 25.02,-20.303c10.892,-4.648 24.039,-6.973 39.443,-6.973c25.156,0 44.092,5.515 56.807,16.543c12.714,11.029 19.391,25.749 20.029,44.16l-40.469,1.778c-1.732,-10.3 -5.446,-17.705 -11.142,-22.217c-5.697,-4.512 -14.242,-6.768 -25.635,-6.768c-11.758,0 -20.964,2.416 -27.617,7.247c-4.284,3.098 -6.426,7.246 -6.426,12.441c-0,4.74 2.005,8.796 6.015,12.168c5.105,4.284 17.5,8.75 37.188,13.398c19.687,4.649 34.248,9.457 43.682,14.424c9.433,4.968 16.816,11.758 22.148,20.371c5.332,8.614 7.998,19.255 7.998,31.924c0,11.484 -3.19,22.24 -9.57,32.266c-6.38,10.026 -15.404,17.477 -27.071,22.353c-11.666,4.877 -26.204,7.315 -43.613,7.315c-25.338,-0 -44.798,-5.856 -58.379,-17.569c-13.58,-11.712 -21.692,-28.779 -24.336,-51.201Z" style="fill:#fff;fill-rule:nonzero;"/><path d="M1381.37,276.309l39.238,12.441c-6.015,21.875 -16.018,38.122 -30.009,48.74c-13.991,10.619 -31.742,15.928 -53.252,15.928c-26.615,-0 -48.49,-9.092 -65.625,-27.275c-17.136,-18.184 -25.703,-43.044 -25.703,-74.581c-0,-33.359 8.613,-59.267 25.839,-77.724c17.227,-18.457 39.877,-27.686 67.95,-27.686c24.518,0 44.433,7.246 59.746,21.739c9.114,8.567 15.95,20.872 20.508,36.914l-40.059,9.57c-2.37,-10.391 -7.314,-18.594 -14.834,-24.609c-7.52,-6.016 -16.657,-9.024 -27.412,-9.024c-14.857,0 -26.911,5.332 -36.162,15.996c-9.252,10.664 -13.877,27.936 -13.877,51.817c-0,25.338 4.557,43.385 13.672,54.14c9.114,10.756 20.963,16.133 35.547,16.133c10.755,0 20.006,-3.418 27.753,-10.254c7.748,-6.836 13.308,-17.591 16.68,-32.265Z" style="fill:#fff;fill-rule:nonzero;"/><path d="M1550.62,350l0,-21.738c-5.286,7.747 -12.236,13.854 -20.85,18.32c-8.613,4.466 -17.705,6.699 -27.275,6.699c-9.753,0 -18.503,-2.142 -26.25,-6.426c-7.747,-4.283 -13.353,-10.299 -16.816,-18.046c-3.464,-7.748 -5.196,-18.457 -5.196,-32.129l0,-91.875l38.418,-0l0,66.718c0,20.417 0.707,32.927 2.119,37.53c1.413,4.603 3.988,8.248 7.725,10.937c3.737,2.689 8.477,4.033 14.219,4.033c6.562,0 12.441,-1.8 17.636,-5.4c5.196,-3.6 8.75,-8.066 10.665,-13.398c1.914,-5.332 2.871,-18.389 2.871,-39.17l-0,-61.25l38.418,-0l-0,145.195l-35.684,0Z" style="fill:#fff;fill-rule:nonzero;"/><path d="M1612.56,308.574l38.554,-5.879c1.641,7.474 4.968,13.148 9.981,17.022c5.013,3.873 12.031,5.81 21.054,5.81c9.935,0 17.409,-1.823 22.422,-5.468c3.373,-2.552 5.059,-5.97 5.059,-10.254c-0,-2.917 -0.912,-5.332 -2.734,-7.246c-1.915,-1.823 -6.198,-3.51 -12.852,-5.059c-30.99,-6.836 -50.632,-13.079 -58.926,-18.73c-11.484,-7.839 -17.226,-18.731 -17.226,-32.676c-0,-12.578 4.967,-23.151 14.902,-31.719c9.935,-8.568 25.339,-12.852 46.211,-12.852c19.87,0 34.635,3.236 44.297,9.707c9.661,6.472 16.315,16.042 19.961,28.711l-36.231,6.7c-1.549,-5.651 -4.489,-9.981 -8.818,-12.989c-4.33,-3.007 -10.505,-4.511 -18.526,-4.511c-10.117,-0 -17.363,1.412 -21.738,4.238c-2.916,2.005 -4.375,4.603 -4.375,7.793c0,2.734 1.276,5.058 3.828,6.973c3.464,2.552 15.427,6.152 35.889,10.8c20.462,4.649 34.749,10.345 42.861,17.09c8.021,6.836 12.032,16.361 12.032,28.574c-0,13.308 -5.56,24.746 -16.68,34.317c-11.12,9.57 -27.572,14.355 -49.356,14.355c-19.778,0 -35.433,-4.01 -46.962,-12.031c-11.53,-8.021 -19.073,-18.913 -22.627,-32.676Z" style="fill:#fff;fill-rule:nonzero;"/><path d="M1848.4,204.805l0,30.625l-26.25,-0l0,58.515c0,11.849 0.251,18.754 0.752,20.713c0.502,1.96 1.641,3.578 3.418,4.854c1.778,1.276 3.942,1.914 6.495,1.914c3.554,-0 8.704,-1.231 15.449,-3.692l3.281,29.805c-8.932,3.828 -19.05,5.742 -30.352,5.742c-6.927,0 -13.17,-1.162 -18.73,-3.486c-5.56,-2.324 -9.639,-5.332 -12.236,-9.024c-2.598,-3.691 -4.398,-8.681 -5.401,-14.97c-0.82,-4.466 -1.23,-13.49 -1.23,-27.071l-0,-63.3l-17.637,-0l0,-30.625l17.637,-0l-0,-28.848l38.554,-22.422l0,51.27l26.25,-0Z" style="fill:#fff;fill-rule:nonzero;"/><path d="M1866.17,275.352c-0,-12.761 3.144,-25.111 9.433,-37.051c6.29,-11.94 15.199,-21.055 26.729,-27.344c11.53,-6.289 24.404,-9.434 38.623,-9.434c21.966,0 39.967,7.133 54.004,21.397c14.036,14.264 21.055,32.288 21.055,54.072c-0,21.966 -7.087,40.173 -21.26,54.619c-14.173,14.447 -32.015,21.67 -53.526,21.67c-13.307,0 -25.999,-3.008 -38.076,-9.023c-12.077,-6.016 -21.259,-14.834 -27.549,-26.455c-6.289,-11.621 -9.433,-25.772 -9.433,-42.451Zm39.375,2.05c-0,14.401 3.418,25.43 10.254,33.086c6.836,7.657 15.267,11.485 25.293,11.485c10.026,-0 18.434,-3.828 25.224,-11.485c6.791,-7.656 10.186,-18.776 10.186,-33.359c-0,-14.219 -3.395,-25.156 -10.186,-32.813c-6.79,-7.656 -15.198,-11.484 -25.224,-11.484c-10.026,0 -18.457,3.828 -25.293,11.484c-6.836,7.657 -10.254,18.685 -10.254,33.086Z" style="fill:#fff;fill-rule:nonzero;"/><path d="M2043.22,204.805l35.41,-0l-0,19.824c12.669,-15.404 27.754,-23.106 45.254,-23.106c9.297,0 17.363,1.914 24.199,5.743c6.836,3.828 12.441,9.616 16.816,17.363c6.381,-7.747 13.262,-13.535 20.645,-17.363c7.383,-3.829 15.267,-5.743 23.652,-5.743c10.664,0 19.688,2.165 27.071,6.495c7.382,4.329 12.897,10.686 16.543,19.072c2.643,6.198 3.964,16.224 3.964,30.078l0,92.832l-38.418,0l0,-82.988c0,-14.401 -1.321,-23.698 -3.964,-27.891c-3.555,-5.469 -9.024,-8.203 -16.407,-8.203c-5.377,-0 -10.436,1.641 -15.175,4.922c-4.74,3.281 -8.158,8.089 -10.254,14.424c-2.097,6.334 -3.145,16.338 -3.145,30.009l0,69.727l-38.418,0l0,-79.57c0,-14.128 -0.683,-23.243 -2.051,-27.344c-1.367,-4.102 -3.486,-7.155 -6.357,-9.16c-2.871,-2.005 -6.768,-3.008 -11.69,-3.008c-5.924,-0 -11.256,1.595 -15.996,4.785c-4.739,3.19 -8.134,7.793 -10.185,13.809c-2.051,6.015 -3.076,15.996 -3.076,29.941l-0,70.547l-38.418,0l-0,-145.195Z" style="fill:#fff;fill-rule:nonzero;"/><path d="M2372.99,149.57l73.965,0c16.68,0 29.395,1.276 38.145,3.828c11.757,3.464 21.829,9.616 30.215,18.457c8.385,8.842 14.765,19.665 19.14,32.471c4.375,12.806 6.563,28.597 6.563,47.373c-0,16.498 -2.051,30.716 -6.153,42.656c-5.013,14.584 -12.168,26.387 -21.465,35.411c-7.018,6.836 -16.497,12.168 -28.437,15.996c-8.932,2.825 -20.872,4.238 -35.82,4.238l-76.153,0l0,-200.43Zm40.469,33.907l0,132.753l30.215,0c11.302,0 19.46,-0.638 24.473,-1.914c6.562,-1.64 12.008,-4.42 16.337,-8.339c4.33,-3.92 7.862,-10.368 10.596,-19.346c2.734,-8.978 4.102,-21.214 4.102,-36.709c-0,-15.495 -1.368,-27.389 -4.102,-35.684c-2.734,-8.294 -6.562,-14.765 -11.484,-19.414c-4.922,-4.648 -11.166,-7.793 -18.731,-9.433c-5.651,-1.276 -16.725,-1.914 -33.222,-1.914l-18.184,-0Z" style="fill:#fff;fill-rule:nonzero;"/><path d="M2566.17,275.352c-0,-12.761 3.144,-25.111 9.433,-37.051c6.29,-11.94 15.199,-21.055 26.729,-27.344c11.53,-6.289 24.404,-9.434 38.623,-9.434c21.966,0 39.967,7.133 54.004,21.397c14.036,14.264 21.055,32.288 21.055,54.072c-0,21.966 -7.087,40.173 -21.26,54.619c-14.173,14.447 -32.015,21.67 -53.526,21.67c-13.307,0 -25.999,-3.008 -38.076,-9.023c-12.077,-6.016 -21.259,-14.834 -27.549,-26.455c-6.289,-11.621 -9.433,-25.772 -9.433,-42.451Zm39.375,2.05c-0,14.401 3.418,25.43 10.254,33.086c6.836,7.657 15.267,11.485 25.293,11.485c10.026,-0 18.434,-3.828 25.224,-11.485c6.791,-7.656 10.186,-18.776 10.186,-33.359c-0,-14.219 -3.395,-25.156 -10.186,-32.813c-6.79,-7.656 -15.198,-11.484 -25.224,-11.484c-10.026,0 -18.457,3.828 -25.293,11.484c-6.836,7.657 -10.254,18.685 -10.254,33.086Z" style="fill:#fff;fill-rule:nonzero;"/><path d="M2743.22,204.805l35.41,-0l-0,19.824c12.669,-15.404 27.754,-23.106 45.254,-23.106c9.297,0 17.363,1.914 24.199,5.743c6.836,3.828 12.441,9.616 16.816,17.363c6.381,-7.747 13.262,-13.535 20.645,-17.363c7.383,-3.829 15.267,-5.743 23.652,-5.743c10.664,0 19.688,2.165 27.071,6.495c7.382,4.329 12.897,10.686 16.543,19.072c2.643,6.198 3.964,16.224 3.964,30.078l0,92.832l-38.418,0l0,-82.988c0,-14.401 -1.321,-23.698 -3.964,-27.891c-3.555,-5.469 -9.024,-8.203 -16.407,-8.203c-5.377,-0 -10.436,1.641 -15.175,4.922c-4.74,3.281 -8.158,8.089 -10.254,14.424c-2.097,6.334 -3.145,16.338 -3.145,30.009l0,69.727l-38.418,0l0,-79.57c0,-14.128 -0.683,-23.243 -2.051,-27.344c-1.367,-4.102 -3.486,-7.155 -6.357,-9.16c-2.871,-2.005 -6.768,-3.008 -11.69,-3.008c-5.924,-0 -11.256,1.595 -15.996,4.785c-4.739,3.19 -8.134,7.793 -10.185,13.809c-2.051,6.015 -3.076,15.996 -3.076,29.941l-0,70.547l-38.418,0l-0,-145.195Z" style="fill:#fff;fill-rule:nonzero;"/><path d="M3023.77,249.102l-34.864,-6.29c3.92,-14.036 10.664,-24.427 20.235,-31.171c9.57,-6.745 23.789,-10.118 42.656,-10.118c17.135,0 29.896,2.028 38.281,6.084c8.386,4.056 14.287,9.206 17.705,15.45c3.418,6.243 5.127,17.705 5.127,34.384l-0.41,44.844c0,12.761 0.615,22.171 1.846,28.233c1.23,6.061 3.532,12.555 6.904,19.482l-38.008,0c-1.002,-2.552 -2.233,-6.335 -3.691,-11.348c-0.638,-2.278 -1.094,-3.782 -1.367,-4.511c-6.563,6.38 -13.581,11.165 -21.055,14.355c-7.474,3.19 -15.449,4.785 -23.926,4.785c-14.948,0 -26.728,-4.056 -35.342,-12.168c-8.613,-8.112 -12.92,-18.366 -12.92,-30.761c0,-8.204 1.96,-15.518 5.879,-21.944c3.92,-6.426 9.411,-11.347 16.475,-14.765c7.064,-3.418 17.249,-6.403 30.557,-8.955c17.955,-3.373 30.397,-6.517 37.324,-9.434l-0,-3.828c-0,-7.383 -1.823,-12.647 -5.469,-15.791c-3.646,-3.145 -10.527,-4.717 -20.644,-4.717c-6.836,-0 -12.168,1.344 -15.997,4.033c-3.828,2.689 -6.927,7.406 -9.296,14.151Zm51.406,31.171c-4.922,1.641 -12.715,3.601 -23.379,5.879c-10.664,2.279 -17.637,4.512 -20.918,6.7c-5.013,3.554 -7.52,8.066 -7.52,13.535c0,5.377 2.006,10.026 6.016,13.945c4.01,3.919 9.115,5.879 15.312,5.879c6.928,-0 13.536,-2.279 19.825,-6.836c4.648,-3.464 7.702,-7.702 9.16,-12.715c1.002,-3.281 1.504,-9.525 1.504,-18.73l-0,-7.657Z" style="fill:#fff;fill-rule:nonzero;"/><path d="M3150.78,185.117l0,-35.547l38.418,0l0,35.547l-38.418,0Zm0,164.883l0,-145.195l38.418,-0l0,145.195l-38.418,0Z" style="fill:#fff;fill-rule:nonzero;"/><path d="M3360.64,350l-38.418,0l-0,-74.102c-0,-15.677 -0.821,-25.817 -2.461,-30.419c-1.641,-4.603 -4.307,-8.181 -7.998,-10.733c-3.692,-2.552 -8.135,-3.828 -13.331,-3.828c-6.653,-0 -12.623,1.823 -17.91,5.469c-5.286,3.646 -8.909,8.476 -10.869,14.492c-1.959,6.016 -2.939,17.135 -2.939,33.359l-0,65.762l-38.418,0l-0,-145.195l35.683,-0l0,21.328c12.67,-16.406 28.62,-24.61 47.852,-24.61c8.477,0 16.224,1.527 23.242,4.581c7.018,3.053 12.328,6.949 15.928,11.689c3.6,4.74 6.107,10.117 7.519,16.133c1.413,6.015 2.12,14.629 2.12,25.84l-0,90.234Z" style="fill:#fff;fill-rule:nonzero;"/><path d="M3386.07,308.574l38.555,-5.879c1.641,7.474 4.967,13.148 9.98,17.022c5.013,3.873 12.032,5.81 21.055,5.81c9.935,0 17.409,-1.823 22.422,-5.468c3.372,-2.552 5.059,-5.97 5.059,-10.254c-0,-2.917 -0.912,-5.332 -2.735,-7.246c-1.914,-1.823 -6.198,-3.51 -12.851,-5.059c-30.99,-6.836 -50.632,-13.079 -58.926,-18.73c-11.485,-7.839 -17.227,-18.731 -17.227,-32.676c0,-12.578 4.968,-23.151 14.903,-31.719c9.934,-8.568 25.338,-12.852 46.211,-12.852c19.869,0 34.635,3.236 44.296,9.707c9.662,6.472 16.316,16.042 19.961,28.711l-36.23,6.7c-1.55,-5.651 -4.489,-9.981 -8.818,-12.989c-4.33,-3.007 -10.505,-4.511 -18.526,-4.511c-10.117,-0 -17.363,1.412 -21.738,4.238c-2.917,2.005 -4.375,4.603 -4.375,7.793c-0,2.734 1.276,5.058 3.828,6.973c3.464,2.552 15.426,6.152 35.889,10.8c20.462,4.649 34.749,10.345 42.861,17.09c8.021,6.836 12.031,16.361 12.031,28.574c0,13.308 -5.56,24.746 -16.679,34.317c-11.12,9.57 -27.572,14.355 -49.356,14.355c-19.779,0 -35.433,-4.01 -46.963,-12.031c-11.53,-8.021 -19.072,-18.913 -22.627,-32.676Z" style="fill:#fff;fill-rule:nonzero;"/></svg>