<?xml version="1.0" encoding="UTF-8" standalone="no"?><!DOCTYPE svg PUBLIC "-//W3C//DTD SVG 1.1//EN" "http://www.w3.org/Graphics/SVG/1.1/DTD/svg11.dtd"><svg width="100%" height="100%" viewBox="0 0 941 170" version="1.1" xmlns="http://www.w3.org/2000/svg" xmlns:xlink="http://www.w3.org/1999/xlink" xml:space="preserve" xmlns:serif="http://www.serif.com/" style="fill-rule:evenodd;clip-rule:evenodd;stroke-linejoin:round;stroke-miterlimit:2;"><path d="M47.35,35.665c1.934,9.846 13.237,18.328 17.147,20.579l42.817,24.947c4.165,2.331 27.941,16.617 37.044,42.664c0.232,0.655 0.853,1.097 1.548,1.1c0.901,-0 1.644,-0.738 1.65,-1.639l-0,-70.402c-0.003,-3.917 -2.146,-7.534 -5.58,-9.419l-8.045,-4.419c-1.662,-0.908 -3.775,-0.316 -4.724,1.324l-11.201,19.418c-0.964,1.66 -3.12,2.238 -4.786,1.283l-33.103,-19.103c-1.662,-0.968 -2.239,-3.127 -1.283,-4.796l10.763,-18.613c0.308,-0.534 0.47,-1.139 0.47,-1.755c-0,-1.427 -0.869,-2.718 -2.191,-3.255c-3.401,-1.375 -7.433,-2.871 -7.851,-3.055c-8.39,-2.729 -20.283,-3.686 -25.995,4.664c-4.002,5.916 -8.146,13.013 -6.68,20.477Z" style="fill:#db4b41;fill-rule:nonzero;"/><path d="M104.127,139.964c-1.934,-9.857 -13.237,-18.329 -17.147,-20.589l-42.766,-24.937c-4.216,-2.332 -27.992,-16.587 -37.105,-42.624c-0.222,-0.659 -0.842,-1.107 -1.538,-1.11c-0,0 -0,0 -0,0c-0.905,0 -1.65,0.745 -1.65,1.65c0,0.014 0,0.027 0.001,0.041l-0,70.391c0,3.915 2.139,7.532 5.569,9.419l8.055,4.429c1.662,0.908 3.776,0.316 4.724,-1.323l11.201,-19.418c0.625,-1.083 1.784,-1.753 3.034,-1.753c0.615,0 1.219,0.162 1.752,0.47l33.083,19.061c1.083,0.625 1.752,1.784 1.752,3.034c0,0.615 -0.162,1.219 -0.469,1.752l-10.743,18.624c-0.312,0.534 -0.476,1.141 -0.476,1.76c0,1.422 0.868,2.708 2.187,3.239c3.411,1.385 7.443,2.882 7.851,3.055c8.39,2.78 20.293,3.727 25.975,-4.613c4.022,-5.956 8.177,-13.054 6.71,-20.558Z" style="fill:#db4b41;fill-rule:nonzero;"/><path d="M298.083,79.887l-14.581,0l-2.312,-10.04c-1.692,-1.303 -3.592,-2.312 -5.62,-2.983c-2.406,-0.819 -4.933,-1.222 -7.474,-1.191c-3.815,-0 -6.843,0.855 -9.083,2.566c-2.119,1.47 -3.382,3.896 -3.371,6.476c-0.017,2.442 1.188,4.737 3.208,6.109c2.125,1.616 6.391,3.045 12.799,4.287c9.966,1.975 17.358,4.888 22.178,8.737c4.819,3.848 7.226,9.147 7.219,15.894c0,7.243 -3.116,13.159 -9.347,17.748c-6.232,4.589 -14.429,6.884 -24.591,6.884c-5.805,0.064 -11.578,-0.855 -17.076,-2.719c-5.019,-1.749 -9.674,-4.403 -13.736,-7.83l-0.224,-18.084l15.182,-0l2.973,10.498c1.547,1.209 3.358,2.035 5.285,2.413c2.293,0.533 4.641,0.796 6.995,0.784c4.419,0 7.78,-0.794 10.081,-2.383c2.207,-1.4 3.523,-3.862 3.462,-6.476c-0,-2.382 -1.164,-4.439 -3.493,-6.17c-2.328,-1.731 -6.622,-3.269 -12.881,-4.613c-9.469,-1.935 -16.624,-4.803 -21.464,-8.604c-4.84,-3.802 -7.26,-8.971 -7.26,-15.508c-0,-6.754 2.78,-12.572 8.339,-17.453c5.56,-4.881 13.472,-7.324 23.735,-7.331c5.991,-0.032 11.953,0.816 17.698,2.515c5.593,1.69 9.972,3.849 13.135,6.476l0.224,19.998Z" style="fill:#db4b41;fill-rule:nonzero;"/><path d="M312.858,65.337l-0,-13.105l31.769,-0l0.896,10.651c2.441,-3.752 5.781,-6.836 9.714,-8.971c4.162,-2.175 8.807,-3.265 13.502,-3.167c4.647,-0.134 9.238,1.053 13.237,3.421c3.819,2.462 6.745,6.091 8.34,10.346c2.31,-4.142 5.64,-7.627 9.673,-10.122c4.232,-2.496 9.079,-3.759 13.991,-3.645c7.942,0 14.204,2.743 18.787,8.228c4.582,5.484 6.876,13.831 6.883,25.038l-0,33.49l10.478,2.23l-0,13.024l-41.575,-0l-0,-13.024l9.378,-2.23l-0,-33.541c-0,-6.109 -0.991,-10.352 -2.974,-12.728c-1.982,-2.376 -4.935,-3.564 -8.858,-3.564c-2.802,-0.074 -5.569,0.631 -7.994,2.037c-2.274,1.381 -4.138,3.347 -5.396,5.692c-0,0.947 -0,1.751 0.071,2.423c0.071,0.672 0.071,1.355 0.071,2.037l0,37.675l8.788,2.23l-0,13.023l-39.223,0l-0,-13.054l8.787,-2.23l0,-33.541c0,-5.96 -0.994,-10.165 -2.983,-12.616c-1.989,-2.45 -4.966,-3.676 -8.93,-3.676c-2.663,-0.057 -5.302,0.519 -7.698,1.68c-2.189,1.094 -4.069,2.718 -5.468,4.725l-0,43.459l9.368,2.23l-0,13.023l-41.524,0l-0,-13.054l10.498,-2.23l-0,-49.894l-11.608,-2.27Z" style="fill:#db4b41;fill-rule:nonzero;"/><path d="M508.433,132.755c-0.601,-1.327 -1.125,-2.687 -1.569,-4.073c-0.438,-1.404 -0.778,-2.836 -1.018,-4.287c-2.624,3.013 -5.827,5.468 -9.419,7.219c-3.962,1.884 -8.311,2.811 -12.697,2.709c-7.888,-0 -14.15,-2.145 -18.787,-6.435c-4.636,-4.291 -6.958,-10.135 -6.965,-17.535c0,-7.535 3.028,-13.363 9.083,-17.483c6.055,-4.121 14.934,-6.181 26.638,-6.181l11.088,0l0,-7.881c0,-3.869 -1.113,-6.873 -3.34,-9.011c-2.226,-2.139 -5.529,-3.188 -9.907,-3.147c-2.239,-0.032 -4.471,0.256 -6.629,0.855c-1.653,0.444 -3.232,1.13 -4.684,2.037l-1.415,8.635l-16.374,-0l0.072,-17.86c4.25,-2.819 8.838,-5.094 13.654,-6.772c5.392,-1.883 11.07,-2.817 16.781,-2.759c9.979,-0 18.081,2.444 24.306,7.331c6.224,4.888 9.337,11.846 9.337,20.874l-0,36.769c0.02,1.046 0.105,2.09 0.254,3.126l6.629,0.886l0,13.023l-25.038,-0.04Zm-18.828,-14.51c3.106,0.04 6.174,-0.688 8.93,-2.118c2.48,-1.245 4.622,-3.073 6.242,-5.326l0,-12.28l-11.089,0c-4.609,0 -8.105,1.08 -10.488,3.238c-2.275,1.941 -3.583,4.789 -3.574,7.78c-0.126,2.423 0.847,4.778 2.648,6.404c2.078,1.641 4.688,2.461 7.331,2.302Z" style="fill:#db4b41;fill-rule:nonzero;"/><path d="M543.664,29.759l-0,-13.095l33.337,0l0,100.807l10.488,2.23l0,13.023l-42.664,0l-0,-12.993l10.498,-2.23l-0,-85.471l-11.659,-2.271Z" style="fill:#db4b41;fill-rule:nonzero;"/><path d="M597.845,29.759l-0,-13.095l33.337,0l0,100.807l10.498,2.23l0,13.023l-42.766,0l0,-12.993l10.488,-2.23l-0,-85.471l-11.557,-2.271Z" style="fill:#db4b41;fill-rule:nonzero;"/><path d="M713.09,79.887l-14.591,0l-2.302,-10.04c-1.692,-1.303 -3.592,-2.312 -5.62,-2.983c-2.406,-0.818 -4.933,-1.221 -7.474,-1.191c-3.829,-0 -6.856,0.855 -9.083,2.566c-2.103,1.469 -3.356,3.88 -3.35,6.445c-0.018,2.44 1.182,4.734 3.197,6.11c2.139,1.615 6.405,3.044 12.8,4.286c9.978,1.976 17.371,4.888 22.177,8.737c4.806,3.849 7.213,9.147 7.219,15.895c0,7.243 -3.112,13.159 -9.337,17.748c-6.225,4.589 -14.422,6.883 -24.591,6.883c-5.808,0.065 -11.585,-0.854 -17.086,-2.719c-5.037,-1.725 -9.714,-4.362 -13.797,-7.779l-0.224,-18.084l15.182,-0l2.973,10.498c1.547,1.209 3.358,2.036 5.285,2.413c2.293,0.534 4.641,0.797 6.995,0.784c4.409,0 7.78,-0.794 10.081,-2.382c2.207,-1.401 3.523,-3.863 3.462,-6.476c0,-2.383 -1.168,-4.44 -3.503,-6.171c-2.335,-1.731 -6.625,-3.268 -12.87,-4.613c-9.504,-1.934 -16.659,-4.802 -21.465,-8.604c-4.806,-3.801 -7.226,-8.977 -7.26,-15.528c-0,-6.754 2.78,-12.572 8.339,-17.453c5.56,-4.881 13.472,-7.324 23.736,-7.331c6.007,-0.037 11.987,0.811 17.748,2.515c5.58,1.69 9.958,3.849 13.135,6.476l0.224,19.998Z" style="fill:#db4b41;fill-rule:nonzero;"/><path d="M754.991,32.518l-0,19.714l14.143,-0l0,15.273l-14.143,0l-0,40.995c-0,3.126 0.652,5.356 1.935,6.7c1.372,1.383 3.267,2.123 5.213,2.037c1.306,0.008 2.611,-0.053 3.91,-0.184c1.11,-0.132 2.362,-0.336 3.757,-0.641l1.854,15.711c-2.361,0.725 -4.77,1.283 -7.21,1.67c-2.564,0.389 -5.155,0.576 -7.748,0.56c-7.468,0 -13.238,-2.06 -17.311,-6.18c-4.073,-4.121 -6.109,-10.644 -6.109,-19.571l-0,-41.107l-11.781,0l-0,-15.273l11.842,-0l0,-19.704l21.648,0Z" style="fill:#db4b41;fill-rule:nonzero;"/><path d="M815.434,134.323c-11.621,-0 -20.901,-3.734 -27.839,-11.201c-6.937,-7.467 -10.41,-16.92 -10.416,-28.358l-0,-2.973c-0,-11.961 3.285,-21.804 9.856,-29.53c6.571,-7.725 15.396,-11.57 26.475,-11.536c10.861,-0 19.295,3.275 25.303,9.826c6.008,6.551 9.012,15.406 9.012,26.566l-0,11.832l-48.102,-0l-0.143,0.448c0.211,4.84 2.089,9.46 5.315,13.074c3.157,3.435 7.437,5.149 12.84,5.142c4.045,0.097 8.082,-0.393 11.985,-1.456c3.612,-1.15 7.095,-2.668 10.396,-4.531l5.876,13.39c-3.894,2.931 -8.261,5.173 -12.912,6.629c-5.697,1.846 -11.657,2.751 -17.646,2.678Zm-1.945,-66.828c-3.738,-0.132 -7.308,1.598 -9.52,4.613c-2.329,3.075 -3.768,7.117 -4.318,12.127l0.224,0.377l26.648,0l-0,-1.935c-0,-4.616 -1.079,-8.302 -3.238,-11.058c-2.159,-2.756 -5.424,-4.131 -9.796,-4.124Z" style="fill:#db4b41;fill-rule:nonzero;"/><path d="M853.537,65.337l-0,-13.105l31.566,-0l1.018,9.378c2.198,-3.302 5.129,-6.051 8.563,-8.034c3.558,-1.946 7.565,-2.922 11.619,-2.831c9.965,0 17.703,3.897 23.216,11.69c5.512,7.793 8.264,18.023 8.258,30.69l-0,1.568c-0,11.906 -2.753,21.481 -8.258,28.724c-5.506,7.244 -13.194,10.865 -23.064,10.865c-3.861,0.066 -7.689,-0.735 -11.2,-2.342c-3.311,-1.593 -6.194,-3.953 -8.411,-6.883l-0,23.287l10.498,2.23l-0,13.105l-42.685,-0l0,-13.064l10.488,-2.23l-0,-80.818l-11.608,-2.23Zm62.51,27.788c0,-7.583 -1.262,-13.733 -3.788,-18.451c-2.525,-4.718 -6.398,-7.094 -11.618,-7.128c-2.921,-0.08 -5.812,0.624 -8.37,2.037c-2.322,1.358 -4.216,3.341 -5.468,5.722l0,35.282c1.285,2.223 3.184,4.03 5.468,5.204c2.657,1.269 5.58,1.883 8.523,1.792c5.264,-0 9.113,-2.037 11.577,-6.181c2.464,-4.144 3.676,-9.694 3.676,-16.74l0,-1.537Z" style="fill:#db4b41;fill-rule:nonzero;"/></svg>