<?xml version="1.0" encoding="UTF-8" standalone="no"?>
<svg
  data-v-423bf9ae=""
  viewBox="0 0 261 90"
  class="iconLeft"
  version="1.1"
  id="svg4"
  sodipodi:docname="logo-white.svg"
  inkscape:version="1.3.2 (091e20e, 2023-11-25)"
  inkscape:export-filename="logo-white.png"
  inkscape:export-xdpi="188.32184"
  inkscape:export-ydpi="188.32184"
  xmlns:inkscape="http://www.inkscape.org/namespaces/inkscape"
  xmlns:sodipodi="http://sodipodi.sourceforge.net/DTD/sodipodi-0.dtd"
  xmlns:xlink="http://www.w3.org/1999/xlink"
  xmlns="http://www.w3.org/2000/svg"
  xmlns:svg="http://www.w3.org/2000/svg"
>
  <sodipodi:namedview
    id="namedview4"
    pagecolor="#ffffff"
    bordercolor="#000000"
    borderopacity="0.25"
    inkscape:showpageshadow="2"
    inkscape:pageopacity="0.0"
    inkscape:pagecheckerboard="0"
    inkscape:deskcolor="#d1d1d1"
    inkscape:zoom="1.3754789"
    inkscape:cx="130.13649"
    inkscape:cy="45.07521"
    inkscape:window-width="1432"
    inkscape:window-height="781"
    inkscape:window-x="1992"
    inkscape:window-y="165"
    inkscape:window-maximized="0"
    inkscape:current-layer="g4"
  />
  <!---->
  <!---->
  <!---->
  <defs
    data-v-423bf9ae=""
    id="defs2"
  >
    <linearGradient
      data-v-423bf9ae=""
      gradientTransform="rotate(25)"
      id="6e8c0c25-875b-40cc-ab32-c1eb933e6138"
      x1="0%"
      y1="0%"
      x2="100%"
      y2="0%"
    >
      <stop
        data-v-423bf9ae=""
        offset="0%"
        style="stop-color: rgb(13, 124, 233); stop-opacity: 1"
        id="stop1"
      />
      <stop
        data-v-423bf9ae=""
        offset="100%"
        style="stop-color: rgb(21, 207, 241); stop-opacity: 1"
        id="stop2"
      />
    </linearGradient>
    <linearGradient
      inkscape:collect="always"
      xlink:href="#6e8c0c25-875b-40cc-ab32-c1eb933e6138"
      id="linearGradient4"
      gradientTransform="scale(0.98630937,1.0138807)"
      x1="12.095596"
      y1="11.36327"
      x2="85.287642"
      y2="11.36327"
      gradientUnits="userSpaceOnUse"
    />
    <linearGradient
      inkscape:collect="always"
      xlink:href="#6e8c0c25-875b-40cc-ab32-c1eb933e6138"
      id="linearGradient5"
      gradientTransform="scale(0.71876956,1.3912665)"
      x1="27.261867"
      y1="8.6963929"
      x2="81.030143"
      y2="8.6963929"
      gradientUnits="userSpaceOnUse"
    />
    <linearGradient
      inkscape:collect="always"
      xlink:href="#6e8c0c25-875b-40cc-ab32-c1eb933e6138"
      id="linearGradient6"
      gradientTransform="scale(1.974462,0.50646709)"
      x1="24.322069"
      y1="119.2654"
      x2="28.270993"
      y2="119.2654"
      gradientUnits="userSpaceOnUse"
    />
    <linearGradient
      inkscape:collect="always"
      xlink:href="#6e8c0c25-875b-40cc-ab32-c1eb933e6138"
      id="linearGradient7"
      gradientTransform="scale(0.97858585,1.0218828)"
      x1="12.191061"
      y1="11.274288"
      x2="85.960777"
      y2="11.274288"
      gradientUnits="userSpaceOnUse"
    />
  </defs>
  <g
    id="g4"
    transform="matrix(0.83036211,0,0,0.83036211,22.140926,7.2010858)"
  >
    <g
      data-v-423bf9ae=""
      id="092774b1-52cd-4047-b546-8ee97833b497"
      fill="#000000"
      transform="matrix(4.4345902,0,0,4.4345902,101.88517,2.0066502)"
      style="fill: #eff7fb; fill-opacity: 1"
    >
      <path
        d="m 0.97,3.63 v 6.14 c 0,2.63 1.45,3.8 3.51,3.8 2.06,0 3.53,-1.17 3.53,-3.8 V 3.63 H 6.68 v 6.11 c 0,1.85 -0.95,2.65 -2.2,2.65 -1.23,0 -2.2,-0.8 -2.2,-2.65 V 3.63 Z m 10.13,9.8 v -0.41 c 0,-3.78 1.15,-5.25 2.44,-5.25 0.21,0 0.39,0.01 0.54,0.06 V 6.66 C 13.9,6.62 13.75,6.61 13.5,6.61 c -1.22,0 -1.99,1.01 -2.43,2.48 L 11.05,6.75 H 9.83 v 6.68 z m 9.8,0 V 6.75 h -1.26 v 1.38 c -0.03,1.84 -0.5,4.37 -2.18,4.37 -0.74,0 -1.11,-0.42 -1.11,-1.48 V 6.75 h -1.26 v 4.52 c 0,1.44 0.56,2.28 2.02,2.28 1.31,0 2.11,-0.64 2.56,-1.78 l 0.13,1.66 z M 26.21,9.9 28.8,6.75 H 27.4 L 25.17,9.42 H 24.05 V 2.93 h -1.27 v 10.5 h 1.27 v -2.94 h 1.16 l 2.31,2.94 h 1.42 z m 5.63,5.56 c -0.75,0 -1.52,-0.09 -2.08,-0.26 v 1 c 0.55,0.17 1.39,0.26 2.12,0.26 2.42,0 3.81,-1.05 3.81,-3.82 V 7.42 H 35.67 V 6.75 h -1.29 v 1.82 c -0.09,1.78 -0.63,3.93 -2.17,3.93 -0.74,0 -1.1,-0.42 -1.1,-1.48 V 6.75 h -1.26 v 4.52 c 0,1.44 0.56,2.28 2.01,2.28 1.29,0 2.09,-0.61 2.55,-1.71 v 0.79 c 0,2.17 -1.01,2.83 -2.57,2.83 z"
        id="path1"
        style="fill: #eff7fb; fill-opacity: 1"
      />
    </g>
    <g
      data-v-423bf9ae=""
      id="b6811a15-e86d-4888-b081-a882576eab00"
      transform="matrix(1.1938873,0,0,1.1938873,-13.406432,-13.233775)"
      stroke="none"
      fill="url(#6e8c0c25-875b-40cc-ab32-c1eb933e6138)"
      style="fill: url(#linearGradient7)"
    >
      <path
        d="m 49.971,11.521 a 3.772,3.772 0 0 0 -3.768,3.768 c 0,2.078 1.69,3.769 3.768,3.769 2.078,0 3.768,-1.69 3.768,-3.769 a 3.773,3.773 0 0 0 -3.768,-3.768 z m 0,2 a 1.77,1.77 0 0 1 1.768,1.768 c 0,0.976 -0.793,1.769 -1.768,1.769 -0.975,0 -1.768,-0.793 -1.768,-1.769 a 1.77,1.77 0 0 1 1.768,-1.768 z M 12.378,79.318 c 0,2.077 1.69,3.768 3.768,3.768 2.078,0 3.768,-1.69 3.768,-3.768 0,-2.078 -1.69,-3.769 -3.768,-3.769 -2.078,0 -3.768,1.691 -3.768,3.769 z m 2,0 a 1.77,1.77 0 0 1 1.768,-1.769 1.77,1.77 0 0 1 1.768,1.769 1.77,1.77 0 0 1 -1.768,1.768 1.77,1.77 0 0 1 -1.768,-1.768 z m 62.206,2.643 c 0,2.077 1.69,3.768 3.768,3.768 2.078,0 3.768,-1.69 3.768,-3.768 0,-2.078 -1.69,-3.769 -3.768,-3.769 -2.078,0 -3.768,1.691 -3.768,3.769 z m 2,0 c 0,-0.976 0.793,-1.769 1.768,-1.769 0.975,0 1.768,0.793 1.768,1.769 0,0.975 -0.793,1.768 -1.768,1.768 -0.975,0 -1.768,-0.793 -1.768,-1.768 z m 1.768,-62.409 a 3.772,3.772 0 0 0 -3.768,3.769 c 0,2.077 1.69,3.768 3.768,3.768 2.078,0 3.768,-1.69 3.768,-3.768 a 3.773,3.773 0 0 0 -3.768,-3.769 z m 0,2 a 1.77,1.77 0 0 1 1.768,1.769 c 0,0.975 -0.793,1.768 -1.768,1.768 -0.975,0 -1.768,-0.793 -1.768,-1.768 a 1.77,1.77 0 0 1 1.768,-1.769 z m -68.422,9.03 c 0,2.078 1.69,3.769 3.768,3.769 2.078,0 3.768,-1.69 3.768,-3.769 0,-2.077 -1.69,-3.768 -3.768,-3.768 -2.078,0 -3.768,1.691 -3.768,3.768 z m 2,0 a 1.77,1.77 0 0 1 1.768,-1.768 1.77,1.77 0 0 1 1.768,1.768 1.77,1.77 0 0 1 -1.768,1.769 1.77,1.77 0 0 1 -1.768,-1.769 z M 55.218,74.9 C 68.796,74.9 79.843,63.853 79.843,50.275 79.843,36.697 68.796,25.65 55.218,25.65 41.64,25.65 30.594,36.697 30.594,50.275 30.594,63.853 41.64,74.9 55.218,74.9 Z m 0,-2 c -8.014,0 -15.064,-4.193 -19.084,-10.496 h 9.193 a 1,1 0 1 0 0,-2 h -10.33 a 22.386,22.386 0 0 1 -1.26,-3.043 h 19.925 a 1,1 0 1 0 0,-2 H 33.177 a 22.62,22.62 0 0 1 -0.583,-5.086 c 0,-4.545 1.352,-8.777 3.667,-12.327 a 1,1 0 0 0 0.38,0.077 h 11.652 a 1,1 0 1 0 0,-2 H 37.662 c 4.152,-5.106 10.478,-8.375 17.557,-8.375 9.882,0 18.299,6.371 21.374,15.219 h -19.79 a 1,1 0 1 0 0,2 h 20.382 c 0.35,1.421 0.566,2.894 0.632,4.406 H 61.401 a 1,1 0 1 0 0,2 H 77.818 C 77.292,63.288 67.358,72.9 55.218,72.9 Z"
        id="path2"
        style="fill: url(#linearGradient4)"
      />
      <path
        d="m 19.595,49.259 c 0,20.759 16.888,37.646 37.647,37.646 a 1,1 0 1 0 0,-2 c -19.656,0 -35.647,-15.991 -35.647,-35.646 a 35.723,35.723 0 0 1 7.607,-22.001 8.087,8.087 0 0 0 4.127,1.134 c 4.493,0 8.147,-3.654 8.147,-8.146 0,-4.492 -3.655,-8.147 -8.147,-8.147 -4.492,0 -8.147,3.655 -8.147,8.147 a 8.12,8.12 0 0 0 2.432,5.797 37.727,37.727 0 0 0 -8.019,23.216 z M 33.329,26.393 c -3.39,0 -6.147,-2.757 -6.147,-6.146 0,-3.389 2.758,-6.147 6.147,-6.147 3.389,0 6.147,2.758 6.147,6.147 0,3.389 -2.757,6.146 -6.147,6.146 z"
        id="path3"
        style="fill: url(#linearGradient5)"
      />
      <path
        d="m 49.023,62.404 a 1,1 0 1 1 0,-2 h 5.797 a 1,1 0 1 1 0,2 z"
        id="path4"
        style="fill: url(#linearGradient6)"
      />
    </g>
  </g>
  <!---->
</svg>
