<?xml version="1.0" encoding="utf-8"?>
<!-- Generator: Adobe Illustrator 19.0.0, SVG Export Plug-In . SVG Version: 6.00 Build 0)  -->
<svg version="1.1" id="Layer_1" xmlns="http://www.w3.org/2000/svg" xmlns:xlink="http://www.w3.org/1999/xlink" x="0px" y="0px"
	 viewBox="-301 240.1 355.9 81.9" style="enable-background:new -301 240.1 355.9 81.9;" xml:space="preserve">
<style type="text/css">
	.st0{fill:#27344A;}
	.st1{fill:#0052CC;}
</style>
<g id="XMLID_37_">
	<path id="XMLID_45_" class="st0" d="M-164.5,297.9c0-0.6-0.7-0.9-1.2-0.5c-0.2,0.2-0.4,0.4-0.7,0.6c-0.7,0.6-1.4,1.1-2.1,1.5
		c-0.9,0.5-1.9,0.9-2.8,1.1c-1,0.2-2.1,0.4-3.2,0.4c-2.8,0-5.1-1-6.9-3c-1.9-2-2.8-4.6-2.8-7.8c0-2.5,0.5-4.6,1.4-6.2s2.3-2.9,4-3.8
		s3.9-1.6,6.4-2c2.5-0.4,5.2-0.7,7.9-0.9v-0.2c0-1.9-0.7-3.2-2-3.9c-1.3-0.7-3.2-1.1-5.8-1.1c-1.5,0-3.2,0.3-4.9,1
		c-1.7,0.6-3,1.1-3.7,1.5h-0.9v-7.8c0-0.3,0.2-0.6,0.5-0.7c1-0.3,2.4-0.6,4.3-0.9c2.2-0.4,4.4-0.6,6.6-0.6c5.3,0,9.1,1,11.4,2.9
		s3.5,5,3.5,9.1v22.7c0,0.4-0.3,0.7-0.7,0.7h-7.8c-0.4,0-0.7-0.3-0.7-0.7v-1.4H-164.5z M-164.5,290.6v-6.1c0-0.4-0.4-0.8-0.8-0.7
		c-1,0.1-2.1,0.3-3.3,0.4c-1.5,0.2-2.6,0.5-3.3,0.7c-0.9,0.3-1.6,0.9-2.1,1.5c-0.5,0.7-0.7,1.5-0.7,2.6c0,0.7,0.1,1.3,0.2,1.7
		c0.1,0.4,0.4,0.9,0.8,1.3c0.4,0.4,0.9,0.7,1.4,0.9c0.5,0.2,1.4,0.3,2.6,0.3c0.9,0,1.9-0.2,2.8-0.7c0.9-0.4,1.6-0.9,2.3-1.6
		C-164.6,291-164.5,290.8-164.5,290.6z"/>
	<path id="XMLID_44_" class="st0" d="M-116.5,282.3c0,2.8-0.4,5.4-1.1,7.8c-0.7,2.3-1.7,4.3-2.9,5.8c-1.2,1.6-2.6,2.8-4.2,3.6
		c-1.6,0.8-3.2,1.2-5,1.2c-1.6,0-3-0.2-4.2-0.6c-0.8-0.3-1.6-0.7-2.5-1.1c-0.5-0.3-1,0.1-1,0.6v12.3c0,0.4-0.3,0.7-0.7,0.7h-7.9
		c-0.4,0-0.7-0.3-0.7-0.7v-45.6c0-0.4,0.3-0.7,0.7-0.7h7.9c0.4,0,0.7,0.3,0.7,0.7v1.3c0,0.6,0.7,0.9,1.2,0.5
		c1.1-0.9,2.1-1.6,3.2-2.2c1.5-0.8,3.2-1.3,5.1-1.3c3.6,0,6.4,1.6,8.4,4.7C-117.5,272.5-116.5,276.8-116.5,282.3z M-126.1,282.5
		c0-3.3-0.5-5.8-1.4-7.3c-1-1.5-2.5-2.3-4.6-2.3c-0.9,0-1.8,0.2-2.7,0.5c-0.8,0.3-1.6,0.7-2.3,1.1c-0.2,0.1-0.3,0.4-0.3,0.6v16.4
		c0,0.3,0.2,0.6,0.4,0.7c0.5,0.2,1,0.3,1.5,0.4c0.7,0.1,1.4,0.1,2.1,0.1c2.5,0,4.3-0.9,5.5-2.6
		C-126.7,288.4-126.1,285.9-126.1,282.5z"/>
	<path id="XMLID_43_" class="st0" d="M-102.1,260.6h-6.1c-1,0-1.9-0.8-1.9-1.9v-4.6c0-1,0.8-1.9,1.9-1.9h6.1c1,0,1.9,0.8,1.9,1.9
		v4.6C-100.3,259.8-101.1,260.6-102.1,260.6z M-101.2,300h-7.9c-0.4,0-0.7-0.3-0.7-0.7v-33c0-0.4,0.3-0.7,0.7-0.7h7.9
		c0.4,0,0.7,0.3,0.7,0.7v33C-100.5,299.6-100.8,300-101.2,300z"/>
	<path id="XMLID_42_" class="st0" d="M-83.2,300h-7.9c-0.4,0-0.7-0.3-0.7-0.7V253c0-0.4,0.3-0.7,0.7-0.7h7.9c0.4,0,0.7,0.3,0.7,0.7
		v46.3C-82.5,299.6-82.8,300-83.2,300z"/>
	<path id="XMLID_41_" class="st0" d="M-56.2,297.9c0-0.6-0.7-0.9-1.2-0.5c-0.2,0.2-0.4,0.4-0.7,0.6c-0.7,0.6-1.4,1.1-2.1,1.5
		c-0.9,0.5-1.9,0.9-2.8,1.1c-1,0.2-2.1,0.4-3.2,0.4c-2.8,0-5.1-1-6.9-3c-1.9-2-2.8-4.6-2.8-7.8c0-2.5,0.5-4.6,1.4-6.2s2.3-2.9,4-3.8
		s3.9-1.6,6.4-2c2.5-0.4,5.2-0.7,7.9-0.9v-0.2c0-1.9-0.7-3.2-2-3.9c-1.3-0.7-3.2-1.1-5.8-1.1c-1.5,0-3.2,0.3-4.9,1
		c-1.7,0.6-3,1.1-3.7,1.5h-0.9v-7.8c0-0.3,0.2-0.6,0.5-0.7c1-0.3,2.4-0.6,4.3-0.9c2.2-0.4,4.4-0.6,6.6-0.6c5.3,0,9.1,1,11.4,2.9
		s3.5,5,3.5,9.1v22.7c0,0.4-0.3,0.7-0.7,0.7h-7.8c-0.4,0-0.7-0.3-0.7-0.7v-1.4H-56.2z M-56.2,290.6v-6.1c0-0.4-0.4-0.8-0.8-0.7
		c-1,0.1-2.1,0.3-3.3,0.4c-1.5,0.2-2.6,0.5-3.3,0.7c-0.9,0.3-1.6,0.9-2.1,1.5c-0.5,0.7-0.7,1.5-0.7,2.6c0,0.7,0.1,1.3,0.2,1.7
		c0.1,0.4,0.4,0.9,0.8,1.3s0.9,0.7,1.4,0.9c0.5,0.2,1.4,0.3,2.6,0.3c0.9,0,1.9-0.2,2.8-0.7c0.9-0.4,1.6-0.9,2.3-1.6
		C-56.2,291-56.2,290.8-56.2,290.6z"/>
	<path id="XMLID_40_" class="st0" d="M-24.7,285.6l5.8-19.5c0.1-0.3,0.4-0.5,0.7-0.5h8c0.5,0,0.8,0.5,0.7,0.9l-15.6,45.6
		c-0.1,0.3-0.4,0.5-0.7,0.5h-8.6c-0.5,0-0.8-0.5-0.7-0.9l4.2-11.7c0.1-0.1,0.1-0.3,0-0.5l-10.9-33c-0.2-0.5,0.2-0.9,0.7-0.9h8.3
		c0.3,0,0.6,0.2,0.7,0.5l6.1,19.5C-25.8,286.2-24.9,286.2-24.7,285.6z"/>
	<path id="XMLID_39_" class="st0" d="M23.8,284.8H4c-0.4,0-0.8,0.4-0.7,0.8c0.3,2.3,1.1,4.1,2.5,5.4c1.6,1.4,3.9,2.1,7,2.1
		c2,0,3.9-0.4,5.7-1.3c1.8-0.8,3.3-1.7,4.4-2.7h1v8.4c0,0.3-0.2,0.5-0.4,0.7c-1.9,0.9-3.8,1.6-5.5,2c-1.9,0.4-3.9,0.7-6.2,0.7
		c-5.8,0-10.3-1.6-13.4-4.7s-4.6-7.5-4.6-13.3c0-5.7,1.5-10.2,4.4-13.5c2.9-3.3,7-5,12.1-5c4.7,0,8.3,1.4,10.6,4.2
		c2.4,2.8,3.6,6.9,3.6,12.2v3.2C24.5,284.5,24.2,284.8,23.8,284.8z M14.5,278.3c0.4,0,0.7-0.3,0.7-0.7c-0.1-1.9-0.6-3.4-1.4-4.5
		c-0.9-1.2-2.3-1.7-4.3-1.7c-1.8,0-3.3,0.6-4.4,1.7c-1,1-1.7,2.5-1.9,4.5c0,0.4,0.3,0.8,0.7,0.8L14.5,278.3L14.5,278.3z"/>
	<path id="XMLID_38_" class="st0" d="M52.1,276.1h-0.8c-0.4-0.2-1-0.3-1.9-0.4s-1.6-0.1-2.2-0.1c-1.3,0-2.5,0.1-3.5,0.3
		c-0.9,0.2-1.8,0.5-2.8,0.9c-0.3,0.1-0.5,0.4-0.5,0.7v21.9c0,0.4-0.3,0.7-0.7,0.7h-7.9c-0.4,0-0.7-0.3-0.7-0.7v-33
		c0-0.4,0.3-0.7,0.7-0.7h7.9c0.4,0,0.7,0.3,0.7,0.7v2.7c0,0.6,0.7,0.9,1.2,0.5c1.5-1.4,2.9-2.4,4.1-3c1.5-0.7,2.9-1,4.2-1
		c0.3,0,0.7,0,1.1,0s0.8,0.1,1.1,0.1L52.1,276.1L52.1,276.1z"/>
</g>
<g id="XMLID_7_">
	<g id="XMLID_8_">
		<path id="XMLID_9_" class="st1" d="M-220.8,294.3l-4,5.2c-1.7,2.2-4.3,3.5-7,3.5h-40.8l-15.1-35.9c-1.1-2.6-0.7-5.6,1-7.8l3.3-4.4
			l16.5,39.4H-220.8z"/>
	</g>
	<path id="XMLID_1_" class="st1" d="M-220.3,288.4h-42.3l-15-35.8c-1.6-3.8,1.2-8,5.3-8h42.3l15,35.8
		C-213.4,284.2-216.2,288.4-220.3,288.4z"/>
	<g id="XMLID_10_">
		<path id="XMLID_11_" class="st1" d="M-232,308.8l-4,5.2c-1.7,2.2-4.3,3.5-7,3.5h-35.5c-2.6,0-4.9-1.5-5.9-3.9l-13.5-32.4
			c-1.2-2.9-0.8-6.3,1.1-8.8l3-3.9l16.9,40.3H-232z"/>
	</g>
</g>
</svg>
