<?xml version="1.0" encoding="UTF-8" standalone="no"?><!DOCTYPE svg PUBLIC "-//W3C//DTD SVG 1.1//EN" "http://www.w3.org/Graphics/SVG/1.1/DTD/svg11.dtd"><svg width="100%" height="100%" viewBox="0 0 141 43" version="1.1" xmlns="http://www.w3.org/2000/svg" xmlns:xlink="http://www.w3.org/1999/xlink" xml:space="preserve" xmlns:serif="http://www.serif.com/" style="fill-rule:evenodd;clip-rule:evenodd;stroke-linejoin:round;stroke-miterlimit:2;"><g><path d="M139.495,1.209c0.725,0.725 1.088,1.598 1.088,2.617c0,1.02 -0.361,1.894 -1.083,2.623c-0.722,0.728 -1.599,1.093 -2.633,1.093c-1.033,0 -1.907,-0.361 -2.622,-1.083c-0.715,-0.722 -1.072,-1.593 -1.072,-2.612c0,-1.02 0.36,-1.896 1.082,-2.628c0.722,-0.732 1.596,-1.098 2.623,-1.098c1.026,0 1.898,0.363 2.617,1.088Zm-0.493,4.66c0.548,-0.568 0.821,-1.252 0.821,-2.053c0,-0.801 -0.287,-1.488 -0.862,-2.063c-0.575,-0.575 -1.267,-0.862 -2.078,-0.862c-0.811,0 -1.506,0.291 -2.084,0.872c-0.578,0.582 -0.867,1.276 -0.867,2.084c0,0.807 0.284,1.498 0.852,2.073c0.568,0.575 1.266,0.862 2.094,0.862c0.828,0 1.529,-0.297 2.104,-0.893l-1.191,0l-0.893,-1.283l-0.451,0l0,1.283l-1.129,0l0,-4.167l1.652,0c0.657,0 1.126,0.113 1.406,0.339c0.281,0.226 0.421,0.588 0.421,1.088c0,0.609 -0.277,1.033 -0.831,1.273l1.036,1.447Zm-2.011,-2.186c0.266,0 0.448,-0.043 0.544,-0.129c0.095,-0.085 0.143,-0.222 0.143,-0.41c0,-0.188 -0.049,-0.318 -0.149,-0.39c-0.099,-0.072 -0.272,-0.108 -0.518,-0.108l-0.564,0l0,1.037l0.544,0Z" style="fill-rule:nonzero;"/><path d="M16.076,34.243c-3.037,0 -5.781,-0.706 -8.231,-2.117c-2.45,-1.412 -4.37,-3.362 -5.76,-5.852c-1.39,-2.489 -2.085,-5.297 -2.085,-8.424c0,-3.127 0.702,-5.935 2.106,-8.424c1.404,-2.489 3.332,-4.44 5.782,-5.851c2.45,-1.412 5.194,-2.118 8.231,-2.118c2.465,0 4.714,0.456 6.749,1.366c2.035,0.911 3.754,2.232 5.158,3.962l-3.611,3.597c-2.177,-2.489 -4.857,-3.734 -8.038,-3.734c-2.063,0 -3.911,0.478 -5.545,1.435c-1.633,0.956 -2.908,2.284 -3.825,3.984c-0.917,1.7 -1.376,3.628 -1.376,5.783c0,2.156 0.459,4.083 1.376,5.783c0.917,1.7 2.192,3.028 3.825,3.985c1.634,0.956 3.482,1.434 5.545,1.434c3.181,0 5.861,-1.26 8.038,-3.779l3.611,3.642c-1.404,1.731 -3.131,3.051 -5.179,3.962c-2.049,0.911 -4.306,1.366 -6.771,1.366Z" style="fill-rule:nonzero;"/><path d="M39.503,9.198c3.382,0 5.968,0.858 7.759,2.573c1.791,1.715 2.687,4.303 2.687,7.764l0,14.253l-5.073,0l0,-2.96c-0.659,1.062 -1.597,1.875 -2.815,2.436c-1.218,0.562 -2.687,0.843 -4.406,0.843c-1.72,0 -3.224,-0.312 -4.514,-0.934c-1.289,-0.622 -2.285,-1.487 -2.987,-2.595c-0.702,-1.109 -1.053,-2.361 -1.053,-3.757c0,-2.186 0.766,-3.939 2.3,-5.26c1.533,-1.32 3.947,-1.98 7.242,-1.98l5.932,0l0,-0.365c0,-1.7 -0.48,-3.005 -1.44,-3.916c-0.96,-0.911 -2.385,-1.366 -4.277,-1.366c-1.289,0 -2.557,0.213 -3.804,0.638c-1.246,0.425 -2.299,1.017 -3.159,1.775l-2.106,-4.143c1.203,-0.972 2.65,-1.716 4.341,-2.232c1.691,-0.516 3.482,-0.774 5.373,-0.774Zm-0.731,20.765c1.347,0 2.544,-0.327 3.59,-0.979c1.046,-0.653 1.784,-1.586 2.213,-2.801l0,-2.823l-5.545,0c-3.095,0 -4.642,1.078 -4.642,3.233c0,1.032 0.387,1.852 1.161,2.459c0.773,0.607 1.848,0.911 3.223,0.911Z" style="fill-rule:nonzero;"/><path d="M77.158,0l0,33.788l-5.158,0l0,-3.142c-0.889,1.153 -1.985,2.019 -3.289,2.595c-1.303,0.577 -2.743,0.866 -4.32,0.866c-2.206,0 -4.191,-0.517 -5.953,-1.549c-1.762,-1.032 -3.145,-2.497 -4.148,-4.394c-1.003,-1.897 -1.504,-4.075 -1.504,-6.534c0,-2.459 0.501,-4.63 1.504,-6.512c1.003,-1.882 2.386,-3.339 4.148,-4.371c1.762,-1.033 3.747,-1.549 5.953,-1.549c1.519,0 2.909,0.274 4.17,0.82c1.261,0.546 2.336,1.366 3.224,2.459l0,-12.477l5.373,0Zm-12.122,29.234c1.29,0 2.45,-0.311 3.482,-0.933c1.032,-0.623 1.848,-1.511 2.45,-2.664c0.602,-1.154 0.903,-2.489 0.903,-4.007c0,-1.518 -0.301,-2.854 -0.903,-4.008c-0.602,-1.153 -1.418,-2.041 -2.45,-2.663c-1.032,-0.623 -2.192,-0.934 -3.482,-0.934c-1.289,0 -2.45,0.311 -3.482,0.934c-1.031,0.622 -1.848,1.51 -2.45,2.663c-0.601,1.154 -0.902,2.49 -0.902,4.008c0,1.518 0.301,2.853 0.902,4.007c0.602,1.153 1.419,2.041 2.45,2.664c1.032,0.622 2.193,0.933 3.482,0.933Z" style="fill-rule:nonzero;"/><path d="M104.539,0l0,33.788l-5.158,0l0,-3.142c-0.888,1.153 -1.984,2.019 -3.288,2.595c-1.304,0.577 -2.744,0.866 -4.32,0.866c-2.207,0 -4.191,-0.517 -5.954,-1.549c-1.762,-1.032 -3.145,-2.497 -4.148,-4.394c-1.003,-1.897 -1.504,-4.075 -1.504,-6.534c0,-2.459 0.501,-4.63 1.504,-6.512c1.003,-1.882 2.386,-3.339 4.148,-4.371c1.763,-1.033 3.747,-1.549 5.954,-1.549c1.519,0 2.909,0.274 4.169,0.82c1.261,0.546 2.336,1.366 3.224,2.459l0,-12.477l5.373,0Zm-12.121,29.234c1.289,0 2.45,-0.311 3.481,-0.933c1.032,-0.623 1.849,-1.511 2.451,-2.664c0.601,-1.154 0.902,-2.489 0.902,-4.007c0,-1.518 -0.301,-2.854 -0.902,-4.008c-0.602,-1.153 -1.419,-2.041 -2.451,-2.663c-1.031,-0.623 -2.192,-0.934 -3.481,-0.934c-1.29,0 -2.45,0.311 -3.482,0.934c-1.032,0.622 -1.848,1.51 -2.45,2.663c-0.602,1.154 -0.903,2.49 -0.903,4.008c0,1.518 0.301,2.853 0.903,4.007c0.602,1.153 1.418,2.041 2.45,2.664c1.032,0.622 2.192,0.933 3.482,0.933Z" style="fill-rule:nonzero;"/><path d="M130.932,9.472l-10.746,26.274c-1.003,2.641 -2.221,4.5 -3.654,5.578c-1.433,1.078 -3.166,1.617 -5.201,1.617c-1.146,0 -2.278,-0.198 -3.396,-0.592c-1.117,-0.395 -2.034,-0.941 -2.751,-1.64l2.149,-4.189c0.516,0.516 1.125,0.926 1.827,1.229c0.702,0.304 1.412,0.456 2.128,0.456c0.946,0 1.727,-0.258 2.343,-0.774c0.616,-0.516 1.182,-1.382 1.698,-2.596l0.386,-0.956l-10.015,-24.407l5.588,0l7.222,17.986l7.264,-17.986l5.158,0Z" style="fill-rule:nonzero;"/></g></svg>