<?xml version="1.0" encoding="UTF-8" standalone="no"?><!DOCTYPE svg PUBLIC "-//W3C//DTD SVG 1.1//EN" "http://www.w3.org/Graphics/SVG/1.1/DTD/svg11.dtd"><svg width="100%" height="100%" viewBox="0 0 1603 209" version="1.1" xmlns="http://www.w3.org/2000/svg" xmlns:xlink="http://www.w3.org/1999/xlink" xml:space="preserve" xmlns:serif="http://www.serif.com/" style="fill-rule:evenodd;clip-rule:evenodd;stroke-linejoin:round;stroke-miterlimit:2;"><path d="M0,3.507l162.493,0l0,48.222l-97.905,0l0,34.486l84.169,0l0,46.175l-84.169,0l0,72.187l-64.588,0l0,-201.07Z" style="fill:#fff;fill-rule:nonzero;"/><path d="M180.32,3.507l173.89,0l0,48.222l-109.302,0l0,27.764l93.521,0l0,46.176l-93.521,0l0,30.686l111.348,0l0,48.222l-175.936,0l0,-201.07Z" style="fill:#fff;fill-rule:nonzero;"/><path d="M511.442,204.577l-8.475,-28.349l-70.433,0l-8.475,28.349l-66.049,0l73.355,-201.07l75.109,0l73.355,201.07l-68.387,0Zm-65.464,-73.356l43.545,0l-21.042,-71.601l-1.169,0l-21.334,71.601Z" style="fill:#fff;fill-rule:nonzero;"/><path d="M705.206,54.944l0,149.633l-64.588,0l0,-149.633l-66.049,0l0,-51.437l196.394,0l0,51.437l-65.757,0Z" style="fill:#fff;fill-rule:nonzero;"/><path d="M986.061,123.623c0,27.472 -8.67,48.416 -26.011,62.834c-17.34,14.418 -41.987,21.627 -73.94,21.627c-31.953,0 -56.648,-7.209 -74.086,-21.627c-17.437,-14.418 -26.156,-35.362 -26.156,-62.834l0,-120.116l64.587,0l0,119.239c0,11.301 3.02,20.312 9.06,27.034c6.04,6.721 14.808,10.082 26.303,10.082c11.495,0 20.312,-3.409 26.449,-10.229c6.137,-6.819 9.206,-15.781 9.206,-26.887l0,-119.239l64.588,0l0,120.116Z" style="fill:#fff;fill-rule:nonzero;"/><path d="M1205.54,65.172c0,12.275 -3.313,23.381 -9.937,33.317c-6.624,9.937 -16.269,17.243 -28.933,21.919l44.715,84.169l-72.479,0l-35.655,-73.356l-23.965,0l0,73.356l-64.587,0l0,-201.07l123.038,0c14.418,0 26.741,2.776 36.97,8.329c10.229,5.553 17.925,13.054 23.088,22.504c5.163,9.449 7.745,19.727 7.745,30.832Zm-65.757,2.631c0,-5.261 -1.754,-9.645 -5.261,-13.152c-3.507,-3.507 -7.793,-5.26 -12.859,-5.26l-42.377,0l0,37.116l42.377,0c5.066,0 9.352,-1.802 12.859,-5.407c3.507,-3.604 5.261,-8.037 5.261,-13.297Z" style="fill:#fff;fill-rule:nonzero;"/><path d="M1227.46,3.507l173.89,0l0,48.222l-109.303,0l0,27.764l93.521,0l0,46.176l-93.521,0l0,30.686l111.349,0l0,48.222l-175.936,0l0,-201.07Z" style="fill:#fff;fill-rule:nonzero;"/><path d="M1508.32,0c25.719,0 46.858,5.212 63.419,15.636c16.561,10.423 25.037,25.864 25.426,46.322l0,3.507l-60.496,0l0,-1.169c0,-5.845 -2.143,-10.716 -6.43,-14.613c-4.286,-3.897 -10.813,-5.845 -19.581,-5.845c-8.572,0 -15.148,1.266 -19.727,3.799c-4.578,2.533 -6.868,5.65 -6.868,9.352c0,5.261 3.118,9.158 9.353,11.69c6.234,2.533 16.268,5.164 30.102,7.891c16.171,3.312 29.468,6.771 39.892,10.375c10.424,3.605 19.532,9.498 27.326,17.681c7.793,8.184 11.787,19.289 11.982,33.317c0,23.77 -8.037,41.403 -24.111,52.898c-16.074,11.495 -37.554,17.243 -64.442,17.243c-31.368,0 -55.771,-5.261 -73.209,-15.782c-17.438,-10.521 -26.156,-29.128 -26.156,-55.82l61.08,0c0,10.131 2.631,16.902 7.891,20.312c5.261,3.409 13.444,5.114 24.549,5.114c8.183,0 14.954,-0.877 20.312,-2.63c5.358,-1.754 8.037,-5.358 8.037,-10.814c0,-4.87 -2.971,-8.524 -8.914,-10.959c-5.942,-2.436 -15.635,-5.017 -29.079,-7.745c-16.366,-3.507 -29.907,-7.16 -40.623,-10.959c-10.716,-3.8 -20.068,-10.083 -28.056,-18.851c-7.989,-8.767 -11.983,-20.652 -11.983,-35.654c0,-22.017 8.524,-38.237 25.572,-48.66c17.049,-10.424 38.627,-15.636 64.734,-15.636Z" style="fill:#fff;fill-rule:nonzero;"/></svg>