<?xml version="1.0" encoding="UTF-8" standalone="no"?><!DOCTYPE svg PUBLIC "-//W3C//DTD SVG 1.1//EN" "http://www.w3.org/Graphics/SVG/1.1/DTD/svg11.dtd"><svg width="100%" height="100%" viewBox="0 0 152 152" version="1.1" xmlns="http://www.w3.org/2000/svg" xmlns:xlink="http://www.w3.org/1999/xlink" xml:space="preserve" xmlns:serif="http://www.serif.com/" style="fill-rule:evenodd;clip-rule:evenodd;stroke-linejoin:round;stroke-miterlimit:2;"><path d="M111.723,0.024c-1.334,0.191 -2.562,0.837 -3.475,1.828l-17.005,17.371c-4.848,-4.269 -9.328,-8.066 -12.982,-10.605c-2.337,-1.624 -4.364,-2.963 -6.4,-3.84c-1.018,-0.438 -2.04,-0.77 -3.474,-0.914c-1.434,-0.145 -3.966,0.125 -5.852,2.011l-28.707,29.256l0.182,0.183c-0.986,1.053 -1.565,2.233 -1.828,3.291l-0.183,0.732c-0.005,0.052 0.003,0.132 0,0.183c-0.004,0.068 0.002,0.116 0,0.183l-6.765,39.313c-0.288,1.15 1.804,4.406 5.485,8.96l-3.84,3.839c-5.12,5.12 -5.668,12.606 -1.828,18.286l-25.051,25.05l16.457,16.457l25.05,-25.234l0.183,0c5.652,3.354 12.801,2.701 17.371,-2.377l3.292,-3.291c5.071,4.196 9.018,6.522 10.239,6.217l39.131,-6.765c0.136,0.013 0.223,-0.009 0.365,0c1.111,0.065 2.737,-0.041 4.389,-1.28l0.365,-0.366l0.183,-0.183l28.708,-28.708c1.582,-1.581 1.804,-3.383 1.829,-4.388c0.024,-1.006 -0.041,-1.645 -0.183,-2.194c-0.284,-1.1 -0.687,-1.882 -1.097,-2.743c-0.821,-1.724 -1.927,-3.451 -3.109,-5.303c-1.182,-1.852 -2.456,-3.725 -3.657,-5.303c-1.201,-1.577 -1.761,-2.783 -3.657,-4.205l-7.131,9.508c0.268,0.305 0.865,1.043 1.463,1.829c0.956,1.256 2.096,2.802 3.108,4.388c0.67,1.049 1.169,1.875 1.646,2.743l-23.588,23.405c-1.973,-1.225 -4.879,-3.377 -8.411,-6.217c-7.238,-5.819 -16.998,-14.362 -27.428,-24.502c-10.379,-10.091 -19.274,-19.807 -25.051,-27.062c-2.888,-3.628 -4.931,-6.66 -6.034,-8.594l24.137,-24.503c0.839,0.466 1.618,0.738 2.925,1.646c2.968,2.062 7.085,5.46 11.52,9.326l-10.423,10.605c-1.377,1.11 -2.18,2.787 -2.18,4.556c0,3.211 2.642,5.852 5.852,5.852c1.769,0 3.446,-0.802 4.557,-2.18l35.656,-36.387c1.042,-1.089 1.624,-2.539 1.624,-4.046c0,-3.21 -2.642,-5.852 -5.852,-5.852c-0.176,0 -0.351,0.008 -0.526,0.024Zm-7.497,30.902l-8.229,8.411l8.229,8.045l0,0.183l0.183,0c4.539,4.127 8.445,8.223 12.068,12.251l-11.154,10.971c-1.378,1.111 -2.18,2.788 -2.18,4.557c0,3.21 2.641,5.852 5.852,5.852c1.769,0 3.446,-0.803 4.556,-2.18l36.205,-35.656c1.168,-1.105 1.83,-2.644 1.83,-4.251c0,-3.211 -2.641,-5.852 -5.852,-5.852c-0.245,0 -0.489,0.015 -0.732,0.046c-1.269,0.23 -2.426,0.873 -3.292,1.828l-16.822,16.457c-3.653,-3.991 -7.716,-8.128 -12.434,-12.434l-0.183,-0.183l-8.045,-8.045Z" style="fill:#fff;fill-rule:nonzero;"/></svg>